<?xml version="1.0" encoding="UTF-8" standalone="no"?>
<!DOCTYPE svg PUBLIC "-//W3C//DTD SVG 1.1//EN"
"http://www.w3.org/Graphics/SVG/1.1/DTD/svg11.dtd">
<svg viewBox="0 0 935 1210" version="1.1" xmlns="http://www.w3.org/2000/svg" xmlns:xlink="http://www.w3.org/1999/xlink">
<defs>
<style type="text/css"><![CDATA[
.g0_15{
fill: #FFF;
}
.g1_15{
fill: none;
stroke: #000;
stroke-width: 0.183;
stroke-miterlimit: 10;
}
.g2_15{
fill: #99F;
}
.g3_15{
fill: none;
stroke: #000;
stroke-width: 1.145;
stroke-linecap: round;
stroke-linejoin: round;
}
.g4_15{
fill: #993365;
}
.g5_15{
fill: #FFC;
}
.g6_15{
fill: #CFF;
}
.g7_15{
fill: #650065;
}
.g8_15{
fill: #FF8080;
}
.g9_15{
fill: #0065CC;
}
.ga_15{
fill: #CCF;
}
.gb_15{
fill: #000080;
}
.gc_15{
fill: none;
stroke: #000;
stroke-width: 0.183;
stroke-linecap: round;
stroke-linejoin: round;
}
.gd_15{
fill: #000;
}
]]></style>
</defs>
<path fill-rule="evenodd" d="M143.2,643.6H736.5V326.5H143.2V643.6Z" class="g0_15"/>
<path d="M143.2,643.6H736.5V326.5H143.2V643.6Z" class="g1_15"/>
<path fill-rule="evenodd" d="M356.3,366.5h14.8l2.4,1.2h4.6l2.2,1.1h4.5l2.4,1.1h2.2l2.4,1.1H394l2.4,1.3l2.2,1.1H401l2.2,1.1l2.4,1.1l2.2,1.3H410l2.3,1.1l2.2,1.1l2.4,1.1l2.2,1.3l2.4,1.1l2.2,1.1l2.4,1.1l1.1,1.3l2.4,1.1l2.2,1.1l2.4,1.1l1.1,2.3l2.2,1.1l2.3,1.1l1.1,1.3l2.4,2.2l2.2,1.1l1.1,1.3L449,402l1.1,1.1l2.4,2.4l1.1,1.1l2.2,2.4l1.3,1.1l2.2,2.2l1.1,1.3l2.4,2.2l1.1,2.3l1.1,1.1l1.2,2.2l2.2,2.4l1.1,1.1l1.3,2.4l1.1,2.2l1.1,2.4l2.4,1.1l1.1,2.2l1.1,2.4l1.1,2.2l1.3,2.4l1.1,2.2v2.3l1.1,2.2l1.1,1.3l1.3,2.2l1.1,2.4V457l1.1,2.2l1.1,2.4v2.2l1.3,2.4l1.1,2.2v2.4l1.1,3.4v2.2l1.1,2.4v4.6l1.2,2.2v9.2l-33.3,2.4l-1.1,-1.3v-6.8l-1.1,-2.4v-3.3L457.1,481v-3.5l-1.3,-1.1v-2.2L454.7,473v-2.2l-1.1,-1.1v-2.4l-1.1,-1.1v-2.4l-1.3,-1.1l-1.1,-2.2v-1.3L449,457l-1.1,-1.1l-1.3,-1.1v-2.4l-1.1,-1.1l-1.1,-1.1l-1.1,-2.4L442,446.7l-1.1,-1.1l-1.1,-2.3v-1.1l-1.1,-1.1l-1.2,-2.4l-1.1,-1.1l-1.1,-1.1l-1.1,-1.3l-2.4,-1.1L430.7,433l-1.1,-2.4l-1.3,-1.1l-1.1,-1.1l-1.1,-1.1L425,426l-2.4,-1.1l-1.1,-1.1l-1.1,-1.1l-1.3,-1.3l-2.2,-1.1l-1.1,-1.1l-1.3,-1.1l-1.1,-1.2h-2.2L410,415.8l-1.1,-1.1l-2.2,-1.1l-1.1,-1.3h-2.4l-1.1,-1.1l-2.4,-1.1h-1.1L397.5,409l-2.4,-1.3H394l-2.2,-1.1h-1.3l-2.2,-1.1h-1.1l-2.4,-1.1h-1.1l-2.3,-1.3h-3.3L376.8,402h-5.7l-2.2,-1.1H356.3V366.5Z" class="g2_15"/>
<path d="M356.3,366.5h14.8l2.4,1.2h4.6l2.2,1.1h4.5l2.4,1.1h2.2l2.4,1.1H394l2.4,1.3l2.2,1.1H401l2.2,1.1l2.4,1.1l2.2,1.3H410l2.3,1.1l2.2,1.1l2.4,1.1l2.2,1.3l2.4,1.1l2.2,1.1l2.4,1.1l1.1,1.3l2.4,1.1l2.2,1.1l2.4,1.1l1.1,2.3l2.2,1.1l2.3,1.1l1.1,1.3l2.4,2.2l2.2,1.1l1.1,1.3L449,402l1.1,1.1l2.4,2.4l1.1,1.1l2.2,2.4l1.3,1.1l2.2,2.2l1.1,1.3l2.4,2.2l1.1,2.3l1.1,1.1l1.2,2.2l2.2,2.4l1.1,1.1l1.3,2.4l1.1,2.2l1.1,2.4l2.4,1.1l1.1,2.2l1.1,2.4l1.1,2.2l1.3,2.4l1.1,2.2v2.3l1.1,2.2l1.1,1.3l1.3,2.2l1.1,2.4V457l1.1,2.2l1.1,2.4v2.2l1.3,2.4l1.1,2.2v2.4l1.1,3.4v2.2l1.1,2.4v4.6l1.2,2.2v9.2l-33.3,2.4l-1.1,-1.3v-6.8l-1.1,-2.4v-3.3L457.1,481v-3.5l-1.3,-1.1v-2.2L454.7,473v-2.2l-1.1,-1.1v-2.4l-1.1,-1.1v-2.4l-1.3,-1.1l-1.1,-2.2v-1.3L449,457l-1.1,-1.1l-1.3,-1.1v-2.4l-1.1,-1.1l-1.1,-1.1l-1.1,-2.4L442,446.7l-1.1,-1.1l-1.1,-2.3v-1.1l-1.1,-1.1l-1.2,-2.4l-1.1,-1.1l-1.1,-1.1l-1.1,-1.3l-2.4,-1.1L430.7,433l-1.1,-2.4l-1.3,-1.1l-1.1,-1.1l-1.1,-1.1L425,426l-2.4,-1.1l-1.1,-1.1l-1.1,-1.1l-1.3,-1.3l-2.2,-1.1l-1.1,-1.1l-1.3,-1.1l-1.1,-1.2h-2.2L410,415.8l-1.1,-1.1l-2.2,-1.1l-1.1,-1.3h-2.4l-1.1,-1.1l-2.4,-1.1h-1.1L397.5,409l-2.4,-1.3H394l-2.2,-1.1h-1.3l-2.2,-1.1h-1.1l-2.4,-1.1h-1.1l-2.3,-1.3h-3.3L376.8,402h-5.7l-2.2,-1.1H356.3V366.5Z" class="g3_15"/>
<path fill-rule="evenodd" d="M493.7,494.8l1.1,2.4V512l-1.1,2.2v10.5l-1.2,2.2v4.5l-1.1,2.4V536l-1.1,2.4v2.2l-1.1,2.4l-1.3,2.2v2.4l-1.1,2.2l-1.1,2.4v2.2l-1.1,2.3l-1.3,2.2l-1.1,2.4l-1.1,2.2v2.4l-1.1,2.2l-1.3,2.4l-1.1,1.1l-1.1,2.2l-1.1,2.4l-2.4,2.2l-1.1,2.4l-1.1,1.1l-1.3,2.2l-1.1,2.3l-2.2,2.2l-1.2,1.3l-1.1,2.2l-1.1,2.4l-2.4,1.1l-1.1,2.2l-2.2,1.3l-1.3,2.2l-2.2,1.1l-1.1,2.4l-2.4,1.1l-1.1,2.3l-2.4,1.1l-1.1,1.1l-2.2,2.4l-2.4,1.1l-1.1,1.1l-2.3,2.4l-2.2,1.1l-1.1,1.1l-2.4,1.1l-2.2,1.3l-2.4,1.1l-1.1,2.2l-2.4,1.3l-2.2,1.1l-2.4,1.1l-2.2,1.1h-2.4l-2.2,1.3l-2.3,1.1l-2.2,1.1l-2.2,1.1h-2.4l-2.2,1.2l-2.4,1.1h-2.2l-2.4,1.1l-2.2,1.1h-2.4l-2.2,1.3h-2.4l-2.2,1.1h-4.5l-2.4,1.1h-9.2l-2.2,1.1h-15l-2.2,-1.1H336.8l-2.4,-1.1h-4.5l-2.2,-1.1h-2.4L323.1,639h-2.4l-2.2,-1.1l-2.4,-1.1h-2.2l-2.4,-1.1l-2.2,-1.2h-2.4l-2.2,-1.1l-2.3,-1.1l-2.2,-1.1l-2.4,-1.3h-2.2l-1.3,-1.1l-2.2,-1.1l-2.4,-1.1l16.1,-31l2.2,1.1l1.3,1.1l2.2,1.3h1.1l1.3,1.1l2.2,1.1h1.1l2.4,1.1h1.1l2.4,1.3h1.1l2.2,1.1h1.3l2.2,1.1h3.4l1.1,1.1H339l1.1,1.2h7l2.2,1.1h15l1.1,-1.1h6.8l2.4,-1.2h3.5l2.2,-1.1h3.4l1.1,-1.1h2.4l1.1,-1.1h2.2l1.3,-1.3H394l1.1,-1.1h2.4l1.1,-1.1l1.1,-1.1h2.4l1.1,-1.3l2.4,-1.1l1.1,-1.1h2.2l1.1,-1.1l1.2,-1.3l2.2,-1.1l1.1,-1.1l1.3,-1.1l1.1,-1.3l2.2,-1.1l1.3,-1.1l1.1,-1.1l1.1,-1.2L425,583l1.1,-1.1l1.1,-1.1l1.1,-1.3l1.3,-1.1l1.1,-1.1l1.1,-1.1l2.4,-1.3l1.1,-2.2l1.1,-1.1l1.1,-1.1l1.2,-1.3l1.1,-1.1v-2.2l1.1,-1.3l1.1,-1.1l1.3,-2.2l1.1,-1.3l1.1,-1.1l1.1,-2.2v-1.2l1.3,-2.2l1.1,-1.1l1.1,-1.3v-2.2l1.1,-1.1l1.3,-2.4v-1.1l1.1,-2.4v-1.1l1.1,-2.2v-1.3l1.1,-2.2v-1.1l1.3,-2.4V528l1.1,-1.1v-3.5l1.1,-2.2v-7l1.1,-2.2V497.2l33.3,-2.4Z" class="g4_15"/>
<path d="M493.7,494.8l1.1,2.4V512l-1.1,2.2v10.5l-1.2,2.2v4.5l-1.1,2.4V536l-1.1,2.4v2.2l-1.1,2.4l-1.3,2.2v2.4l-1.1,2.2l-1.1,2.4v2.2l-1.1,2.3l-1.3,2.2l-1.1,2.4l-1.1,2.2v2.4l-1.1,2.2l-1.3,2.4l-1.1,1.1l-1.1,2.2l-1.1,2.4l-2.4,2.2l-1.1,2.4l-1.1,1.1l-1.3,2.2l-1.1,2.3l-2.2,2.2l-1.2,1.3l-1.1,2.2l-1.1,2.4l-2.4,1.1l-1.1,2.2l-2.2,1.3l-1.3,2.2l-2.2,1.1l-1.1,2.4l-2.4,1.1l-1.1,2.3l-2.4,1.1l-1.1,1.1l-2.2,2.4l-2.4,1.1l-1.1,1.1l-2.3,2.4l-2.2,1.1l-1.1,1.1l-2.4,1.1l-2.2,1.3l-2.4,1.1l-1.1,2.2l-2.4,1.3l-2.2,1.1l-2.4,1.1l-2.2,1.1h-2.4l-2.2,1.3l-2.3,1.1l-2.2,1.1l-2.2,1.1h-2.4l-2.2,1.2l-2.4,1.1h-2.2l-2.4,1.1l-2.2,1.1h-2.4l-2.2,1.3h-2.4l-2.2,1.1h-4.5l-2.4,1.1h-9.2l-2.2,1.1h-15l-2.2,-1.1H336.8l-2.4,-1.1h-4.5l-2.2,-1.1h-2.4L323.1,639h-2.4l-2.2,-1.1l-2.4,-1.1h-2.2l-2.4,-1.1l-2.2,-1.2h-2.4l-2.2,-1.1l-2.3,-1.1l-2.2,-1.1l-2.4,-1.3h-2.2l-1.3,-1.1l-2.2,-1.1l-2.4,-1.1l16.1,-31l2.2,1.1l1.3,1.1l2.2,1.3h1.1l1.3,1.1l2.2,1.1h1.1l2.4,1.1h1.1l2.4,1.3h1.1l2.2,1.1h1.3l2.2,1.1h3.4l1.1,1.1H339l1.1,1.2h7l2.2,1.1h15l1.1,-1.1h6.8l2.4,-1.2h3.5l2.2,-1.1h3.4l1.1,-1.1h2.4l1.1,-1.1h2.2l1.3,-1.3H394l1.1,-1.1h2.4l1.1,-1.1l1.1,-1.1h2.4l1.1,-1.3l2.4,-1.1l1.1,-1.1h2.2l1.1,-1.1l1.2,-1.3l2.2,-1.1l1.1,-1.1l1.3,-1.1l1.1,-1.3l2.2,-1.1l1.3,-1.1l1.1,-1.1l1.1,-1.2L425,583l1.1,-1.1l1.1,-1.1l1.1,-1.3l1.3,-1.1l1.1,-1.1l1.1,-1.1l2.4,-1.3l1.1,-2.2l1.1,-1.1l1.1,-1.1l1.2,-1.3l1.1,-1.1v-2.2l1.1,-1.3l1.1,-1.1l1.3,-2.2l1.1,-1.3l1.1,-1.1l1.1,-2.2v-1.2l1.3,-2.2l1.1,-1.1l1.1,-1.3v-2.2l1.1,-1.1l1.3,-2.4v-1.1l1.1,-2.4v-1.1l1.1,-2.2v-1.3l1.1,-2.2v-1.1l1.3,-2.4V528l1.1,-1.1v-3.5l1.1,-2.2v-7l1.1,-2.2V497.2l33.3,-2.4Z" class="g3_15"/>
<path fill-rule="evenodd" d="M289.7,626.6l-2.2,-1.3l-2.4,-2.2L282.9,622l-1.1,-1.3l-2.4,-1.1l-2.2,-1.1l-2.3,-1.1L273.8,615l-2.2,-1.1l-2.4,-1.1l-1.1,-2.4l-2.4,-1.1l-1.1,-1.1l-2.2,-2.3l-1.3,-1.1l-2.2,-2.4l-1.1,-1.1l-2.4,-2.2l-1.1,-1.3l-2.4,-2.2l-1.1,-1.1l-1.1,-2.4l-2.3,-2.2l-1.1,-1.3l-1.1,-2.2l-1.1,-2.3l-2.4,-2.2l-1.1,-1.1l-1.1,-2.4l-1.3,-2.2l-1.1,-2.4L236,571.6l-1.1,-1.1l-1.3,-2.4l-1.1,-2.2l-1.1,-2.4l31,-14.8l1.1,2.2l1.1,1.3v1.1l1.1,2.2l1.3,1.2l1.1,2.2l1.1,1.1v1.3l1.1,2.2l1.3,1.1l1.1,1.3l1.1,2.2l1.1,1.1l1.2,1.3l1.1,1.1l1.1,1.1l1.1,2.2l1.3,1.3l1.1,1.1l1.1,1.1l1.1,1.1l2.4,1.3l1.1,1.1l1.1,1.1l1.1,1.1l1.3,1.2l2.2,1.1l1.1,1.1l1.3,1.1l1.1,1.3l2.2,1.1l1.3,1.1l1.1,1.1l2.2,1.3l1.2,1.1h1.1l-16.1,31Z" class="g5_15"/>
<path d="M289.7,626.6l-2.2,-1.3l-2.4,-2.2L282.9,622l-1.1,-1.3l-2.4,-1.1l-2.2,-1.1l-2.3,-1.1L273.8,615l-2.2,-1.1l-2.4,-1.1l-1.1,-2.4l-2.4,-1.1l-1.1,-1.1l-2.2,-2.3l-1.3,-1.1l-2.2,-2.4l-1.1,-1.1l-2.4,-2.2l-1.1,-1.3l-2.4,-2.2l-1.1,-1.1l-1.1,-2.4l-2.3,-2.2l-1.1,-1.3l-1.1,-2.2l-1.1,-2.3l-2.4,-2.2l-1.1,-1.1l-1.1,-2.4l-1.3,-2.2l-1.1,-2.4L236,571.6l-1.1,-1.1l-1.3,-2.4l-1.1,-2.2l-1.1,-2.4l31,-14.8l1.1,2.2l1.1,1.3v1.1l1.1,2.2l1.3,1.2l1.1,2.2l1.1,1.1v1.3l1.1,2.2l1.3,1.1l1.1,1.3l1.1,2.2l1.1,1.1l1.2,1.3l1.1,1.1l1.1,1.1l1.1,2.2l1.3,1.3l1.1,1.1l1.1,1.1l1.1,1.1l2.4,1.3l1.1,1.1l1.1,1.1l1.1,1.1l1.3,1.2l2.2,1.1l1.1,1.1l1.3,1.1l1.1,1.3l2.2,1.1l1.3,1.1l1.1,1.1l2.2,1.3l1.2,1.1h1.1l-16.1,31Z" class="g3_15"/>
<path fill-rule="evenodd" d="M231.4,563.5l-1.1,-2.2L229,558.9v-2.2l31,-12.6l1.1,1.1l1.3,2.4v1.1l-31,14.8Z" class="g6_15"/>
<path d="M231.4,563.5l-1.1,-2.2L229,558.9v-2.2l31,-12.6l1.1,1.1l1.3,2.4v1.1l-31,14.8Z" class="g3_15"/>
<path fill-rule="evenodd" d="M229,556.7l-1.1,-2.3l-1.1,-2.2l-1.1,-2.4v-2.2l-1.3,-2.4L223.3,543v-2.4l-1.1,-2.2V536l-1.1,-2.2v-4.6l-1.2,-2.3v-5.7l33.3,-3.5l1.1,1.1v5.9l1.1,2.2v3.4l1.1,1.1v2.4l1.3,1.1v2.2l1.1,1.3v2.2l1.1,1.1v2.4l-31,12.6Z" class="g7_15"/>
<path d="M229,556.7l-1.1,-2.3l-1.1,-2.2l-1.1,-2.4v-2.2l-1.3,-2.4L223.3,543v-2.4l-1.1,-2.2V536l-1.1,-2.2v-4.6l-1.2,-2.3v-5.7l33.3,-3.5l1.1,1.1v5.9l1.1,2.2v3.4l1.1,1.1v2.4l1.3,1.1v2.2l1.1,1.3v2.2l1.1,1.1v2.4l-31,12.6Z" class="g3_15"/>
<path fill-rule="evenodd" d="M219.9,521.2l-1.1,-2.4V505h34.4v12.7l-33.3,3.5Z" class="g8_15"/>
<path d="M219.9,521.2l-1.1,-2.4V505h34.4v12.7l-33.3,3.5Z" class="g3_15"/>
<path fill-rule="evenodd" d="M218.8,505V490.2l1.1,-2.2v-4.6l1.2,-2.4v-4.6l1.1,-2.2v-3.4l1.1,-2.4v-2.2l1.1,-2.4l1.3,-2.2v-2.4l1.1,-2.2l1.1,-2.2l1.1,-2.4v-2.2l1.3,-1.3l1.1,-2.2l1.1,-2.3l1.1,-2.2l1.3,-2.4l1.1,-2.2l1.1,-2.4l1.1,-2.2l1.3,-1.1l29.7,18.3l-1.1,1.1l-1.1,1.1l-1.3,2.4l-1.1,1.1V457l-1.1,2.2l-1.1,1.3v2.2l-1.3,1.1l-1.1,2.4v1.1l-1.1,2.4v1.1l-1.1,2.2v1.2l-1.3,2.2v1.1l-1.1,2.4v3.5l-1.1,1.1v5.7l-1.1,2.4V505H218.8Z" class="g9_15"/>
<path d="M218.8,505V490.2l1.1,-2.2v-4.6l1.2,-2.4v-4.6l1.1,-2.2v-3.4l1.1,-2.4v-2.2l1.1,-2.4l1.3,-2.2v-2.4l1.1,-2.2l1.1,-2.2l1.1,-2.4v-2.2l1.3,-1.3l1.1,-2.2l1.1,-2.3l1.1,-2.2l1.3,-2.4l1.1,-2.2l1.1,-2.4l1.1,-2.2l1.3,-1.1l29.7,18.3l-1.1,1.1l-1.1,1.1l-1.3,2.4l-1.1,1.1V457l-1.1,2.2l-1.1,1.3v2.2l-1.3,1.1l-1.1,2.4v1.1l-1.1,2.4v1.1l-1.1,2.2v1.2l-1.3,2.2v1.1l-1.1,2.4v3.5l-1.1,1.1v5.7l-1.1,2.4V505H218.8Z" class="g3_15"/>
<path fill-rule="evenodd" d="M239.5,431.9l1.1,-2.4l1.1,-2.2l2.4,-2.4l1.1,-1.1l1.1,-2.4l1.1,-2.2l2.3,-1.1l1.1,-2.3l26.4,21.8l-1.1,1.1l-1.2,2.4l-1.1,1.1l-1.1,1.1l-1.1,2.3l-1.3,1.1l-1.1,1.1v2.4L239.5,431.9Z" class="ga_15"/>
<path d="M239.5,431.9l1.1,-2.4l1.1,-2.2l2.4,-2.4l1.1,-1.1l1.1,-2.4l1.1,-2.2l2.3,-1.1l1.1,-2.3l26.4,21.8l-1.1,1.1l-1.2,2.4l-1.1,1.1l-1.1,1.1l-1.1,2.3l-1.3,1.1l-1.1,1.1v2.4L239.5,431.9Z" class="g3_15"/>
<path fill-rule="evenodd" d="M250.8,415.8l1.1,-2.2l2.4,-1.3l1.1,-2.2l2.4,-1.1l1.1,-2.4l2.2,-1.1l1.3,-2.4l2.2,-1.1l1.1,-2.2l2.4,-1.3l1.1,-1.1l2.4,-2.2l2.2,-1.3l1.1,-1.1l2.3,-1.1l2.2,-2.3l2.4,-1.1l1.1,-1.1l2.2,-1.1l2.4,-1.3l2.2,-1.1l2.4,-1.1l2.2,-1.1l1.3,-1.3l2.2,-1.1l2.4,-1.1l2.2,-1.1h2.3l2.2,-1.3l2.4,-1.1l2.2,-1.1h2.4l2.2,-1.1l2.4,-1.3h2.2l2.4,-1.1h2.2l2.4,-1.1h4.5l2.2,-1.1h5.7l2.4,-1.2h13.8v34.4H343.6l-1.1,1.1h-5.7l-2.4,1.1H331l-1.1,1.3h-2.2l-1.3,1.1h-2.2l-1.1,1.1h-2.4l-1.1,1.1h-2.4l-1.1,1.3l-2.2,1.1h-1.3l-1.1,1.1l-2.2,1.1H308l-2.2,1.3l-1.1,1.1l-1.2,1.1l-2.2,1.1h-1.1l-1.3,1.2l-2.2,1.1l-1.1,1.1l-1.3,1.1l-1.1,1.3l-2.2,1.1l-1.3,1.1l-1.1,1.1l-1.1,1.3l-1.1,1.1l-2.4,1.1l-1.1,1.1l-1.1,2.4l-1.1,1.1l-1.3,1.1l-1.1,1.3l-1.1,1.1L250.8,415.8Z" class="gb_15"/>
<path d="M250.8,415.8l1.1,-2.2l2.4,-1.3l1.1,-2.2l2.4,-1.1l1.1,-2.4l2.2,-1.1l1.3,-2.4l2.2,-1.1l1.1,-2.2l2.4,-1.3l1.1,-1.1l2.4,-2.2l2.2,-1.3l1.1,-1.1l2.3,-1.1l2.2,-2.3l2.4,-1.1l1.1,-1.1l2.2,-1.1l2.4,-1.3l2.2,-1.1l2.4,-1.1l2.2,-1.1l1.3,-1.3l2.2,-1.1l2.4,-1.1l2.2,-1.1h2.3l2.2,-1.3l2.4,-1.1l2.2,-1.1h2.4l2.2,-1.1l2.4,-1.3h2.2l2.4,-1.1h2.2l2.4,-1.1h4.5l2.2,-1.1h5.7l2.4,-1.2h13.8v34.4H343.6l-1.1,1.1h-5.7l-2.4,1.1H331l-1.1,1.3h-2.2l-1.3,1.1h-2.2l-1.1,1.1h-2.4l-1.1,1.1h-2.4l-1.1,1.3l-2.2,1.1h-1.3l-1.1,1.1l-2.2,1.1H308l-2.2,1.3l-1.1,1.1l-1.2,1.1l-2.2,1.1h-1.1l-1.3,1.2l-2.2,1.1l-1.1,1.1l-1.3,1.1l-1.1,1.3l-2.2,1.1l-1.3,1.1l-1.1,1.1l-1.1,1.3l-1.1,1.1l-2.4,1.1l-1.1,1.1l-1.1,2.4l-1.1,1.1l-1.3,1.1l-1.1,1.3l-1.1,1.1L250.8,415.8Z" class="g3_15"/>
<path fill-rule="evenodd" d="M564.7,608.2H731.9V412.3H564.7V608.2Z" class="g0_15"/>
<path d="M564.7,608.2H731.9V412.3H564.7V608.2Z" class="gc_15"/>
<path fill-rule="evenodd" d="M569.3,427.3H576v-7h-6.7v7Z" class="g2_15"/>
<path d="M569.3,427.3H576v-7h-6.7v7Z" class="g3_15"/>
<path fill-rule="evenodd" d="M569.3,448.9H576v-6.7h-6.7v6.7Z" class="g4_15"/>
<path d="M569.3,448.9H576v-6.7h-6.7v6.7Z" class="g3_15"/>
<path fill-rule="evenodd" d="M569.3,470.8H576v-7h-6.7v7Z" class="g5_15"/>
<path d="M569.3,470.8H576v-7h-6.7v7Z" class="g3_15"/>
<path fill-rule="evenodd" d="M569.3,492.6H576v-7h-6.7v7Z" class="g6_15"/>
<path d="M569.3,492.6H576v-7h-6.7v7Z" class="g3_15"/>
<path fill-rule="evenodd" d="M569.3,514.2H576v-6.8h-6.7v6.8Z" class="g7_15"/>
<path d="M569.3,514.2H576v-6.8h-6.7v6.8Z" class="g3_15"/>
<path fill-rule="evenodd" d="M569.3,536H576v-6.8h-6.7V536Z" class="g8_15"/>
<path d="M569.3,536H576v-6.8h-6.7V536Z" class="g3_15"/>
<path fill-rule="evenodd" d="M569.3,557.8H576v-6.9h-6.7v6.9Z" class="g9_15"/>
<path d="M569.3,557.8H576v-6.9h-6.7v6.9Z" class="g3_15"/>
<path fill-rule="evenodd" d="M569.3,579.5H576v-6.8h-6.7v6.8Z" class="ga_15"/>
<path d="M569.3,579.5H576v-6.8h-6.7v6.8Z" class="g3_15"/>
<path fill-rule="evenodd" d="M569.3,601.3H576v-6.8h-6.7v6.8Z" class="gb_15"/>
<path d="M569.3,601.3H576v-6.8h-6.7v6.8Z" class="g3_15"/>
<path d="M143.2,643.6H736.5V326.5H143.2V643.6Z" class="gc_15"/>
<path d="M36.7,41.2h4.6V36.7H36.7v4.5Z" class="gd_15"/>
<path d="M36.7,41.2h4.6V36.7H36.7v4.5Z" class="gd_15"/>
<path d="M41.3,41.2H893.7V36.7H41.3v4.5Z" class="gd_15"/>
<path d="M893.7,41.2h4.6V36.7h-4.6v4.5Z" class="gd_15"/>
<path d="M893.7,41.2h4.6V36.7h-4.6v4.5Z" class="gd_15"/>
<path d="M36.7,1168.7h4.6V41.2H36.7V1168.7Z" class="gd_15"/>
<path d="M893.7,1168.7h4.6V41.2h-4.6V1168.7Z" class="gd_15"/>
<path d="M36.7,1173.2h4.6v-4.5H36.7v4.5Z" class="gd_15"/>
<path d="M36.7,1173.2h4.6v-4.5H36.7v4.5Z" class="gd_15"/>
<path d="M41.3,1173.2H893.7v-4.5H41.3v4.5Z" class="gd_15"/>
<path d="M893.7,1173.2h4.6v-4.5h-4.6v4.5Z" class="gd_15"/>
<path d="M893.7,1173.2h4.6v-4.5h-4.6v4.5Z" class="gd_15"/>
</svg>