<?xml version="1.0" encoding="UTF-8" standalone="no"?>
<!DOCTYPE svg PUBLIC "-//W3C//DTD SVG 1.1//EN"
"http://www.w3.org/Graphics/SVG/1.1/DTD/svg11.dtd">
<svg viewBox="0 0 935 1210" version="1.1" xmlns="http://www.w3.org/2000/svg" xmlns:xlink="http://www.w3.org/1999/xlink">
<defs>
<style type="text/css"><![CDATA[
.g0_16{
fill: #FFF;
}
.g1_16{
fill: none;
stroke: #000;
stroke-width: 1.145;
stroke-linecap: round;
stroke-linejoin: round;
}
.g2_16{
fill: #99F;
}
.g3_16{
fill: #993365;
}
.g4_16{
fill: none;
stroke: #000;
stroke-width: 0.183;
stroke-linecap: round;
stroke-linejoin: round;
}
.g5_16{
fill: #000;
}
]]></style>
</defs>
<path fill-rule="evenodd" d="M143.2,442.2h528V211h-528V442.2Z" class="g0_16"/>
<path d="M143.2,211h528V442.2h-528Z" class="g1_16"/>
<path fill-rule="evenodd" d="M385.9,267.1h11.6l1.1,1.1h4.6l1.1,1.1h3.5l1.1,1.3h2.3l2.2,1.1h1.1l1.3,1.1h1.1l1.1,1.1h1.1l2.4,1.1h1.1l1.1,1.3H425l1.1,1.1l1.1,1.1h1.1l1.3,1.1l2.2,1.2h1.1l1.3,1.1l1.1,1.1l1.1,1.1h1.1l1.2,1.3l1.1,1.1l1.1,1.1l1.1,1.1h1.3V290l1.1,1.1l1.1,1.1l1.1,1.1l1.3,1.3l1.1,1.1l1.1,1.1v1.1l1.1,1.3l1.3,1.1l1.1,1.1l1.1,1.1v1.3l1.1,1.1l1.3,1.1v1.1l1.1,1.2l1.1,2.2v1.1l1.1,1.3V314l1.3,1.1v1.1l1.1,2.4v1.1l1.1,1.1v1.3l1.1,1.1v2.2l1.2,1.3v2.2l1.1,1.1v4.6l1.1,1.1v8l1.1,1.1v11.6l-1.1,2.2v6.9l-1.1,1.1v4.6l-1.1,1.1v3.5l-1.2,1.1v1.3l-1.1,1.1v2.2l-1.1,1.3v1.1l-1.1,1.1v1.1l-1.3,1.2v2.3l-1.1,1v1.3l-1.1,1.1l-1.1,1.1v1.1l-1.3,1.1l-1.1,1.3v1.1l-1.1,1.1l-1.1,1.1l-1.3,2.4l-1.1,1.1l-1.1,1.1l-1.1,1.3l-1.3,1.1l-1.1,1.1l-1.1,1.1l-1.1,1.3v1.1l-1.3,1.1l-1.1,1.1l-1.1,1.2h-1.1l-1.2,1.2l-1.1,1l-1.1,1.1h-1.1l-1.3,1.3l-1.1,1.1l-2.2,1.1h-1.3l-1.1,1.1l-1.1,1.3H425l-1.3,1.1h-1.1l-1.1,1.1h-2.4l-1.1,1.1h-1.1l-1.1,1.3h-1.3l-1.1,1.1h-2.2l-1.2,1.1h-2.2l-2.2,1.1h-3.5l-2.4,1.3h-6.8l-1.1,1.1H380.3l-2.2,-1.1h-7L370,433h-4.6l-1.1,-1.1h-3.5l-1.1,-1.1h-1.3l-1,-1.1h-1.1l-2.4,-1.3h-1.1l-1.1,-1.1h-1.1l-1.3,-1.1h-1.1L346,425.1h-1.3l-1.1,-1.3l-1.1,-1.1h-1.1l-1.3,-1.1L339,420.5l-1.1,-1.3h-1.1l-1.3,-1.1l-1.1,-1l-1.1,-1.2h-1.1L331,414.7l-1.1,-1.1l-1.1,-1.1l-1.1,-1.1l-1.3,-1.3L325.3,409l-1.1,-1.1l-1.1,-1.1v-1.3l-1.3,-1.1h-1.1l-1.1,-1.1l-1.1,-2.4v-1.1l34.3,-24v1.1h1.1v1.3h1.3v1.1l1.1,1.1l1.1,1.1h1v1.3h1.3v1.1h1.1l1.1,1.1l1.1,1.1h1.3v1.2h2.2v1.1h2.4v1.2h2.2v1h3.5v1.3h5.7l1.1,1.1h9.1v-1.1h5.9l1.1,-1.3h2.2l1.3,-1h1.1l1.1,-1.2h1.1l1.3,-1.1h1.1l1.1,-1.2h1.1V385H410v-1.1h1.2l1.1,-1.1l1.1,-1.3h1.1v-1.1h1.3v-1.1h1.1v-1.1l1.1,-1.3l1.1,-1.1v-1.1h1.3v-1.1l1.1,-1.3v-1.1l1.1,-1.1V369l1.1,-1.3v-2.2H425v-3.4h1.1v-5.7l1.1,-1.1v-9.2h-1.1v-5.9L425,339.1v-2.2l-1.3,-1.2v-2.2h-1.1v-2.2h-1.1v-2.4h-1.1v-1.1l-1.3,-1.1v-1.3H418v-1.1h-1.1v-1.1l-1.1,-1.1l-1.3,-1.3h-1.1v-1.1h-1.1v-1.1h-1.1v-1.1H410l-1.1,-1.3h-1.1v-1.1h-1.1L405.6,314h-1.3v-1.1h-2.2L401,311.6h-2.4l-1.1,-1.1H394v-1.1h-8.1V267.1Z" class="g2_16"/>
<path d="M385.9,267.1h11.6l1.1,1.1h4.6l1.1,1.1h3.5l1.1,1.3h2.3l2.2,1.1h1.1l1.3,1.1h1.1l1.1,1.1h1.1l2.4,1.1h1.1l1.1,1.3H425l1.1,1.1l1.1,1.1h1.1l1.3,1.1l2.2,1.2h1.1l1.3,1.1l1.1,1.1l1.1,1.1h1.1l1.2,1.3l1.1,1.1l1.1,1.1l1.1,1.1h1.3V290l1.1,1.1l1.1,1.1l1.1,1.1l1.3,1.3l1.1,1.1l1.1,1.1v1.1l1.1,1.3l1.3,1.1l1.1,1.1l1.1,1.1v1.3l1.1,1.1l1.3,1.1v1.1l1.1,1.2l1.1,2.2v1.1l1.1,1.3V314l1.3,1.1v1.1l1.1,2.4v1.1l1.1,1.1v1.3l1.1,1.1v2.2l1.2,1.3v2.2l1.1,1.1v4.6l1.1,1.1v8l1.1,1.1v11.6l-1.1,2.2v6.9l-1.1,1.1v4.6l-1.1,1.1v3.5l-1.2,1.1v1.3l-1.1,1.1v2.2l-1.1,1.3v1.1l-1.1,1.1v1.1l-1.3,1.3v2.1l-1.1,1.1v1.3l-1.1,1.1l-1.1,1.1v1.1l-1.3,1.1l-1.1,1.3v1.1l-1.1,1.1l-1.1,1.1l-1.3,2.4l-1.1,1.1l-1.1,1.1l-1.1,1.3l-1.3,1.1l-1.1,1.1l-1.1,1.1l-1.1,1.3v1.1l-1.3,1.1l-1.1,1.1l-1.1,1.2h-1.1l-1.2,1.1l-1.1,1.1l-1.1,1.2h-1.1l-1.3,1.2l-1.1,1.1l-2.2,1.1h-1.3l-1.1,1.1l-1.1,1.3H425l-1.3,1.1h-1.1l-1.1,1.1h-2.4l-1.1,1.1h-1.1l-1.1,1.3h-1.3l-1.1,1.1h-2.2l-1.2,1.1h-2.2l-2.2,1.1h-3.5l-2.4,1.3h-6.8l-1.1,1.1H380.3l-2.2,-1.1h-7L370,433h-4.6l-1.1,-1.1h-3.5l-1.1,-1.1h-1.3l-1.1,-1.1h-1.1l-2.3,-1.3h-1.1l-1.1,-1.1h-1.1l-1.3,-1.1h-1.1L346,425.1h-1.3l-1.1,-1.3l-1.1,-1.1h-1.1l-1.3,-1.1L339,420.5l-1.1,-1.2h-1.1l-1.3,-1.2L334.4,417l-1.1,-1.1h-1.1L331,414.7l-1.1,-1.1l-1.1,-1.1l-1.1,-1.1l-1.3,-1.3L325.3,409l-1.1,-1.1l-1.1,-1.1v-1.3l-1.3,-1.1h-1.1l-1.1,-1.1l-1.1,-2.4v-1.1l34.3,-24v1.1h1.1v1.3h1.2v1.1l1.1,1.1l1.1,1.1h1.1v1.3h1.3v1.1h1.1l1.1,1.1l1.1,1.1h1.3v1.3h2.2v1h2.4v1.1h2.2v1.1h3.5v1.3h5.7l1.1,1.1h9.1v-1.1h5.9l1.1,-1.3h2.2l1.3,-1.1h1.1l1.1,-1.1h1.1l1.3,-1h1.1l1.1,-1.3h1.1V385H410v-1.1h1.2l1.1,-1.1l1.1,-1.3h1.1v-1.1h1.3v-1.1h1.1v-1.1l1.1,-1.3l1.1,-1.1v-1.1h1.3v-1.1l1.1,-1.3v-1.1l1.1,-1.1V369l1.1,-1.3v-2.2H425v-3.4h1.1v-5.7l1.1,-1.1v-9.2h-1.1v-5.9L425,339.1v-2.2l-1.3,-1.2v-2.2h-1.1v-2.2h-1.1v-2.4h-1.1v-1.1l-1.3,-1.1v-1.3H418v-1.1h-1.1v-1.1l-1.1,-1.1l-1.3,-1.3h-1.1v-1.1h-1.1v-1.1h-1.1v-1.1H410l-1.1,-1.3h-1.1v-1.1h-1.1L405.6,314h-1.3v-1.1h-2.2L401,311.6h-2.4l-1.1,-1.1H394v-1.1h-8.1V267.1Z" class="g1_16"/>
<path fill-rule="evenodd" d="M318.5,399.8l-1.3,-1.1l-1.1,-1.1v-1.3L315,395.2l-1.1,-1.1V393l-1.3,-1.1l-1.1,-1.3v-1l-1.1,-2.3v-1.2L309.3,385v-1.1L308,382.8v-1.3l-1.1,-2.2v-1.1l-1.1,-1.3v-2.2l-1.1,-2.4v-2.2L303.5,369v-4.6l-1.1,-2.3v-23l1.1,-1.1v-4.5l1.2,-1.1v-3.5l1.1,-1.1v-2.4l1.1,-2.2v-1.1l1.1,-1.3v-1.1l1.3,-1.1v-2.4l1.1,-1.1V314l1.1,-1.1v-1.3l1.1,-1.1l1.3,-2.2v-1.2L315,306l1.1,-1.1v-1.1l1.1,-1.3l1.3,-1.1v-1.1l1.1,-1.1l1.1,-1.3l1.1,-1.1l1.3,-1.1v-1.1l1.1,-1.3l1.1,-1.1l1.1,-1.1l1.3,-1.1l1.1,-1.3h1.1l1.1,-1.1l1.2,-1.1l1.1,-1.1l1.1,-1.3h1.1l1.3,-1.1l1.1,-1.1l1.1,-1.1h1.1l1.3,-1.2l1.1,-1.1h1.1l1.1,-1.1l1.3,-1.1h2.2l1.1,-1.3h1.3l1.1,-1.1h1.1l1.1,-1.1h2.4l1.1,-1.1h1l1.3,-1.1H363l1.3,-1.3h2.2l2.4,-1.1h3.3l2.4,-1.1h11.3v42.3h-7.8l-1.3,1.1h-3.3v1.1H370v1.3h-2.4l-1.1,1.1h-1.1v1.1h-1.1l-1.3,1.1h-1.1v1.3h-1.1l-1.1,1.1l-1.3,1.1l-1,1.1h-1.1v1.3h-1.1v1.1l-1.3,1.1l-1.1,1.1v1.3h-1.1v1.1l-1.1,1.1V330l-1.3,1.3v1.1h-1.1v2.2l-1.1,1.1V338l-1.1,1.1v3.5h-1.3v16l1.3,1.3v3.3l1.1,1.2v2.2l1.1,1.1V369l1.1,1.1v1.1l1.3,1.1v1.3h1.1v1.1l1.1,1.1l-34.3,24Z" class="g3_16"/>
<path d="M318.5,399.8l-1.3,-1.1l-1.1,-1.1v-1.3L315,395.2l-1.1,-1.1V393l-1.3,-1.1l-1.1,-1.3v-1.1l-1.1,-2.1v-1.3L309.3,385v-1.1L308,382.8v-1.3l-1.1,-2.2v-1.1l-1.1,-1.3v-2.2l-1.1,-2.4v-2.2L303.5,369v-4.6l-1.1,-2.3v-23l1.1,-1.1v-4.5l1.2,-1.1v-3.5l1.1,-1.1v-2.4l1.1,-2.2v-1.1l1.1,-1.3v-1.1l1.3,-1.1v-2.4l1.1,-1.1V314l1.1,-1.1v-1.3l1.1,-1.1l1.3,-2.2v-1.2L315,306l1.1,-1.1v-1.1l1.1,-1.3l1.3,-1.1v-1.1l1.1,-1.1l1.1,-1.3l1.1,-1.1l1.3,-1.1v-1.1l1.1,-1.3l1.1,-1.1l1.1,-1.1l1.3,-1.1l1.1,-1.3h1.1l1.1,-1.1l1.2,-1.1l1.1,-1.1l1.1,-1.3h1.1l1.3,-1.1l1.1,-1.1l1.1,-1.1h1.1l1.3,-1.2l1.1,-1.1h1.1l1.1,-1.1l1.3,-1.1h2.2l1.1,-1.3h1.3l1.1,-1.1h1.1l1.1,-1.1h2.3l1.1,-1.1h1.1l1.3,-1.1H363l1.3,-1.3h2.2l2.4,-1.1h3.3l2.4,-1.1h11.3v42.3h-7.8l-1.3,1.1h-3.3v1.1H370v1.3h-2.4l-1.1,1.1h-1.1v1.1h-1.1l-1.3,1.1h-1.1v1.3h-1.1l-1.1,1.1l-1.3,1.1l-1.1,1.1h-1.1v1.3h-1.1v1.1l-1.2,1.1l-1.1,1.1v1.3h-1.1v1.1l-1.1,1.1V330l-1.3,1.3v1.1h-1.1v2.2l-1.1,1.1V338l-1.1,1.1v3.5h-1.3v16l1.3,1.3v3.3l1.1,1.2v2.2l1.1,1.1V369l1.1,1.1v1.1l1.3,1.1v1.3h1.1v1.1l1.1,1.1l-34.3,24Z" class="g1_16"/>
<path fill-rule="evenodd" d="M626.5,375.8h40.1V332.4H626.5v43.4Z" class="g0_16"/>
<path d="M626.5,375.8h40.1V332.4H626.5v43.4Z" class="g4_16"/>
<path fill-rule="evenodd" d="M631,347.2h7v-7h-7v7Z" class="g2_16"/>
<path d="M631,340.2h7v7h-7Z" class="g1_16"/>
<path fill-rule="evenodd" d="M631,369h7v-6.9h-7V369Z" class="g3_16"/>
<path d="M631,362.1h7V369h-7ZM143.2,211h528V442.2h-528Z" class="g1_16"/>
<path d="M36.7,41.2h4.6V36.7H36.7v4.5Z" class="g5_16"/>
<path d="M36.7,41.2h4.6V36.7H36.7v4.5Z" class="g5_16"/>
<path d="M41.3,41.2H893.7V36.7H41.3v4.5Z" class="g5_16"/>
<path d="M893.7,41.2h4.6V36.7h-4.6v4.5Z" class="g5_16"/>
<path d="M893.7,41.2h4.6V36.7h-4.6v4.5Z" class="g5_16"/>
<path d="M36.7,1168.7h4.6V41.2H36.7V1168.7Z" class="g5_16"/>
<path d="M893.7,1168.7h4.6V41.2h-4.6V1168.7Z" class="g5_16"/>
<path d="M36.7,1173.2h4.6v-4.5H36.7v4.5Z" class="g5_16"/>
<path d="M36.7,1173.2h4.6v-4.5H36.7v4.5Z" class="g5_16"/>
<path d="M41.3,1173.2H893.7v-4.5H41.3v4.5Z" class="g5_16"/>
<path d="M893.7,1173.2h4.6v-4.5h-4.6v4.5Z" class="g5_16"/>
<path d="M893.7,1173.2h4.6v-4.5h-4.6v4.5Z" class="g5_16"/>
</svg>