<?xml version="1.0" encoding="UTF-8" standalone="no"?>
<!DOCTYPE svg PUBLIC "-//W3C//DTD SVG 1.1//EN"
"http://www.w3.org/Graphics/SVG/1.1/DTD/svg11.dtd">
<svg viewBox="0 0 935 1210" version="1.1" xmlns="http://www.w3.org/2000/svg" xmlns:xlink="http://www.w3.org/1999/xlink">
<defs>
<style type="text/css"><![CDATA[
.g0_17{
fill: #FFF;
}
.g1_17{
fill: none;
stroke: #000;
stroke-width: 0.183;
stroke-miterlimit: 10;
}
.g2_17{
fill: #99F;
}
.g3_17{
fill: none;
stroke: #000;
stroke-width: 1.175;
stroke-linecap: round;
stroke-linejoin: round;
}
.g4_17{
fill: #993365;
}
.g5_17{
fill: #FFC;
}
.g6_17{
fill: #CFF;
}
.g7_17{
fill: #650065;
}
.g8_17{
fill: #FF8080;
}
.g9_17{
fill: none;
stroke: #000;
stroke-width: 0.183;
stroke-linecap: round;
stroke-linejoin: round;
}
.ga_17{
fill: #000;
}
]]></style>
</defs>
<path fill-rule="evenodd" d="M143.4,459.8H799.1V179.1H143.4V459.8Z" class="g0_17"/>
<path d="M143.4,459.8H799.1V179.1H143.4V459.8Z" class="g1_17"/>
<path fill-rule="evenodd" d="M441.9,247.1h11.7l2.4,1.3h5.8l1.1,1.1h3.7l2.2,1.3h1.3l1.1,1.1h2.4l1.3,1.1h2.2l1.2,1.3h2.4l1.1,1.1h2.4l1.1,1.2l1.3,1.1h2.2l1.3,1.1l1.1,1.3l2.4,1.1h1.1l1.2,1.3l2.4,1.1l1.1,1.1l1.3,1.3l1.1,1.1l2.4,1.3l1.1,1.1h1.3l1.1,1.3l1.1,1.1l2.4,1.1l1.2,2.3l1.1,1.3l1.1,1.1l1.3,1.1l1.1,1.3l1.3,1.1l1.1,1.3l1.3,1.1l1.1,2.4l1.1,1.1l1.3,1.3l1.1,1.1l1.3,1.1l1.1,2.3l1.1,1.3v1.1l1.2,2.4l1.1,1.1l1.3,1.3v2.4l1.1,1.1l1.1,1.1l1.3,2.4v1.2l1.1,2.2v1.3l1.3,2.4v1.1l1.1,1.1v2.4l1.3,1.3v2.4l1.1,1.1V327l1.1,2.4v3.5l1.3,1.3v8.1l1.1,1.2v14.2l-1.1,2.3v7l-1.3,2.4L492.5,360v-2.3l1.1,-1.3V345.9l-1.1,-1.3v-5.8l-1.3,-1.1v-3.5h-1.1v-2.4l-1.3,-1.3v-2.2h-1.1v-2.4h-1.1v-1.2l-1.3,-1.1v-1.1l-1.1,-1.3l-1.3,-1.1v-1.3h-1.1v-1.1h-1.1v-1.3l-1.3,-1.1l-1.1,-1.1l-1.2,-1.3L476,311.8l-1.1,-1.3h-1.3v-1.1h-1.1v-1.1h-1.3l-1.1,-1.2h-1.3L467.7,306l-1.1,-1.3h-1.3l-1.1,-1.1h-1.3l-1.1,-1.1h-1.1l-1.2,-1.3h-2.4L456,300.1h-4.8l-1.1,-1.3h-8.2V247.1Z" class="g2_17"/>
<path d="M441.9,247.1h11.7l2.4,1.3h5.8l1.1,1.1h3.7l2.2,1.3h1.3l1.1,1.1h2.4l1.3,1.1h2.2l1.2,1.3h2.4l1.1,1.1h2.4l1.1,1.2l1.3,1.1h2.2l1.3,1.1l1.1,1.3l2.4,1.1h1.1l1.2,1.3l2.4,1.1l1.1,1.1l1.3,1.3l1.1,1.1l2.4,1.3l1.1,1.1h1.3l1.1,1.3l1.1,1.1l2.4,1.1l1.2,2.3l1.1,1.3l1.1,1.1l1.3,1.1l1.1,1.3l1.3,1.1l1.1,1.3l1.3,1.1l1.1,2.4l1.1,1.1l1.3,1.3l1.1,1.1l1.2,1.1l1.2,2.3l1.1,1.3v1.1l1.2,2.4l1.1,1.1l1.3,1.3v2.4l1.1,1.1l1.1,1.1l1.3,2.4v1.2l1.1,2.2v1.3l1.3,2.4v1.1l1.1,1.1v2.4l1.3,1.3v2.4l1.1,1.1V327l1.1,2.4v3.5l1.2,1.3v8.1l1.1,1.2v14.2l-1.1,2.3v7l-1.2,2.4L492.5,360v-2.3l1.1,-1.3V345.9l-1.1,-1.3v-5.8l-1.3,-1.1v-3.5h-1.1v-2.4l-1.3,-1.3v-2.2h-1.1v-2.4h-1.1v-1.2l-1.3,-1.1v-1.1l-1.1,-1.3l-1.3,-1.1v-1.3h-1.1v-1.1h-1.1v-1.3l-1.3,-1.1l-1.1,-1.1l-1.2,-1.3L476,311.8l-1.1,-1.3h-1.3v-1.1h-1.1v-1.1h-1.3l-1.1,-1.2h-1.3L467.7,306l-1.1,-1.3h-1.3l-1.1,-1.1h-1.3l-1.1,-1.1h-1.1l-1.2,-1.3h-2.4L456,300.1h-4.8l-1.1,-1.3h-8.2V247.1Z" class="g3_17"/>
<path fill-rule="evenodd" d="M542.9,369.4v3.5l-1.1,1.2v3.5l-1.1,2.4v1.1l-1.3,2.4v1.1l-1.1,2.4v1.1l-1.3,1.3v2.3l-1.1,1.1v2.4l-1.3,1.1l-1.1,1.3l-1.1,2.4v1.1l-1.3,2.4l-1.1,1.1l-1.2,1.3V407l-1.1,2.3l-1.1,1.1l-1.3,1.3l-1.1,2.2l-1.3,1.3l-1.1,1.1l-1.1,1.3l-1.3,1.1l-1.1,1.3l-1.3,2.2l-1.1,1.3l-1.3,1.1l-1.1,1.2l-1.1,1.1l-1.2,1.1l-2.4,1.3l-1.1,1.1l-1.1,1.3l-1.3,1.1l-1.1,1.1l-2.4,1.3l-1.1,1.1l-1.3,1.3h-1.1l-2.4,1.1l-1.2,1.1l-1.1,1.3l-2.4,1.1h-1.1l-1.3,1.2l-2.2,1.1h-1.3l-1.1,1.3l-2.4,1.1h-1.1l-2.4,1.1h-1.2l-2.2,1.3L458.4,400h2.3l1.1,-1.3h1.1l1.3,-1.1h1.1l1.3,-1.3h1.1v-1.1h2.4v-1.3h1.1l1.3,-1.1l1.1,-1.1l1.3,-1.2H476v-1.1h1.1v-1.3h1.2V387h1.1v-1.1l1.3,-1.3l1.1,-1.1l1.1,-1.3v-1.1h1.3V380l1.1,-1.3v-1.1h1.3v-1.3l1.1,-1.1v-1.1l1.1,-1.2v-1.1l1.3,-1.3v-2.4l1.1,-1.1v-3.5l1.3,-1.3V360l50.4,9.4Z" class="g4_17"/>
<path d="M542.9,369.4v3.5l-1.1,1.3v3.4l-1.1,2.4v1.1l-1.3,2.4v1.1l-1.1,2.4v1.1l-1.3,1.3v2.3l-1.1,1.1v2.4l-1.3,1.1l-1.1,1.3l-1.1,2.4v1.1l-1.3,2.4l-1.1,1.1l-1.2,1.3V407l-1.1,2.3l-1.2,1.2l-1.2,1.2l-1.1,2.2l-1.3,1.3l-1.1,1.1l-1.1,1.3l-1.3,1.1l-1.1,1.3l-1.3,2.2l-1.1,1.3l-1.3,1.1l-1.1,1.2l-1.1,1.1l-1.2,1.1l-2.4,1.3l-1.1,1.1l-1.1,1.3l-1.3,1.1l-1.1,1.1l-2.4,1.3l-1.1,1.1l-1.3,1.3h-1.1l-2.4,1.1l-1.2,1.1l-1.1,1.3l-2.4,1.1h-1.1l-1.3,1.2l-2.2,1.1h-1.3l-1.1,1.3l-2.4,1.1h-1.1l-2.4,1.1h-1.2l-2.2,1.3L458.4,400h2.3l1.1,-1.3h1.1l1.3,-1.1h1.1l1.3,-1.3h1.1v-1.1h2.4V394h1.1l1.3,-1.2l1.1,-1.1l1.3,-1.2H476v-1.1h1.1v-1.3h1.2V387h1.1v-1.1l1.3,-1.3l1.1,-1.1l1.1,-1.3v-1.1h1.3V380l1.1,-1.3v-1.1h1.3v-1.2l1.1,-1.2v-1l1.1,-1.3v-1.1l1.3,-1.3v-2.4l1.1,-1.1v-3.5l1.3,-1.3V360l50.4,9.4Z" class="g3_17"/>
<path fill-rule="evenodd" d="M474.9,449.3h-1.3l-2.4,1.1h-1.1l-1.3,1.3h-3.5l-2.4,1.1h-3.4l-1.1,1.1H456l-7.2,-51.7h4.8v-1.1h3.5l1.3,-1.1l16.5,49.3Z" class="g5_17"/>
<path d="M474.9,449.3h-1.3l-2.4,1.1h-1.1l-1.3,1.3h-3.5l-2.4,1.1h-3.4l-1.1,1.1H456l-7.2,-51.7h4.8v-1.1h3.5l1.3,-1.1l16.5,49.3Z" class="g3_17"/>
<path fill-rule="evenodd" d="M456,453.9h-5.9l-1.3,1.3H434.9l-2.4,-1.3h-7.1L423,452.8h-3.5l-1.1,-1.1h-3.5l-2.4,-1.3h-1.3l-1.1,-1.1h-2.3L406.7,448h-2.4L403,446.9h-2.2l-1.3,-1.1l-1.1,-1.3H396l-1.1,-1.1l-2.4,-1.2h-1.2l-1.1,-1.1l-2.4,-1.3l-1.1,-1.1l-1.3,-1.1h-1.1l-2.4,-1.3l-1.1,-1.1l-1.3,-1.3l-1.1,-1.1L376,431.7l-1.1,-1.3l-1.2,-1.1L372.6,428l-1.3,-1.1l-1.1,-1.1l-1.1,-1.2l-2.4,-1.1l-1.3,-1.3L364.3,420L363,418.7l-1.1,-1.1l-1.1,-1.3l-1.3,-1.1l-1.1,-1.3v-2.2l-1.2,-1.3l-1.1,-1.1L355,407l-1.3,-1.1l-1.1,-1.3v-1.1l-1.3,-2.4L350.2,400l-1.1,-2.4v-1.3l-1.3,-1.1l-1.1,-2.4v-1.1l-1.3,-2.3v-1.3L344.3,387v-2.4l-1.2,-1.1v-2.4L341.9,380v-2.4l-1,-1.3v-3.4l-1.3,-2.4v-4.6l-1.1,-2.4V337.7l1.1,-1.3v-5.9l1.3,-1.1v-3.5l1,-2.3v-1.1l1.2,-2.4v-1.3l1.2,-2.4v-1.1l1.1,-1.1v-2.4l1.3,-1.3v-2.2l1.1,-1.2l1.3,-2.4v-1.1l1.1,-1.1l1.1,-2.4l1.3,-1.3v-1.1l1.1,-2.4l1.3,-1.1l1.1,-1.3l1.1,-2.3l1.2,-1.1v-1.1l1.1,-1.3l1.3,-1.1l1.1,-2.4l1.1,-1.1l1.3,-1.3l1.1,-1.1l1.3,-1.3l2.4,-1.1l1.1,-1.1l1.1,-1.3l1.3,-2.3l1.1,-1.1l1.2,-1.1l1.1,-1.3l32.9,41h-1.1v1.3h-1.1v1.1h-1.3v1.3h-1.1v1.1H403v1.1l-1.1,1.3l-1.1,1.1l-1.3,1.3v1.1h-1.1v1.3l-1.3,1.1v1.1l-1.1,1.2V327l-1.1,1.3v1.1l-1.3,1.1v1.3l-1.1,1.1v2.4l-1.2,1.1v4.8l-1.1,1.1V360l1.1,1.1v4.8h1.2v2.2l1.1,1.3v2.4h1.3v2.3H396v2.2l1.1,1.3v1.1h1.3V380l1.1,1.1l1.3,1.1v1.3h1.1v1.1H403v1.3l1.3,1.1l1.1,1.1l1.3,1.3l1.1,1.1l1.1,1.2h1.2v1.1h1.1l1.3,1.1l1.1,1.3h1.3l1.1,1.1l1.1,1.3h1.3l1.1,1.1h2.4V400h2.4l1.1,1.1h3.4l1.3,1.1h4.8l1.1,1.3h10.6l1.1,-1.3h1.1l7.2,51.7Z" class="g6_17"/>
<path d="M456,453.9h-5.9l-1.3,1.3H434.9l-2.4,-1.3h-7.1L423,452.8h-3.5l-1.1,-1.1h-3.5l-2.4,-1.3h-1.3l-1.1,-1.1h-2.3L406.7,448h-2.4L403,446.9h-2.2l-1.3,-1.1l-1.1,-1.3H396l-1.1,-1.1l-2.4,-1.2h-1.2l-1.1,-1.1l-2.4,-1.3l-1.1,-1.1l-1.3,-1.1h-1.1l-2.4,-1.3l-1.1,-1.1l-1.3,-1.3l-1.1,-1.1L376,431.7l-1.1,-1.3l-1.2,-1.1L372.6,428l-1.3,-1.1l-1.1,-1.1l-1.1,-1.2l-2.4,-1.1l-1.3,-1.3L364.3,420L363,418.7l-1.1,-1.1l-1.1,-1.3l-1.3,-1.1l-1.1,-1.3v-2.2l-1.2,-1.2l-1.1,-1.2L355,407l-1.3,-1.1l-1.1,-1.3v-1.1l-1.3,-2.4L350.2,400l-1.1,-2.4v-1.3l-1.3,-1.1l-1.1,-2.4v-1.1l-1.3,-2.3v-1.3L344.3,387v-2.4L343,383.5v-2.4L341.9,380v-2.4l-1,-1.2v-3.5l-1.3,-2.4v-4.6l-1.1,-2.4V337.7l1.1,-1.3v-5.9l1.3,-1.1v-3.5l1,-2.3v-1.1l1.1,-2.4v-1.3l1.3,-2.4v-1.1l1.1,-1.1v-2.4l1.3,-1.3v-2.2l1.1,-1.2l1.3,-2.4v-1.1l1.1,-1.1l1.1,-2.4l1.3,-1.3v-1.1l1.1,-2.4l1.3,-1.1l1.1,-1.3l1.1,-2.3l1.2,-1.1v-1.1l1.1,-1.3l1.3,-1.1l1.1,-2.4l1.1,-1.1l1.3,-1.3l1.1,-1.1l1.3,-1.3l2.4,-1.1l1.1,-1.1l1.1,-1.3l1.3,-2.3l1.1,-1.1l1.2,-1.1l1.1,-1.3l32.9,41h-1.1v1.3h-1.1v1.1h-1.3v1.3h-1.1v1.1H403v1.1l-1.1,1.3l-1.1,1.1l-1.3,1.3v1.1h-1.1v1.3l-1.3,1.1v1.1l-1.1,1.2V327l-1.1,1.3v1.1l-1.3,1.1v1.3l-1.1,1.1v2.4l-1.2,1.1v4.8l-1.1,1.1V360l1.1,1.1v4.8h1.2v2.2l1.1,1.3v2.4h1.3v2.4H396v2.2l1.1,1.2v1.1h1.3V380l1.1,1.1l1.3,1.1v1.3h1.1v1.1H403v1.3l1.3,1.1l1.1,1.1l1.3,1.3l1.1,1.1l1.1,1.2h1.2v1.1h1.1l1.3,1.2l1.1,1.2h1.3l1.1,1.1l1.1,1.3h1.3l1.1,1.1h2.4V400h2.4l1.1,1.1h3.4l1.3,1.1h4.8l1.1,1.3h10.6l1.1,-1.3h1.1l7.2,51.7Z" class="g3_17"/>
<path fill-rule="evenodd" d="M376,269.5h2.4l1.1,-1.1l1.3,-1.3l1.1,-1.1l2.4,-1.3l1.1,-1.1l1.3,-1.1l1.1,-1.3h2.4l1.1,-1.1l1.2,-1.3l24.6,45.9H416V306h-1.1l-1.3,1.1h-1.1v1.2h-1.3l-1.1,1.1l-1.2,1.1L376,269.5Z" class="g7_17"/>
<path d="M376,269.5h2.4l1.1,-1.1l1.3,-1.3l1.1,-1.1l2.4,-1.3l1.1,-1.1l1.3,-1.1l1.1,-1.3h2.4l1.1,-1.1l1.2,-1.3l24.6,45.9H416V306h-1.1l-1.3,1.1h-1.1v1.2h-1.3l-1.1,1.1l-1.2,1.1L376,269.5Z" class="g3_17"/>
<path fill-rule="evenodd" d="M392.5,258.8l2.4,-1.1H396l2.4,-1.1l1.1,-1.2h1.3l2.2,-1.1h1.3l2.4,-1.3h1.1l2.3,-1.1h1.1l1.3,-1.1h2.4l1.1,-1.3h3.5l2.4,-1.1h5.8l1.1,-1.3h13.1v51.7h-9.4l-1.3,1.3h-3.5l-1.1,1.1h-2.3l-1.3,1.3h-1.1l-1.1,1.1h-2.4v1.1h-1.3L392.5,258.8Z" class="g8_17"/>
<path d="M392.5,258.8l2.4,-1.1H396l2.4,-1.1l1.1,-1.2h1.3l2.2,-1.1h1.3l2.4,-1.3h1.1l2.3,-1.1h1.1l1.3,-1.1h2.4l1.1,-1.3h3.5l2.4,-1.1h5.8l1.1,-1.3h13.1v51.7h-9.4l-1.3,1.3h-3.5l-1.1,1.1h-2.3l-1.3,1.3h-1.1l-1.1,1.1h-2.4v1.1h-1.3L392.5,258.8Z" class="g3_17"/>
<path fill-rule="evenodd" d="M602.8,405.9H794.4v-134H602.8v134Z" class="g0_17"/>
<path d="M602.8,405.9H794.4v-134H602.8v134Z" class="g9_17"/>
<path fill-rule="evenodd" d="M607.6,287.1h6.9v-7h-6.9v7Z" class="g2_17"/>
<path d="M607.6,280.1h6.9v7h-6.9Z" class="g3_17"/>
<path fill-rule="evenodd" d="M607.6,309.4h6.9v-6.9h-6.9v6.9Z" class="g4_17"/>
<path d="M607.6,302.5h6.9v6.9h-6.9Z" class="g3_17"/>
<path fill-rule="evenodd" d="M607.6,331.8h6.9v-7.1h-6.9v7.1Z" class="g5_17"/>
<path d="M607.6,324.7h6.9v7.1h-6.9Z" class="g3_17"/>
<path fill-rule="evenodd" d="M607.6,354.2h6.9V347h-6.9v7.2Z" class="g6_17"/>
<path d="M607.6,347h6.9v7.2h-6.9Z" class="g3_17"/>
<path fill-rule="evenodd" d="M607.6,376.3h6.9v-6.9h-6.9v6.9Z" class="g7_17"/>
<path d="M607.6,369.4h6.9v7h-6.9Z" class="g3_17"/>
<path fill-rule="evenodd" d="M607.6,398.7h6.9v-6.9h-6.9v6.9Z" class="g8_17"/>
<path d="M607.6,391.7h6.9v7h-6.9Z" class="g3_17"/>
<path d="M143.4,459.8H799.1V179.1H143.4V459.8Z" class="g9_17"/>
<path d="M36.7,41.2h4.6V36.7H36.7v4.5Z" class="ga_17"/>
<path d="M36.7,41.2h4.6V36.7H36.7v4.5Z" class="ga_17"/>
<path d="M41.3,41.2H893.7V36.7H41.3v4.5Z" class="ga_17"/>
<path d="M893.7,41.2h4.6V36.7h-4.6v4.5Z" class="ga_17"/>
<path d="M893.7,41.2h4.6V36.7h-4.6v4.5Z" class="ga_17"/>
<path d="M36.7,1168.7h4.6V41.2H36.7V1168.7Z" class="ga_17"/>
<path d="M893.7,1168.7h4.6V41.2h-4.6V1168.7Z" class="ga_17"/>
<path d="M36.7,1173.2h4.6v-4.5H36.7v4.5Z" class="ga_17"/>
<path d="M36.7,1173.2h4.6v-4.5H36.7v4.5Z" class="ga_17"/>
<path d="M41.3,1173.2H893.7v-4.5H41.3v4.5Z" class="ga_17"/>
<path d="M893.7,1173.2h4.6v-4.5h-4.6v4.5Z" class="ga_17"/>
<path d="M893.7,1173.2h4.6v-4.5h-4.6v4.5Z" class="ga_17"/>
</svg>