<?xml version="1.0" encoding="UTF-8" standalone="no"?>
<!DOCTYPE svg PUBLIC "-//W3C//DTD SVG 1.1//EN"
"http://www.w3.org/Graphics/SVG/1.1/DTD/svg11.dtd">
<svg viewBox="0 0 935 1210" version="1.1" xmlns="http://www.w3.org/2000/svg" xmlns:xlink="http://www.w3.org/1999/xlink">
<defs>
<style type="text/css"><![CDATA[
.g0_18{
fill: #FFF;
}
.g1_18{
fill: none;
stroke: #000;
stroke-width: 1.145;
stroke-linecap: round;
stroke-linejoin: round;
}
.g2_18{
fill: #99F;
}
.g3_18{
fill: #993365;
}
.g4_18{
fill: none;
stroke: #000;
stroke-width: 0.183;
stroke-linecap: round;
stroke-linejoin: round;
}
.g5_18{
fill: #000;
}
]]></style>
</defs>
<path fill-rule="evenodd" d="M143.2,514.4H774.4V178.9H143.2V514.4Z" class="g0_18"/>
<path d="M143.2,514.4H774.4V178.9H143.2V514.4Z" class="g1_18"/>
<path fill-rule="evenodd" d="M412.3,256.8H425l1.1,1.1h7l1.1,1.1h4.5l2.4,1.1h1.1l2.2,1.3h2.4l1.1,1.1h2.4l2.2,1.1h1.1l2.4,1.1l2.2,1.3h1.3l2.2,1.1l1.1,1.1l2.3,1.1l1.1,1.3h2.4l2.2,1.1l1.1,1.1l2.4,1.1l1.1,1.3l1.1,1.1l2.4,1.1l1.1,1.1l2.4,1.2l1.1,1.1l1.1,1.1L449,327.8l-1.1,-1.1l-1.1,-1.3h-1.1l-1.3,-1.1l-1.1,-1.1h-1.1v-1.1h-2.4l-1.1,-1.3h-1.1v-1.1h-2.3l-1.1,-1.1h-1.1L432,317.5h-3.5l-1.1,-1.3h-4.6l-1.3,-1.1h-9.2V256.8Z" class="g2_18"/>
<path d="M412.3,256.8H425l1.1,1.1h7l1.1,1.1h4.5l2.4,1.1h1.1l2.2,1.3h2.4l1.1,1.1h2.4l2.2,1.1h1.1l2.4,1.1l2.2,1.3h1.3l2.2,1.1l1.1,1.1l2.3,1.1l1.1,1.3h2.4l2.2,1.1l1.1,1.1l2.4,1.1l1.1,1.3l1.1,1.1l2.4,1.1l1.1,1.1l2.4,1.2l1.1,1.1l1.1,1.1L449,327.8l-1.1,-1.1l-1.1,-1.3h-1.1l-1.3,-1.1l-1.1,-1.1h-1.1v-1.1h-2.4l-1.1,-1.3h-1.1v-1.1h-2.3l-1.1,-1.1h-1.1L432,317.5h-3.5l-1.1,-1.3h-4.6l-1.3,-1.1h-9.2V256.8Z" class="g1_18"/>
<path fill-rule="evenodd" d="M484.6,281.9L487,283l2.2,3.5l2.3,1.1l1.1,1.3l1.1,1.1l3.5,3.5l1.1,1.1l1.1,1.1l2.4,3.5l1.1,2.2l2.4,1.3l1.1,1.1l2.2,3.4l1.3,2.2v1.1l2.2,3.5l1.1,2.2l1.1,1.3l1.3,2.2l1.1,3.5l1.1,2.2l1.1,1.3l1.2,4.6l1.1,1.1v2.2l1.1,2.3l1.1,3.5v2.2l1.3,1.1l1.1,4.6v3.5l1.1,2.4v7.9l1.1,3.4v14.9l-1.1,2.4v8l-1.1,3.3v2.4l-1.1,1.1V400l-1.3,4.6l-1.1,1.1v2.2l-1.1,3.5l-1.1,2.3l-1.2,2.2v1.2l-2.2,3.4v2.4l-1.1,2.2l-2.4,3.5l-1.1,1.1l-1.1,2.4l-1.1,1.1l-1.3,3.5l-1.1,2.2l-1.1,1.1l-3.5,3.4l-1.1,1.1l-1.1,2.4l-1.3,1.1l-2.2,3.5l-1.1,1.1l-2.4,1.1l-2.2,3.5l-2.3,1.1l-1.1,1.1l-1.1,1.3l-3.5,2.2l-1.1,1.1l-2.4,1.3l-3.5,2.2l-1.1,1.1l-1.1,1.2l-2.4,1.1l-3.3,2.2l-2.4,1.3l-1.1,1.1l-3.4,1.1l-2.2,1.1l-1.3,1.3H456l-3.5,2.2h-2.2l-2.4,1.1l-3.5,1.3h-2.2l-1.1,1.1h-2.4l-4.5,1.1h-1.1l-2.4,1.1h-7.9l-2.4,1.3H404.5l-2.4,-1.3h-6.8l-4.6,-1.1h-2.4l-1.1,-1.1h-2.4l-3.3,-1.1l-2.3,-1.3H377l-3.5,-1.1l-2.4,-1.1L370,479h-2.2l-3.5,-2.4h-2.4l-1.1,-1.1l-2.2,-1.1L355.2,472l-2.4,-1.1l-1.1,-1.1l-3.5,-2.3l-1.1,-1.1l-2.2,-1.1L343.6,464l-3.3,-2.2L339,460.7l-2.2,-1.3l-2.4,-2.2l-2.2,-2.4l-1.1,-1.1l-1.2,-1.1l-2.2,-3.5L325.3,448l-1.1,-1.1L322,443.4l-1.3,-1.1L319.6,440l-1.1,-1.1l-2.4,-3.5L315,433.2l-1.1,-1.1l-2.4,-3.5v-2.4l-1.1,-1.1l-1.1,-2.2l-2.4,-3.5v-2.3l-1.1,-1.2l-1.1,-4.5l-1.1,-1.1v-2.4l-1.2,-2.2l-1.1,-3.5V400l-1.1,-2.4v-3.5l-1.1,-2.2v-3.5l-1.3,-4.5V357.5l1.3,-1.1v-4.6l1.1,-3.5v-2.2l1.1,-2.4l1.1,-3.3V338l1.2,-1.1v-2.3l1.1,-3.3l1.1,-2.4l1.1,-2.2l1.3,-3.5l1.1,-2.4l1.1,-1.1l1.1,-2.2l1.3,-3.5l1.1,-1.1l1.1,-2.4l2.4,-3.3l1.1,-1.2l1.1,-2.2l1.1,-1.1l2.4,-3.5l1.1,-1.1l1.1,-2.4l2.4,-1.1l2.2,-2.4l1.2,-2.2l1.1,-1.1l3.5,-2.4l1.1,-1.1L339,283l1.3,-1.1l3.3,-2.2l1.3,-1.2l2.2,-1.1l3.5,-2.2l1.1,-1.3l1.1,-1.1l2.4,-1.1l3.4,-1.1l2.2,-1.3l1.1,-1.1l3.5,-2.2h2.4l2.2,-1.3l1.1,-1.1l4.6,-1.1H377l2.2,-1.1l3.4,-1.3h2.2l2.4,-1.1h1.1l4.6,-1.1h3.5l4.6,-1.1h11.3v58.3h-9.1l-1.1,1.1h-4.6l-2.2,1.3H394l-2.2,1.1h-1.1v1.1h-1.3l-2.2,1.1h-1.1v1.3h-2.4l-1.1,1.1h-1.1v1.1l-2.3,1.1l-1.1,1.3l-2.4,1.1l-1.1,1.1l-1.1,1.1l-1.1,1.3l-1.3,1.1l-1.1,1.1l-1.1,1.1v1.2h-1.1l-1.3,2.2h-1.1v1.1l-1.1,1.3l-1.1,1.1v2.2l-1.3,1.3l-1.1,1.1v1.1l-1.1,1.1v1.3l-1.1,1.1v2.2l-1.2,1.3v2.2l-1.1,2.4v3.3l-1.1,1.2v18.4h1.1v5.6l1.1,1.1v1.2l1.2,1.2V393l1.1,1.1v1.3l1.1,2.2l1.1,1.1V400l1.3,2.2l1.1,1.1l1.1,1.3v1.1l1.1,1.1v1.1l2.4,1.3v1.1H370l1.1,1.1l1.3,1.1v1.2h1.1l1.1,1.1l1.1,1.1v1.2l2.4,1.2h1.1v1.1h1.1l1.2,1.1l1.1,1.1h1.1l2.4,1.3l1.1,1.1h1.1l2.4,1.1h1.1l2.2,1.1h1.3v1.3h4.6l1.1,1.1h4.6l2.2,1.1h10.4l1.1,-1.1h4.6l2.2,-1.1h2.4l2.2,-1.3h2.4l1.1,-1.1h1.1l1.2,-1.1h1.1l1.1,-1.1h1.1l1.3,-1.3h1.1l1.1,-1.1h1.1v-1.1l2.4,-1.1h1.1v-1.2l2.4,-1.2v-1.1h1.1l1.1,-1.1l1.1,-1.2l1.3,-1.1l1.1,-1.1l1.1,-1.1v-1.3h1.1l1.3,-2.2l1.1,-1.1l1.1,-2.4h1.1V400l1.2,-2.4h1.1v-1.1l1.1,-2.4V393l1.1,-1.1v-2.3l1.3,-1.2V385l1.1,-1.1v-4.6l1.1,-2.2V366.6h-1.1v-6.7l-1.1,-1.1v-2.4l-1.3,-2.2v-1.3l-1.1,-1.1v-2.2l-1.1,-1.3L464,346.1V345h-1.2v-1.3l-1.1,-2.2l-1.1,-1.1L459.5,338l-1.3,-1.1l-1.1,-1.1L456,334.6v-1.1h-1.1l-1.3,-2.2h-1.1V330h-1.1l-1.1,-2.2H449l35.6,-45.9Z" class="g3_18"/>
<path d="M484.6,281.9L487,283l2.2,3.5l2.3,1.1l1.1,1.3l1.1,1.1l3.5,3.5l1.1,1.1l1.1,1.1l2.4,3.5l1.1,2.2l2.4,1.3l1.1,1.1l2.2,3.4l1.3,2.2v1.1l2.2,3.5l1.1,2.2l1.1,1.3l1.3,2.2l1.1,3.5l1.1,2.2l1.1,1.3l1.2,4.6l1.1,1.1v2.2l1.1,2.3l1.1,3.5v2.2l1.3,1.1l1.1,4.6v3.5l1.1,2.4v7.9l1.1,3.4v14.9l-1.1,2.4v8l-1.1,3.3v2.4l-1.1,1.1V400l-1.3,4.6l-1.1,1.1v2.2l-1.1,3.5l-1.1,2.3l-1.2,2.2v1.2l-2.2,3.4v2.4l-1.1,2.2l-2.4,3.5l-1.1,1.1l-1.1,2.4l-1.1,1.1l-1.3,3.5l-1.1,2.2l-1.1,1.1l-3.5,3.4l-1.1,1.1l-1.1,2.4l-1.3,1.1l-2.2,3.5l-1.1,1.1l-2.4,1.1l-2.2,3.5l-2.3,1.1l-1.1,1.1l-1.1,1.3l-3.5,2.2l-1.1,1.1l-2.4,1.3l-3.5,2.2l-1.1,1.1l-1.1,1.2l-2.4,1.1l-3.3,2.2l-2.4,1.3l-1.1,1.1l-3.4,1.1l-2.2,1.1l-1.3,1.3H456l-3.5,2.2h-2.2l-2.4,1.1l-3.5,1.3h-2.2l-1.1,1.1h-2.4l-4.5,1.1h-1.1l-2.4,1.1h-7.9l-2.4,1.3H404.5l-2.4,-1.3h-6.8l-4.6,-1.1h-2.4l-1.1,-1.1h-2.4l-3.3,-1.1l-2.3,-1.3H377l-3.5,-1.1l-2.4,-1.1L370,479h-2.2l-3.5,-2.4h-2.4l-1.1,-1.1l-2.2,-1.1L355.2,472l-2.4,-1.1l-1.1,-1.1l-3.5,-2.3l-1.1,-1.1l-2.2,-1.1L343.6,464l-3.3,-2.2L339,460.7l-2.2,-1.3l-2.4,-2.2l-2.2,-2.4l-1.1,-1.1l-1.2,-1.1l-2.2,-3.5L325.3,448l-1.1,-1.1L322,443.4l-1.3,-1.1L319.6,440l-1.1,-1.1l-2.4,-3.5L315,433.2l-1.1,-1.1l-2.4,-3.5v-2.4l-1.1,-1.1l-1.1,-2.2l-2.4,-3.5v-2.3l-1.1,-1.2l-1.1,-4.5l-1.1,-1.1v-2.4l-1.2,-2.2l-1.1,-3.5V400l-1.1,-2.4v-3.5l-1.1,-2.2v-3.5l-1.3,-4.5V357.5l1.3,-1.1v-4.6l1.1,-3.5v-2.2l1.1,-2.4l1.1,-3.3V338l1.2,-1.1v-2.3l1.1,-3.3l1.1,-2.4l1.1,-2.2l1.3,-3.5l1.1,-2.4l1.1,-1.1l1.1,-2.2l1.3,-3.5l1.1,-1.1l1.1,-2.4l2.4,-3.3l1.1,-1.2l1.1,-2.2l1.1,-1.1l2.4,-3.5l1.1,-1.1l1.1,-2.4l2.4,-1.1l2.2,-2.4l1.2,-2.2l1.1,-1.1l3.5,-2.4l1.1,-1.1L339,283l1.3,-1.1l3.3,-2.2l1.3,-1.2l2.2,-1.1l3.5,-2.2l1.1,-1.3l1.1,-1.1l2.4,-1.1l3.4,-1.1l2.2,-1.3l1.1,-1.1l3.5,-2.2h2.4l2.2,-1.3l1.1,-1.1l4.6,-1.1H377l2.2,-1.1l3.4,-1.3h2.2l2.4,-1.1h1.1l4.6,-1.1h3.5l4.6,-1.1h11.3v58.3h-9.1l-1.1,1.1h-4.6l-2.2,1.3H394l-2.2,1.1h-1.1v1.1h-1.3l-2.2,1.1h-1.1v1.3h-2.4l-1.1,1.1h-1.1v1.1l-2.3,1.1l-1.1,1.3l-2.4,1.1l-1.1,1.1l-1.1,1.1l-1.1,1.3l-1.3,1.1l-1.1,1.1l-1.1,1.1v1.2h-1.1l-1.3,2.2h-1.1v1.1l-1.1,1.3l-1.1,1.1v2.2l-1.3,1.3l-1.1,1.1v1.1l-1.1,1.1v1.3l-1.1,1.1v2.2l-1.2,1.3v2.2l-1.1,2.4v3.3l-1.1,1.2v18.4h1.1v5.6l1.1,1.1v1.2l1.2,1.2V393l1.1,1.1v1.3l1.1,2.2l1.1,1.1V400l1.3,2.2l1.1,1.1l1.1,1.3v1.1l1.1,1.1v1.1l2.4,1.3v1.1H370l1.1,1.1l1.3,1.1v1.2h1.1l1.1,1.1l1.1,1.1v1.2l2.4,1.2h1.1v1.1h1.1l1.2,1.1l1.1,1.1h1.1l2.4,1.3l1.1,1.1h1.1l2.4,1.1h1.1l2.2,1.1h1.3v1.3h4.6l1.1,1.1h4.6l2.2,1.1h10.4l1.1,-1.1h4.6l2.2,-1.1h2.4l2.2,-1.3h2.4l1.1,-1.1h1.1l1.2,-1.1h1.1l1.1,-1.1h1.1l1.3,-1.3h1.1l1.1,-1.1h1.1v-1.1l2.4,-1.1h1.1v-1.2l2.4,-1.2v-1.1h1.1l1.1,-1.1l1.1,-1.2l1.3,-1.1l1.1,-1.1l1.1,-1.1v-1.3h1.1l1.3,-2.2l1.1,-1.1l1.1,-2.4h1.1V400l1.2,-2.4h1.1v-1.1l1.1,-2.4V393l1.1,-1.1v-2.3l1.3,-1.2V385l1.1,-1.1v-4.6l1.1,-2.2V366.6h-1.1v-6.7l-1.1,-1.1v-2.4l-1.3,-2.2v-1.3l-1.1,-1.1v-2.2l-1.1,-1.3L464,346.1V345h-1.2v-1.3l-1.1,-2.2l-1.1,-1.1L459.5,338l-1.3,-1.1l-1.1,-1.1L456,334.6v-1.1h-1.1l-1.3,-2.2h-1.1V330h-1.1l-1.1,-2.2H449l35.6,-45.9Z" class="g1_18"/>
<path fill-rule="evenodd" d="M670.1,401.1h99.7V355.3H670.1v45.8Z" class="g0_18"/>
<path d="M670.1,401.1h99.7V355.3H670.1v45.8Z" class="g4_18"/>
<path fill-rule="evenodd" d="M676,371.2h7.8v-7.9H676v7.9Z" class="g2_18"/>
<path d="M676,371.2h7.8v-7.9H676v7.9Z" class="g1_18"/>
<path fill-rule="evenodd" d="M676,394.1h7.8v-7.8H676v7.8Z" class="g3_18"/>
<path d="M676,394.1h7.8v-7.8H676v7.8ZM143.2,514.4H774.4V178.9H143.2V514.4Z" class="g1_18"/>
<path d="M36.7,41.2h4.6V36.7H36.7v4.5Z" class="g5_18"/>
<path d="M36.7,41.2h4.6V36.7H36.7v4.5Z" class="g5_18"/>
<path d="M41.3,41.2H893.7V36.7H41.3v4.5Z" class="g5_18"/>
<path d="M893.7,41.2h4.6V36.7h-4.6v4.5Z" class="g5_18"/>
<path d="M893.7,41.2h4.6V36.7h-4.6v4.5Z" class="g5_18"/>
<path d="M36.7,1168.7h4.6V41.2H36.7V1168.7Z" class="g5_18"/>
<path d="M893.7,1168.7h4.6V41.2h-4.6V1168.7Z" class="g5_18"/>
<path d="M36.7,1173.2h4.6v-4.5H36.7v4.5Z" class="g5_18"/>
<path d="M36.7,1173.2h4.6v-4.5H36.7v4.5Z" class="g5_18"/>
<path d="M41.3,1173.2H893.7v-4.5H41.3v4.5Z" class="g5_18"/>
<path d="M893.7,1173.2h4.6v-4.5h-4.6v4.5Z" class="g5_18"/>
<path d="M893.7,1173.2h4.6v-4.5h-4.6v4.5Z" class="g5_18"/>
</svg>