<?xml version="1.0" encoding="UTF-8" standalone="no"?>
<!DOCTYPE svg PUBLIC "-//W3C//DTD SVG 1.1//EN"
"http://www.w3.org/Graphics/SVG/1.1/DTD/svg11.dtd">
<svg viewBox="0 0 935 1210" version="1.1" xmlns="http://www.w3.org/2000/svg" xmlns:xlink="http://www.w3.org/1999/xlink">
<defs>
<style type="text/css"><![CDATA[
.g0_19{
fill: #FFF;
}
.g1_19{
fill: none;
stroke: #000;
stroke-width: 0.183;
stroke-miterlimit: 10;
}
.g2_19{
fill: #99F;
}
.g3_19{
fill: none;
stroke: #000;
stroke-width: 1.145;
stroke-linecap: round;
stroke-linejoin: round;
}
.g4_19{
fill: #993365;
}
.g5_19{
fill: none;
stroke: #000;
stroke-width: 0.183;
stroke-linecap: round;
stroke-linejoin: round;
}
.g6_19{
fill: #000;
}
]]></style>
</defs>
<path fill-rule="evenodd" d="M143.2,447.8H719.4V178.9H143.2V447.8Z" class="g0_19"/>
<path d="M143.2,447.8H719.4V178.9H143.2V447.8Z" class="g1_19"/>
<path fill-rule="evenodd" d="M407.8,232.6h13.7l1.1,1.1h5.9l2.2,1.3h1.1l2.4,1.1h3.4l2.2,1.1h1.1l2.4,1.1h1.1l2.4,1.3l1.1,1.1h2.2l1.3,1.1l2.2,1.1h1.1l2.4,1.3l1.1,1.1l2.4,1.1h1.1l1.1,1.1l2.3,1.3l1.1,1.1l2.2,1.1l1.3,1.1l1.1,1.2l2.2,1.1l1.3,1.1l1.1,1.1l1.1,1.3l2.4,1.1l1.1,1.1l1.1,1.1l1.1,1.3l1.3,1.1l2.2,1.1l1.1,2.4l1.3,1.1l1.1,1.1l1.1,1.1l1.1,2.4l1.2,1.1l1.1,1.1l1.1,1.3l1.1,2.2l1.3,1.1l1.1,2.3l1.1,1.1v1.1l1.1,2.4l1.3,1.1l1.1,2.2l1.1,1.3v2.2l1.1,1.1l1.3,2.4v1.1l1.1,2.4l1.1,1.1v2.2l1.1,1.3v2.2l1.3,1.1v2.3l1.1,1.1v4.6l1.1,1.1v3.5l1.1,2.4v7.9l1.3,1.3v14.8l-1.3,2.2v7l-1.1,2.2v3.5l-1.1,2.2v3.4l-1.1,2.4v1.1l-1.3,2.2v1.3l-1.1,2.2V378l-1.1,2.4l-1.1,1.1v2.4l-1.3,1.1l-1.1,2.2v1.2l-1.1,2.2l-1.1,1.1l-1.3,2.4l-1.1,1.1v2.2l-1.1,1.3l-1.1,1.1l-1.3,2.2l-1.1,1.3l-1.1,1.1l-1.1,2.2l-1.2,1.3l-1.1,1.1l-1.1,1.1l-1.1,2.4l-1.3,1.1l-1.1,1.1l-2.2,1.1l-1.3,1.3l-1.1,1l-1.1,2.2l-1.1,1.3l-2.4,1.1l-1.1,1.1l-1.1,1.1l-1.3,1.3l-2.2,1.1l-1.1,1.1l-1.3,1.1l-2.2,1.3h-1.1l-2.3,1.1l-1.1,1.1l-1.1,1.1l-2.4,1.3l-1.1,1.1h-2.4l-1.1,1.1l-2.2,1.1h-1.3l-2.2,1.3l-1.1,1.1h-2.4l-1.1,1.1h-2.4l-1.1,1.1h-2.2l-2.3,1.2h-3.5l-1.1,1.1h-2.2L425,427.3h3.5l1.1,-1.1h3.5l1.1,-1.3h2.2l2.3,-1.1h1.1l1.1,-1.1h2.4l1.1,-1.1l1.1,-1.3h1.3l1.1,-1.1h2.2l1.3,-1.1l1.1,-1h1.1l1.1,-1.3l1.3,-1.1l2.2,-1.1h1.1l1.3,-1.1l1.1,-1.3l1.1,-1.1l1.1,-1.1h1.2l1.1,-1.1l1.1,-1.3l1.1,-1.1l1.3,-1.1l1.1,-1.1l1.1,-1.3l1.1,-1.1l1.3,-1.1l1.1,-1.1l1.1,-1.3v-1.1l1.1,-1.1l1.3,-1.1L480,393l1.1,-2.4l1.1,-1v-1.2l1.3,-1.2l1.1,-1.1V385l1.1,-1.1l1.1,-2.4v-1.1l1.3,-1.1V378l1.1,-2.2l1.1,-1.1v-1.3l1.1,-1.1v-2.2l1.2,-1.3v-2.2l1.1,-2.3v-2.2l1.1,-2.4v-2.2l1.1,-2.4v-6.8l1.3,-2.4V333.5l-1.3,-1.1v-8.1l-1.1,-1.1v-3.5l-1.1,-1.1v-3.5L492.6,314v-3.5l-1.2,-1.1v-1.2l-1.1,-1.1v-2.2l-1.1,-1.3l-1.1,-1.1v-1.1L486.8,299v-1.1l-1.1,-1.1l-1.1,-1.1v-1.3l-1.1,-2.2l-1.3,-1.1v-1.3l-1.1,-1.1L480,287.6l-1.1,-1.1l-1.3,-1.1l-1.1,-1.3V283l-1.1,-1.1l-1.1,-1.1L473,279.6l-1.1,-1.1l-1.1,-1.1l-1.1,-1.1L468.4,275l-1.1,-1.1l-1.1,-1.1l-1.1,-1.1l-1.2,-1.3l-1.1,-1.1l-1.1,-1.1h-1.1l-1.3,-1.1l-1.1,-1.3L456,264.7h-1.3l-1.1,-1.1l-1.1,-1.1h-1.1l-1.3,-1.3l-2.2,-1.1h-1.1L445.5,259l-1.1,-1.1h-1.1l-2.4,-1.3h-1.1l-1.1,-1.1h-3.4l-1.1,-1.1h-1.1l-2.4,-1.1h-2.2l-2.4,-1.2h-5.7L419.3,251H407.8V232.6Z" class="g2_19"/>
<path d="M407.8,232.6h13.7l1.1,1.1h5.9l2.2,1.3h1.1l2.4,1.1h3.4l2.2,1.1h1.1l2.4,1.1h1.1l2.4,1.3l1.1,1.1h2.2l1.3,1.1l2.2,1.1h1.1l2.4,1.3l1.1,1.1l2.4,1.1h1.1l1.1,1.1l2.3,1.3l1.1,1.1l2.2,1.1l1.3,1.1l1.1,1.2l2.2,1.1l1.3,1.1l1.1,1.1l1.1,1.3l2.4,1.1l1.1,1.1l1.1,1.1l1.1,1.3l1.3,1.1l2.2,1.1l1.1,2.4l1.3,1.1l1.1,1.1l1.1,1.1l1.1,2.4l1.2,1.1l1.1,1.1l1.1,1.3l1.1,2.2l1.3,1.1l1.1,2.3l1.1,1.1v1.1l1.1,2.4l1.3,1.1l1.1,2.2l1.1,1.3v2.2l1.1,1.1l1.3,2.4v1.1l1.1,2.4l1.1,1.1v2.2l1.1,1.3v2.2l1.3,1.1v2.3l1.1,1.1v4.6l1.1,1.1v3.5l1.1,2.4v7.9l1.3,1.3v14.8l-1.3,2.2v7l-1.1,2.2v3.5l-1.1,2.2v3.4l-1.1,2.4v1.1l-1.3,2.2v1.3l-1.1,2.2V378l-1.1,2.4l-1.1,1.1v2.4l-1.3,1.1l-1.1,2.2v1.2l-1.1,2.2l-1.1,1.2l-1.3,2.3l-1.1,1.1v2.2l-1.1,1.3l-1.1,1.1l-1.3,2.2l-1.1,1.3l-1.1,1.1l-1.1,2.2l-1.2,1.3l-1.1,1.1l-1.1,1.1l-1.1,2.4l-1.3,1.1l-1.1,1.1l-2.2,1.1l-1.3,1.2l-1.1,1.1l-1.1,2.3l-1.1,1.2l-2.4,1.1l-1.1,1.1l-1.1,1.1l-1.3,1.3l-2.2,1.1l-1.1,1.1l-1.3,1.1l-2.2,1.3h-1.1l-2.3,1.1l-1.1,1.1l-1.1,1.1l-2.4,1.3l-1.1,1.1h-2.4l-1.1,1.1l-2.2,1.1h-1.3l-2.2,1.3l-1.1,1.1h-2.4l-1.1,1.1h-2.4l-1.1,1.1h-2.2l-2.3,1.2h-3.5l-1.1,1.1h-2.2L425,427.3h3.5l1.1,-1.1h3.5l1.1,-1.3h2.2l2.3,-1.1h1.1l1.1,-1.1h2.4l1.1,-1.1l1.1,-1.2h1.3l1.1,-1.1h2.2l1.3,-1.2l1.1,-1.1h1.1l1.1,-1.2l1.3,-1.1l2.2,-1.1h1.1l1.3,-1.1l1.1,-1.3l1.1,-1.1l1.1,-1.1h1.2l1.1,-1.1l1.1,-1.3l1.1,-1.1l1.3,-1.1l1.1,-1.1l1.1,-1.3l1.1,-1.1l1.3,-1.1l1.1,-1.1l1.1,-1.3v-1.1l1.1,-1.1l1.3,-1.1L480,393l1.1,-2.4l1.1,-1.1v-1.1l1.3,-1.2l1.1,-1.1V385l1.1,-1.1l1.1,-2.4v-1.1l1.3,-1.1V378l1.1,-2.2l1.1,-1.1v-1.3l1.1,-1.1v-2.2l1.2,-1.3v-2.2l1.1,-2.3v-2.2l1.1,-2.4v-2.2l1.1,-2.4v-6.8l1.3,-2.4V333.5l-1.3,-1.1v-8.1l-1.1,-1.1v-3.5l-1.1,-1.1v-3.5L492.6,314v-3.5l-1.2,-1.1v-1.2l-1.1,-1.1v-2.2l-1.1,-1.3l-1.1,-1.1v-1.1L486.8,299v-1.1l-1.1,-1.1l-1.1,-1.1v-1.3l-1.1,-2.2l-1.3,-1.1v-1.3l-1.1,-1.1L480,287.6l-1.1,-1.1l-1.3,-1.1l-1.1,-1.3V283l-1.1,-1.1l-1.1,-1.1L473,279.6l-1.1,-1.1l-1.1,-1.1l-1.1,-1.1L468.4,275l-1.1,-1.1l-1.1,-1.1l-1.1,-1.1l-1.2,-1.3l-1.1,-1.1l-1.1,-1.1h-1.1l-1.3,-1.1l-1.1,-1.3L456,264.7h-1.3l-1.1,-1.1l-1.1,-1.1h-1.1l-1.3,-1.3l-2.2,-1.1h-1.1L445.5,259l-1.1,-1.1h-1.1l-2.4,-1.3h-1.1l-1.1,-1.1h-3.4l-1.1,-1.1h-1.1l-2.4,-1.1h-2.2l-2.4,-1.2h-5.7L419.3,251H407.8V232.6Z" class="g3_19"/>
<path fill-rule="evenodd" d="M428.5,445.6h-2.4l-1.1,1.1h-8.1l-1.1,1.1H401l-2.4,-1.1h-6.8l-2.4,-1.1h-3.3l-2.4,-1.1h-3.4l-2.2,-1.2H377l-2.4,-1.1h-1.1l-2.4,-1.1H370L367.8,440l-1.3,-1.3h-2.2l-1.1,-1.1l-2.4,-1.1h-1.1l-2.3,-1.1l-1.1,-1.3L354.1,433l-1.3,-1.1l-1.1,-1.1h-2.2l-1.3,-1.3l-1.1,-1.1l-2.2,-1.1l-1.3,-1.1l-1.1,-1.3l-2.2,-1.1L339,422.7l-1.1,-1.1l-1.1,-1.3l-2.4,-2.2l-1.1,-1l-1.1,-1.3l-1.1,-1.1l-1.2,-1.1l-1.1,-1.1l-1.1,-2.4L326.6,409l-1.3,-1.1l-1.1,-1.3l-1.1,-2.2L322,403.3L320.7,402l-1.1,-2.2l-1.1,-1.1l-1.1,-1.3l-1.3,-2.2L315,394.1l-1.1,-2.4v-1.1l-1.1,-2.2l-1.3,-1.2V385l-1.1,-1.1l-1.1,-2.4v-1.1L308.2,378l-1.3,-1.1v-2.2l-1.1,-1.3v-2.2l-1.1,-1.1v-4.6l-1.1,-1.2v-2.2L302.4,361v-5.9l-1.1,-2.2V326.5l1.1,-1.1v-5.7l1.2,-2.4v-1.1l1.1,-2.2v-3.5l1.1,-2.3v-1.1l1.1,-2.2v-1.3l1.3,-2.2l1.1,-1.1v-2.4l1.1,-1.1l1.1,-2.4v-1.1l1.3,-2.2l1.1,-1.3v-2.2l1.1,-1.1l1.1,-2.4l1.3,-1.1l1.1,-1.1l1.1,-2.3l1.1,-1.1l1.3,-2.2l1.1,-1.3l1.1,-1.1l1.1,-1.1l1.3,-2.4l1.1,-1.1l1.1,-1.1l1.1,-1.1l1.2,-2.4l1.1,-1.1l1.1,-1.1l1.1,-1.3l2.4,-1.1l1.1,-1.1l1.1,-1.1l1.3,-1.3l2.2,-1.1l1.1,-1.1l1.3,-1.1l2.2,-1.2l1.1,-1.1l1.3,-1.1l2.2,-1.1l1.1,-1.3l1.3,-1.1h2.2l1.1,-1.1l2.3,-1.1l1.1,-1.3h2.4l1.1,-1.1l2.2,-1.1h1.3l2.2,-1.1l1.1,-1.3h2.4l1.1,-1.1H377l1.1,-1.1h4.5l1.1,-1.1h2.4l1.1,-1.3h5.7l2.4,-1.1h12.5V251H397.5l-2.2,1.1h-5.9l-1.1,1.2h-3.5l-1.1,1.1h-1.1l-2.3,1.1h-2.2l-2.4,1.1h-1.1l-1.1,1.3h-1.1L370,259l-1.1,1.1h-1.1l-1.3,1.1l-1.1,1.3h-2.2l-1.3,1.1l-1.1,1.1h-1.1l-1.1,1.1l-1.2,1.3l-1.1,1.1h-1.1l-1.1,1.1l-2.4,1.1l-1.1,1.3l-1.1,1.1l-1.3,1.1l-1.1,1.1l-1.1,1.3l-1.1,1.1v1.1l-1.3,1.1l-1.1,1.2l-1.1,1.1l-1.1,1.1l-1.3,1.1l-1.1,1.3l-1.1,1.1v1.1l-1.1,1.1l-1.3,1.1l-1.1,1.3v1.1l-1.1,2.2l-1.1,1.3l-1.2,1.1v1.1l-1.1,1.1v2.4l-1.1,1.1l-1.1,1.1v1.3l-1.3,2.2v1.1l-1.1,1.2v3.3l-1.1,1.3v1.1l-1.1,2.2v2.4l-1.3,2.2v5.9l-1.1,1.1v21.6l1.1,2.4v5.7l1.3,1.1v3.5l1.1,1.1v2.3l1.1,1.1v2.4l1.1,2.2v1.1l1.3,1.3v1.1l1.1,2.2l1.1,1.3v1.1l1.1,1.1v2.4l1.2,1.1l1.1,1.1l1.1,1.1v1.2l1.1,1.2l1.3,1l1.1,2.4v1.1l1.1,1.1l1.1,1.1l1.3,1.1l1.1,1.3l1.1,1.1l1.1,1.1l1.3,1.1v1.3l1.1,1.1l1.1,1.1l1.1,1.1l1.3,1.3l1.1,1.1h1.1l2.4,1.1l1.1,1.1l1.1,1.3l1.1,1.1h1.2l1.1,1.1l1.1,1.1l1.1,1.3h1.3l2.2,1l1.1,1.1h1.3l1.1,1.1H370l2.4,1.3l1.1,1.1h1.1l1.1,1.1h2.4l1.1,1.1h3.4l1.1,1.3h3.5l1.1,1.1h2.4l2.2,1.1h7l2.2,1.1h12.6l1.1,-1.1h8.1l1.1,-1.1l3.5,18.3Z" class="g4_19"/>
<path d="M428.5,445.6h-2.4l-1.1,1.1h-8.1l-1.1,1.1H401l-2.4,-1.1h-6.8l-2.4,-1.1h-3.3l-2.4,-1.1h-3.4l-2.2,-1.2H377l-2.4,-1.1h-1.1l-2.4,-1.1H370L367.8,440l-1.3,-1.3h-2.2l-1.1,-1.1l-2.4,-1.1h-1.1l-2.4,-1.1l-1.1,-1.3L354,433l-1.2,-1.1l-1.1,-1.1h-2.2l-1.3,-1.3l-1.1,-1.1l-2.2,-1.1l-1.3,-1.1l-1.1,-1.3l-2.2,-1.1L339,422.7l-1.1,-1.1l-1.1,-1.2l-2.4,-2.3L333.3,417l-1.1,-1.2l-1.1,-1.1l-1.2,-1.1l-1.1,-1.1l-1.1,-2.4L326.6,409l-1.3,-1.1l-1.1,-1.3l-1.1,-2.2L322,403.3L320.7,402l-1.1,-2.2l-1.1,-1.1l-1.1,-1.3l-1.3,-2.2L315,394.1l-1.1,-2.3v-1.2l-1.1,-2.2l-1.3,-1.2V385l-1.1,-1.1l-1.1,-2.4v-1.1L308.2,378l-1.3,-1.1v-2.2l-1.1,-1.3v-2.2l-1.1,-1.1v-4.6l-1.1,-1.2v-2.2L302.4,361v-5.9l-1.1,-2.2V326.5l1.1,-1.1v-5.7l1.2,-2.4v-1.1l1.1,-2.2v-3.5l1.1,-2.3v-1.1l1.1,-2.2v-1.3l1.3,-2.2l1.1,-1.1v-2.4l1.1,-1.1l1.1,-2.4v-1.1l1.3,-2.2l1.1,-1.3v-2.2l1.1,-1.1l1.1,-2.4l1.3,-1.1l1.1,-1.1l1.1,-2.3l1.1,-1.1l1.3,-2.2l1.1,-1.3l1.1,-1.1l1.1,-1.1l1.3,-2.4l1.1,-1.1l1.1,-1.1l1.1,-1.1l1.2,-2.4l1.1,-1.1l1.1,-1.1l1.1,-1.3l2.4,-1.1l1.1,-1.1l1.1,-1.1l1.3,-1.3l2.2,-1.1l1.1,-1.1l1.3,-1.1l2.2,-1.2l1.1,-1.1l1.3,-1.1l2.2,-1.1l1.1,-1.3l1.2,-1.1h2.2l1.1,-1.1l2.4,-1.1l1.1,-1.3h2.4l1.1,-1.1l2.2,-1.1h1.3l2.2,-1.1l1.1,-1.3h2.4l1.1,-1.1H377l1.1,-1.1h4.5l1.1,-1.1h2.4l1.1,-1.3h5.7l2.4,-1.1h12.5V251H397.5l-2.2,1.1h-5.9l-1.1,1.2h-3.5l-1.1,1.1h-1.1l-2.3,1.1h-2.2l-2.4,1.1h-1.1l-1.1,1.3h-1.1L370,259l-1.1,1.1h-1.1l-1.3,1.1l-1.1,1.3h-2.2l-1.3,1.1l-1.1,1.1h-1.1l-1.1,1.1l-1.3,1.3l-1.1,1.1h-1.1l-1.1,1.1l-2.3,1.1l-1.1,1.3l-1.1,1.1l-1.3,1.1l-1.1,1.1l-1.1,1.3l-1.1,1.1v1.1l-1.3,1.1l-1.1,1.2l-1.1,1.1l-1.1,1.1l-1.3,1.1l-1.1,1.3l-1.1,1.1v1.1l-1.1,1.1l-1.3,1.1l-1.1,1.3v1.1l-1.1,2.2l-1.1,1.3l-1.2,1.1v1.1l-1.1,1.1v2.4l-1.1,1.1l-1.1,1.1v1.3l-1.3,2.2v1.1l-1.1,1.2v3.3l-1.1,1.3v1.1l-1.1,2.2v2.4l-1.3,2.2v5.9l-1.1,1.1v21.6l1.1,2.4v5.7l1.3,1.1v3.5l1.1,1.1v2.3l1.1,1.1v2.4l1.1,2.2v1.1l1.3,1.3v1.1l1.1,2.2l1.1,1.3v1.1l1.1,1.1v2.4l1.2,1.1l1.1,1.1l1.1,1.1v1.2l1.1,1.1l1.3,1.1l1.1,2.4v1.1l1.1,1.1l1.1,1.1l1.3,1.1l1.1,1.3l1.1,1.1l1.1,1.1l1.3,1.1v1.3l1.1,1.1l1.1,1.1l1.1,1.1l1.3,1.3l1.1,1.1h1.1l2.3,1.1l1.1,1.1l1.1,1.3l1.1,1.1h1.3l1.1,1.1l1.1,1.1l1.1,1.2h1.3l2.2,1.1l1.1,1.2h1.3l1.1,1.1H370l2.4,1.2l1.1,1.1h1.1l1.1,1.1h2.4l1.1,1.1h3.4l1.1,1.3h3.5l1.1,1.1h2.4l2.2,1.1h7l2.2,1.1h12.6l1.1,-1.1h8.1l1.1,-1.1l3.5,18.3Z" class="g3_19"/>
<path fill-rule="evenodd" d="M590,354H714.8V310.5H590V354Z" class="g0_19"/>
<path d="M590,354H714.8V310.5H590V354Z" class="g5_19"/>
<path fill-rule="evenodd" d="M594.6,325.4h6.7v-6.8h-6.7v6.8Z" class="g2_19"/>
<path d="M594.6,318.6h6.7v6.8h-6.7Z" class="g3_19"/>
<path fill-rule="evenodd" d="M594.6,347.2h6.7v-7h-6.7v7Z" class="g4_19"/>
<path d="M594.6,340.2h6.7v7h-6.7Z" class="g3_19"/>
<path d="M143.2,447.8H719.4V178.9H143.2V447.8Z" class="g5_19"/>
<path d="M36.7,41.2h4.6V36.7H36.7v4.5Z" class="g6_19"/>
<path d="M36.7,41.2h4.6V36.7H36.7v4.5Z" class="g6_19"/>
<path d="M41.3,41.2H893.7V36.7H41.3v4.5Z" class="g6_19"/>
<path d="M893.7,41.2h4.6V36.7h-4.6v4.5Z" class="g6_19"/>
<path d="M893.7,41.2h4.6V36.7h-4.6v4.5Z" class="g6_19"/>
<path d="M36.7,1168.7h4.6V41.2H36.7V1168.7Z" class="g6_19"/>
<path d="M893.7,1168.7h4.6V41.2h-4.6V1168.7Z" class="g6_19"/>
<path d="M36.7,1173.2h4.6v-4.5H36.7v4.5Z" class="g6_19"/>
<path d="M36.7,1173.2h4.6v-4.5H36.7v4.5Z" class="g6_19"/>
<path d="M41.3,1173.2H893.7v-4.5H41.3v4.5Z" class="g6_19"/>
<path d="M893.7,1173.2h4.6v-4.5h-4.6v4.5Z" class="g6_19"/>
<path d="M893.7,1173.2h4.6v-4.5h-4.6v4.5Z" class="g6_19"/>
</svg>