<?xml version="1.0" encoding="UTF-8" standalone="no"?>
<!DOCTYPE svg PUBLIC "-//W3C//DTD SVG 1.1//EN"
"http://www.w3.org/Graphics/SVG/1.1/DTD/svg11.dtd">
<svg viewBox="0 0 935 1210" version="1.1" xmlns="http://www.w3.org/2000/svg" xmlns:xlink="http://www.w3.org/1999/xlink">
<defs>
<style type="text/css"><![CDATA[
.g0_20{
fill: #FFF;
}
.g1_20{
fill: none;
stroke: #000;
stroke-width: 0.183;
stroke-miterlimit: 10;
}
.g2_20{
fill: #99F;
}
.g3_20{
fill: none;
stroke: #000;
stroke-width: 1.145;
stroke-linecap: round;
stroke-linejoin: round;
}
.g4_20{
fill: #993365;
}
.g5_20{
fill: #FFC;
}
.g6_20{
fill: #CFF;
}
.g7_20{
fill: #650065;
}
.g8_20{
fill: #FF8080;
}
.g9_20{
fill: #0065CC;
}
.ga_20{
fill: none;
stroke: #000;
stroke-width: 0.183;
stroke-linecap: round;
stroke-linejoin: round;
}
.gb_20{
fill: #000;
}
]]></style>
</defs>
<path fill-rule="evenodd" d="M143.2,573.1H705.7V242.2H143.2V573.1Z" class="g0_20"/>
<path d="M143.2,573.1H705.7V242.2H143.2V573.1Z" class="g1_20"/>
<path fill-rule="evenodd" d="M343.6,316.6h12.7l2.3,1.1h5.7l2.2,1.1h4.6l1.3,1.3h2.2l2.4,1.1h2.2l1.1,1.1h2.3l2.2,1.1l1.3,1.3h2.2l2.4,1.1l1.1,1.1H394l2.4,1.1l1.1,1.2l2.4,1.1l1.1,1.1l2.2,1.1l2.4,1.3l1.1,1.1L409,336l1.1,1.1l2.2,1.3l1.3,1.1l2.2,1.1l1.1,1.1l1.3,1.3l2.2,1.1l1.1,1.1l2.4,1.1l1.1,2.4l1.1,1.1l1.3,1.1l2.2,2.4l1.1,1.1l1.3,1.1l1.1,2.3l2.2,1.1l1.2,1.1l1.1,2.4l1.1,1.1l1.1,2.4l1.3,1.1l1.1,2.2l1.1,1.3l1.1,2.2l1.3,1.1l1.1,2.4l1.1,1.1l1.1,2.2v2.3l1.3,1.1l1.1,2.4l1.1,1.1l1.1,2.2V391l1.3,1.1l1.1,2.4v2.2l1.1,2.4v1.1l1.1,2.2v2.4l1.3,2.2v3.4l1.1,2.4v3.3l1.1,2.4v8.1l1.1,2.2v12.6l-1.1,2.2L403.2,439v-9.1l-1.1,-1.1v-5.7L401,422v-3.5h-1.1V415l-1.3,-1.1v-2.3h-1.1v-2.3l-1.1,-1.1V407h-1.1v-1.1L394,404.8v-1.1l-1.1,-1.3l-1.1,-1.1v-1.1l-1.1,-1.1l-1.3,-1.3v-1.1h-1.1v-1.1l-1.1,-1.1h-1.1v-1.3l-1.3,-1.1h-1.1V391h-1.1l-1.1,-1.1v-1.3h-1.2l-1.1,-1.1l-1.1,-1.1H377l-1.3,-1.1l-1.1,-1.2h-1.1l-1.1,-1.2h-1.3v-1.1h-2.2l-1.1,-1.1h-1.3l-1.1,-1.2h-2.2l-1.3,-1.1h-2.2l-1.1,-1.1h-4.5l-1.3,-1.1h-9.2V316.6Z" class="g2_20"/>
<path d="M343.6,316.6h12.7l2.3,1.1h5.7l2.2,1.1h4.6l1.3,1.3h2.2l2.4,1.1h2.2l1.1,1.1h2.3l2.2,1.1l1.3,1.3h2.2l2.4,1.1l1.1,1.1H394l2.4,1.1l1.1,1.2l2.4,1.1l1.1,1.1l2.2,1.1l2.4,1.3l1.1,1.1L409,336l1.1,1.1l2.2,1.3l1.3,1.1l2.2,1.1l1.1,1.1l1.3,1.3l2.2,1.1l1.1,1.1l2.4,1.1l1.1,2.4l1.1,1.1l1.3,1.1l2.2,2.4l1.1,1.1l1.3,1.1l1.1,2.3l2.2,1.1l1.2,1.1l1.1,2.4l1.1,1.1l1.1,2.4l1.3,1.1l1.1,2.2l1.1,1.3l1.1,2.2l1.3,1.1l1.1,2.4l1.1,1.1l1.1,2.2v2.3l1.3,1.1l1.1,2.4l1.1,1.1l1.1,2.2V391l1.3,1.1l1.1,2.4v2.2l1.1,2.4v1.1l1.1,2.2v2.4l1.3,2.2v3.4l1.1,2.4v3.3l1.1,2.4v8.1l1.1,2.2v12.6l-1.1,2.2L403.2,439v-9.1l-1.1,-1.1v-5.7L401,422v-3.5h-1.1V415l-1.3,-1.1v-2.3h-1.1v-2.3l-1.1,-1.1V407h-1.1v-1.1L394,404.8v-1.1l-1.1,-1.3l-1.1,-1.1v-1.1l-1.1,-1.1l-1.3,-1.3v-1.1h-1.1v-1.1l-1.1,-1.1h-1.1v-1.3l-1.3,-1.1h-1.1V391h-1.1l-1.1,-1.1v-1.3h-1.2l-1.1,-1.1l-1.1,-1.1H377l-1.3,-1.1l-1.1,-1.2h-1.1l-1.1,-1.2h-1.3v-1.1h-2.2l-1.1,-1.1h-1.3l-1.1,-1.2h-2.2l-1.3,-1.1h-2.2l-1.1,-1.1h-4.5l-1.3,-1.1h-9.2V316.6Z" class="g3_20"/>
<path fill-rule="evenodd" d="M461.7,443.6v8.1l-1.1,2.4v4.6l-1.1,1.1v4.5l-1.3,2.2v1.3l-1.1,2.2v2.4l-1.1,2.2v1.1l-1.1,2.4l-1.3,2.2v1.3l-1.1,2.2l-1.1,2.4l-1.1,1.1l-1.3,2.2v2.3l-1.1,1.1l-1.1,2.4l-1.1,1.1l-1.3,2.2l-1.1,1.3l-1.1,2.2l-1.1,1.1l-1.3,2.4l-1.1,1.1l-1.1,2.2l-1.1,1.3l-1.2,2.2l-2.2,1.1l-1.1,1.3l-1.3,2.2l-1.1,1.1l-2.2,1.2l-1.3,2.2l-1.1,1.1l-1.1,1.3l-2.4,1.1l-1.1,1.1l-2.2,2.4l-1.3,1.1l-1.1,1.1l-2.2,1.1l-1.3,1.3l-2.2,1.1l-1.1,1.1l-2.3,1.1l-1.1,1.3l-2.4,1.1l-2.2,1.1l-1.1,1.1h-2.4l-1.1,1.3l-2.4,1.1l-2.2,1.1h-1.1l-2.4,1.1l-2.2,1.2h-1.3l-2.2,1.1l-2.3,1.1h-1.1l-2.2,1.1h-2.4l-2.2,1.3h-3.5l-2.4,1.1h-4.6l-1.1,1.1h-9.1l-1.1,1.1H337.9l-2.2,-1.1h-8l-2.4,-1.1H322l-2.4,-1.1H315l-2.2,-1.3h-1.3L309.3,549h-2.4l-1.1,-1.1l-2.2,-1.1h-2.3l-2.2,-1.2l-1.3,-1.1h-2.2l-1.1,-1.1l-2.4,-1.1L289.9,541h-1.3l-2.2,-1.1L284,538.8l-1.1,-1.1l-2.2,-1.3l-1.3,-1.1l-2.2,-1.1l-1.1,-1.1l-2.3,-1.3l-1.1,-1.1l-1.1,-1.1l-2.4,-1.1l-1.1,-2.4L265.7,525l-1.1,-1.1l-1.1,-1.3l40.1,-43.4h1.1v1.1l1.1,1.3h1.1l1.3,1.1l1.1,1.1h1.1v1.1h1.1l1.3,1.3h1.1v1.1H315l1.1,1.1h2.4v1.1h1.1l1.1,1.2h2.4l1.1,1.1h2.4l1.1,1.1h3.4l1.1,1.1h5.7l1.1,1.3h10.5l1.1,-1.3h5.7l1.1,-1.1h2.3l1.1,-1.1h3.5l1.1,-1.1h1.1l1.3,-1.2h1.1l1.1,-1.1h1.1l1.3,-1.1h1.1l1.1,-1.1h1.1v-1.3H377l1.1,-1.1h1.1v-1.1h1.1l1.2,-1.1l1.1,-1.3l1.1,-1.1l1.1,-1.1h1.3V477l1.1,-1.3h1.1v-1.1l1.1,-1.1v-1.1h1.3v-1.3l1.1,-1.1l1.1,-1.1v-1.1l1.1,-1.3l1.3,-1.1v-1.1l1.1,-1.1V462h1.1v-2.2l1.1,-1.1v-2.4h1.3v-3.5l1.1,-1.1v-3.5h1.1v-6.8l1.1,-1.1V439l58.5,4.6Z" class="g4_20"/>
<path d="M461.7,443.6v8.1l-1.1,2.4v4.6l-1.1,1.1v4.5l-1.3,2.2v1.3l-1.1,2.2v2.4l-1.1,2.2v1.1l-1.1,2.4l-1.3,2.2v1.3l-1.1,2.2l-1.1,2.4l-1.1,1.1l-1.3,2.2v2.3l-1.1,1.1l-1.1,2.4l-1.1,1.1l-1.3,2.2l-1.1,1.3l-1.1,2.2l-1.1,1.1l-1.3,2.4l-1.1,1.1l-1.1,2.2l-1.1,1.3l-1.2,2.2l-2.2,1.1l-1.1,1.3l-1.3,2.2l-1.1,1.1l-2.2,1.2l-1.3,2.2l-1.1,1.1l-1.1,1.3l-2.4,1.1l-1.1,1.1l-2.2,2.4l-1.3,1.1l-1.1,1.1l-2.2,1.1l-1.3,1.3l-2.2,1.1l-1.1,1.1l-2.3,1.1l-1.1,1.3l-2.4,1.1l-2.2,1.1l-1.1,1.1h-2.4l-1.1,1.3l-2.4,1.1l-2.2,1.1h-1.1l-2.4,1.1l-2.2,1.2h-1.3l-2.2,1.1l-2.3,1.1h-1.1l-2.2,1.1h-2.4l-2.2,1.3h-3.5l-2.4,1.1h-4.6l-1.1,1.1h-9.1l-1.1,1.1H337.9l-2.2,-1.1h-8l-2.4,-1.1H322l-2.4,-1.1H315l-2.2,-1.3h-1.3L309.3,549h-2.4l-1.1,-1.1l-2.2,-1.1h-2.3l-2.2,-1.2l-1.3,-1.1h-2.2l-1.1,-1.1l-2.4,-1.1L289.9,541h-1.3l-2.2,-1.1L284,538.8l-1.1,-1.1l-2.2,-1.3l-1.3,-1.1l-2.2,-1.1l-1.1,-1.1l-2.3,-1.3l-1.1,-1.1l-1.1,-1.1l-2.4,-1.1l-1.1,-2.4L265.7,525l-1.1,-1.1l-1.1,-1.3l40.1,-43.4h1.1v1.1l1.1,1.3h1.1l1.3,1.1l1.1,1.1h1.1v1.1h1.1l1.3,1.3h1.1v1.1H315l1.1,1.1h2.4v1.1h1.1l1.1,1.2h2.4l1.1,1.1h2.4l1.1,1.1h3.4l1.1,1.1h5.7l1.1,1.3h10.5l1.1,-1.3h5.7l1.1,-1.1h2.3l1.1,-1.1h3.5l1.1,-1.1h1.1l1.3,-1.2h1.1l1.1,-1.1h1.1l1.3,-1.1h1.1l1.1,-1.1h1.1v-1.3H377l1.1,-1.1h1.1v-1.1h1.1l1.2,-1.1l1.1,-1.3l1.1,-1.1l1.1,-1.1h1.3V477l1.1,-1.3h1.1v-1.1l1.1,-1.1v-1.1h1.3v-1.3l1.1,-1.1l1.1,-1.1v-1.1l1.1,-1.3l1.3,-1.1v-1.1l1.1,-1.1V462h1.1v-2.2l1.1,-1.1v-2.4h1.3v-3.5l1.1,-1.1v-3.5h1.1v-6.8l1.1,-1.1V439l58.5,4.6Z" class="g3_20"/>
<path fill-rule="evenodd" d="M263.5,522.6l-2.4,-1.1L260,519.3l-1.1,-1.2L257.8,517l-2.4,-2.2l-1.1,-1.3l-1.1,-1.1l-1.3,-2.2l-1.1,-1.3l-1.1,-2.2l-1.1,-1.1l-2.3,-2.4l-1.1,-1.1l-1.1,-2.2l-1.3,-1.3v-2.2l-1.1,-1.1l-1.1,-2.4l-1.1,-1.1l-1.3,-2.3l-1.1,-2.2L236,486.2v-2.4l-1.1,-2.2l-1.3,-1.3v-2.2l-1.1,-2.4l-1.1,-1.1v-2.2L230.3,470v-2.2L229,466.5v-2.2L227.9,462v-3.3l-1.1,-2.4v-6.8l-1.1,-1.3V423.1l1.1,-2.4V415l1.1,-2.2l58.5,11.4v1.1l-1.1,1.3v18.3l1.1,1.1v3.5l1.1,1.1v3.5l1.1,1.1v1.1l1.3,1.1v2.4l1.1,1.1V462l1.1,1.2v1.1l1.1,1.1v1.1h1.3v1.3l1.1,1.1V470h1.1v1.1l1.1,1.3l1.3,1.1v1.1l1.1,1.1h1.1V477l1.1,1.1l1.2,1.1l-40.1,43.4Z" class="g5_20"/>
<path d="M263.5,522.6l-2.4,-1.1L260,519.3l-1.1,-1.2L257.8,517l-2.4,-2.2l-1.1,-1.3l-1.1,-1.1l-1.3,-2.2l-1.1,-1.3l-1.1,-2.2l-1.1,-1.1l-2.3,-2.4l-1.1,-1.1l-1.1,-2.2l-1.3,-1.3v-2.2l-1.1,-1.1l-1.1,-2.4l-1.1,-1.1l-1.3,-2.3l-1.1,-2.2L236,486.2v-2.4l-1.1,-2.2l-1.3,-1.3v-2.2l-1.1,-2.4l-1.1,-1.1v-2.2L230.3,470v-2.2L229,466.5v-2.2L227.9,462v-3.3l-1.1,-2.4v-6.8l-1.1,-1.3V423.1l1.1,-2.4V415l1.1,-2.2l58.5,11.4v1.1l-1.1,1.3v18.3l1.1,1.1v3.5l1.1,1.1v3.5l1.1,1.1v1.1l1.3,1.1v2.4l1.1,1.1V462l1.1,1.2v1.1l1.1,1.1v1.1h1.3v1.3l1.1,1.1V470h1.1v1.1l1.1,1.3l1.3,1.1v1.1l1.1,1.1h1.1V477l1.1,1.1l1.2,1.1l-40.1,43.4Z" class="g3_20"/>
<path fill-rule="evenodd" d="M227.9,412.8v-4.6L229,407v-2.2l1.3,-2.4v-2.2l1.1,-1.1v-2.4l1.1,-2.2l1.1,-2.4V391l1.3,-2.4l1.1,-2.2v-1.1l1.1,-2.4l1.1,-1.1l1.3,-2.3l1.1,-2.2l1.1,-1.1l1.1,-2.4v-1.1l1.3,-2.2l1.1,-1.3l1.1,-2.2l2.3,-1.1l1.1,-2.4l1.1,-1.1l1.1,-2.4l1.3,-1.1l1.1,-1.1l1.1,-2.3l2.4,-1.1l1.1,-1.1l1.1,-2.4l1.1,-1.1l2.4,-1.1l40.1,43.4h-1.2v1.1l-1.1,1.3l-1.1,1.1l-1.1,1.1l-1.3,1.1v1.3h-1.1v1.1l-1.1,1.1v1.1h-1.1v1.3l-1.3,1.1v1.1l-1.1,1.1l-1.1,1.2v2.2l-1.1,1.2v1.2l-1.3,1.1v2.2l-1.1,1.3v2.2l-1.1,1.1v3.5L227.9,412.8Z" class="g6_20"/>
<path d="M227.9,412.8v-4.6L229,407v-2.2l1.3,-2.4v-2.2l1.1,-1.1v-2.4l1.1,-2.2l1.1,-2.4V391l1.3,-2.4l1.1,-2.2v-1.1l1.1,-2.4l1.1,-1.1l1.3,-2.3l1.1,-2.2l1.1,-1.1l1.1,-2.4v-1.1l1.3,-2.2l1.1,-1.3l1.1,-2.2l2.3,-1.1l1.1,-2.4l1.1,-1.1l1.1,-2.4l1.3,-1.1l1.1,-1.1l1.1,-2.3l2.4,-1.1l1.1,-1.1l1.1,-2.4l1.1,-1.1l2.4,-1.1l40.1,43.4h-1.2v1.1l-1.1,1.3l-1.1,1.1l-1.1,1.1l-1.3,1.1v1.3h-1.1v1.1l-1.1,1.1v1.1h-1.1v1.3l-1.3,1.1v1.1l-1.1,1.1l-1.1,1.2v2.2l-1.1,1.2v1.2l-1.3,1.1v2.2l-1.1,1.3v2.2l-1.1,1.1v3.5L227.9,412.8Z" class="g3_20"/>
<path fill-rule="evenodd" d="M263.5,348.7l1.1,-2.4l1.1,-1.1l2.4,-1.1l1.1,-1.1l2.4,-1.3l1.1,-1.1l1.1,-1.1l35.5,48h-1.1v1.1h-1.3l-1.1,1.3l-1.1,1.1l-1.1,1.1L263.5,348.7Z" class="g7_20"/>
<path d="M263.5,348.7l1.1,-2.4l1.1,-1.1l2.4,-1.1l1.1,-1.1l2.4,-1.3l1.1,-1.1l1.1,-1.1l35.5,48h-1.1v1.1h-1.3l-1.1,1.3l-1.1,1.1l-1.1,1.1L263.5,348.7Z" class="g3_20"/>
<path fill-rule="evenodd" d="M273.8,339.5l2.3,-1.1l1.1,-1.3l2.2,-1.1l1.3,-1.1l2.2,-1.1l1.1,-1.3l2.4,-1.1l2.2,-1.1l1.3,-1.1l2.2,-1.2l2.4,-1.1h1.1l2.2,-1.1l1.3,-1.1h2.2l2.3,-1.3l2.2,-1.1h1.1l18.4,56.1l-1.1,1.1h-1.1l-1.1,1.2h-2.4l-1.1,1.1h-1.1l-1.3,1.1H315l-1.1,1.2l-1.1,1.2h-1.3l-1.1,1.1l-1.1,1.1l-35.5,-48Z" class="g8_20"/>
<path d="M273.8,339.5l2.3,-1.1l1.1,-1.3l2.2,-1.1l1.3,-1.1l2.2,-1.1l1.1,-1.3l2.4,-1.1l2.2,-1.1l1.3,-1.1l2.2,-1.2l2.4,-1.1h1.1l2.2,-1.1l1.3,-1.1h2.2l2.3,-1.3l2.2,-1.1h1.1l18.4,56.1l-1.1,1.1h-1.1l-1.1,1.2h-2.4l-1.1,1.1h-1.1l-1.3,1.1H315l-1.1,1.2l-1.1,1.2h-1.3l-1.1,1.1l-1.1,1.1l-35.5,-48Z" class="g3_20"/>
<path fill-rule="evenodd" d="M306.9,322.3l2.4,-1.1h2.2l1.3,-1.1H315l2.4,-1.3H322l1.1,-1.1h6.8l1.2,-1.1h12.5v59.6h-9.2l-1.1,1.1h-3.4l-1.1,1.1h-3.5L306.9,322.3Z" class="g9_20"/>
<path d="M306.9,322.3l2.4,-1.1h2.2l1.3,-1.1H315l2.4,-1.3H322l1.1,-1.1h6.8l1.2,-1.1h12.5v59.6h-9.2l-1.1,1.1h-3.4l-1.1,1.1h-3.5L306.9,322.3Z" class="g3_20"/>
<path fill-rule="evenodd" d="M525.8,513.5H701.1V361.3H525.8V513.5Z" class="g0_20"/>
<path d="M525.8,513.5H701.1V361.3H525.8V513.5Z" class="ga_20"/>
<path fill-rule="evenodd" d="M530.4,376.2h6.8v-7h-6.8v7Z" class="g2_20"/>
<path d="M530.4,376.2h6.8v-7h-6.8v7Z" class="g3_20"/>
<path fill-rule="evenodd" d="M530.4,397.8h6.8V391h-6.8v6.8Z" class="g4_20"/>
<path d="M530.4,397.8h6.8V391h-6.8v6.8Z" class="g3_20"/>
<path fill-rule="evenodd" d="M530.4,419.6h6.8v-6.8h-6.8v6.8Z" class="g5_20"/>
<path d="M530.4,419.6h6.8v-6.8h-6.8v6.8Z" class="g3_20"/>
<path fill-rule="evenodd" d="M530.4,441.4h6.8v-6.9h-6.8v6.9Z" class="g6_20"/>
<path d="M530.4,441.4h6.8v-6.9h-6.8v6.9Z" class="g3_20"/>
<path fill-rule="evenodd" d="M530.4,463.2h6.8v-6.9h-6.8v6.9Z" class="g7_20"/>
<path d="M530.4,463.2h6.8v-6.9h-6.8v6.9Z" class="g3_20"/>
<path fill-rule="evenodd" d="M530.4,484.9h6.8v-6.8h-6.8v6.8Z" class="g8_20"/>
<path d="M530.4,484.9h6.8v-6.8h-6.8v6.8Z" class="g3_20"/>
<path fill-rule="evenodd" d="M530.4,506.7h6.8v-6.8h-6.8v6.8Z" class="g9_20"/>
<path d="M530.4,506.7h6.8v-6.8h-6.8v6.8Z" class="g3_20"/>
<path d="M143.2,573.1H705.7V242.2H143.2V573.1Z" class="ga_20"/>
<path d="M36.7,41.2h4.6V36.7H36.7v4.5Z" class="gb_20"/>
<path d="M36.7,41.2h4.6V36.7H36.7v4.5Z" class="gb_20"/>
<path d="M41.3,41.2H893.7V36.7H41.3v4.5Z" class="gb_20"/>
<path d="M893.7,41.2h4.6V36.7h-4.6v4.5Z" class="gb_20"/>
<path d="M893.7,41.2h4.6V36.7h-4.6v4.5Z" class="gb_20"/>
<path d="M36.7,1168.7h4.6V41.2H36.7V1168.7Z" class="gb_20"/>
<path d="M893.7,1168.7h4.6V41.2h-4.6V1168.7Z" class="gb_20"/>
<path d="M36.7,1173.2h4.6v-4.5H36.7v4.5Z" class="gb_20"/>
<path d="M36.7,1173.2h4.6v-4.5H36.7v4.5Z" class="gb_20"/>
<path d="M41.3,1173.2H893.7v-4.5H41.3v4.5Z" class="gb_20"/>
<path d="M893.7,1173.2h4.6v-4.5h-4.6v4.5Z" class="gb_20"/>
<path d="M893.7,1173.2h4.6v-4.5h-4.6v4.5Z" class="gb_20"/>
</svg>