<?xml version="1.0" encoding="UTF-8" standalone="no"?>
<!DOCTYPE svg PUBLIC "-//W3C//DTD SVG 1.1//EN"
"http://www.w3.org/Graphics/SVG/1.1/DTD/svg11.dtd">
<svg viewBox="0 0 935 1210" version="1.1" xmlns="http://www.w3.org/2000/svg" xmlns:xlink="http://www.w3.org/1999/xlink">
<defs>
<style type="text/css"><![CDATA[
.g0_21{
fill: #FFF;
}
.g1_21{
fill: none;
stroke: #000;
stroke-width: 0.183;
stroke-miterlimit: 10;
}
.g2_21{
fill: #99F;
}
.g3_21{
fill: none;
stroke: #000;
stroke-width: 1.061;
stroke-linecap: round;
stroke-linejoin: round;
}
.g4_21{
fill: #993365;
}
.g5_21{
fill: #FFC;
}
.g6_21{
fill: #CFF;
}
.g7_21{
fill: #650065;
}
.g8_21{
fill: none;
stroke: #000;
stroke-width: 0.183;
stroke-linecap: round;
stroke-linejoin: round;
}
.g9_21{
fill: #000;
}
]]></style>
</defs>
<path fill-rule="evenodd" d="M142.7,648.2H790.5V262.7H142.7V648.2Z" class="g0_21"/>
<path d="M142.7,648.2H790.5V262.7H142.7V648.2Z" class="g1_21"/>
<path fill-rule="evenodd" d="M363.6,332.9h12.8l2,.9h7.5l3.2,1.1h2.2l3.1,1.1h2.2l2,1.1l3.3,1.1h2l2.2,.9l3.1,1.1h2.2l2.2,1.1l3.1,1.1l2.1,1.1l2.2,1l2.2,1.1l2,1.1l3.3,1.1l2,1.1l2.2,.9l-35,65.8l-1.1,-.9h-1.1l-1.1,-1.1h-1.1l-.9,-1.1h-1.1l-2.2,-1.1H387l-1.1,-1.1h-1.1l-1.1,-1h-4.2l-1.1,-1.1h-3.1l-2.2,-1.1h-9.5V332.9Z" class="g2_21"/>
<path d="M363.6,332.9h12.8l2,.9h7.5l3.2,1.1h2.2l3.1,1.1h2.2l2,1.1l3.3,1.1h2l2.2,.9l3.1,1.1h2.2l2.2,1.1l3.1,1.1l2.1,1.1l2.2,1l2.2,1.1l2,1.1l3.3,1.1l2,1.1l2.2,.9l-35,65.8l-1.1,-.9h-1.1l-1.1,-1.1h-1.1l-.9,-1.1h-1.1l-2.2,-1.1H387l-1.1,-1.1h-1.1l-1.1,-1h-4.2l-1.1,-1.1h-3.1l-2.2,-1.1h-9.5V332.9Z" class="g3_21"/>
<path fill-rule="evenodd" d="M432.7,349.8l2,1.1l2.2,1.1l2.2,2l2,1.1l2.2,1.1l2,2.2l2.2,.9l2.1,1.1l2.2,2.2l2.2,1.1l2,2l2.2,1.1l2,2.2l2.2,2l2.2,1.1l.9,2.2l2.2,2l2.2,1.1l.9,2.1l2.2,2.2l2,2.2l1.1,2l-56.2,47.8l-1.1,-1.1l-1,-1.1l-1.1,-1.1l-1.1,-.9v-1.1l-1.1,-1.1l-.9,-1.1h-1.1l-1.1,-1.1l-1.1,-.9l-1.1,-1.1l-.9,-1.1h-1.1l-1.1,-1.1L405,420h-1.1l-.9,-1.1l-1.1,-1.1h-1.1l-1.1,-1.1l-1.1,-1.1h-.9l35,-65.8Z" class="g4_21"/>
<path d="M432.7,349.8l2,1.1l2.2,1.1l2.2,2l2,1.1l2.2,1.1l2,2.2l2.2,.9l2.1,1.1l2.2,2.2l2.2,1.1l2,2l2.2,1.1l2,2.2l2.2,2l2.2,1.1l.9,2.2l2.2,2l2.2,1.1l.9,2.1l2.2,2.2l2,2.2l1.1,2l-56.2,47.8l-1.1,-1.1l-1,-1.1l-1.1,-1.1l-1.1,-.9v-1.1l-1.1,-1.1l-.9,-1.1h-1.1l-1.1,-1.1l-1.1,-.9l-1.1,-1.1l-.9,-1.1h-1.1l-1.1,-1.1L405,420h-1.1l-.9,-1.1l-1.1,-1.1h-1.1l-1.1,-1.1l-1.1,-1.1h-.9l35,-65.8Z" class="g3_21"/>
<path fill-rule="evenodd" d="M476.1,385.9l2.2,1.1l1.1,2.2l2.1,2l1.1,2.2l2.2,2l.9,2.2l1.1,2l2.2,2.2l1.1,2.2l.9,2.1l1.1,3.2l1.1,2.1l2.2,2.2l.9,2l1.1,2.2l1.1,3.1l1.1,2.2l1.1,2l.9,2.2v3.1l1.1,2.2l1.1,2.2l1.1,2v3.3l.9,2.1l1.1,3.1v2.2l1.1,2.2v3.1l1.1,2.2v5.3l1.1,2v8.5l1,2.2v15.9l-1,2v7.5l-1.1,3.2V506l-1.1,3.1v2.2l-1.1,3.1v2l-1.1,2.2l-.9,3.1v2.2l-1.1,2.2l-1.1,3.1l-1.1,2.2v2.1l-.9,3.1l-1.1,2.2l-1.1,2.2l-1.1,2l-1.1,2.2l-.9,3.1l-2.2,2.2l-1.1,2l-1.1,2.2l-.9,2.2l-1.1,2l-2.2,2.2l-1.1,2.1l-.9,2.2l-2.2,2l-1.1,2.2l-2.1,2.2l-1.1,2l-2.2,2.2l-1.1,2l-2,2.2l-2.2,1.1l-.9,2l-2.2,2.2l-2.2,2l-.9,1.1l-2.2,2.2l-2.2,2.1l-2,1l-2.2,2.2l-2,1.1l-2.2,2.1l-2.2,1.1l-2.1,2.2l-2.2,.9l-2,1.1l-2.2,2.2l-2,.9l-2.2,1.1l-2.2,1.1l-2,1.1l-2.2,2l-2,1.1l-3.3,1.1l-2,1.1l-2.2,1.1l-2.2,.9h-2.1l-3.1,1.1l-2.2,1.1l-2.2,1.1l-3.1,1.1h-2.2l-2,.9l-3.3,1.1h-2l-2.2,1.1h-3.1l-2.2,1.1h-5.4l-2,1h-8.6l-2,1.1H355.2l-2.3,-1.1h-7.3l-3.3,-1h-4.2L335,625.8h-2.2l-3.1,-1.1h-2.2l-2,-1.1l-3.3,-.9h-2.1l-2.2,-1.1l-3.1,-1.1l-2.2,-1.1l-2,-1.1h-2.2l-3.1,-.9l-2.2,-1.1l-2,-1.1l-2.2,-1.1L296.7,613l-3.1,-2l-2.2,-1.1l-2.1,-1.1l-2.2,-1.1l-2,-.9l-2.2,-2.2l-2.2,-1.1l-2,-.9l-2.2,-2.2l-2,-1.1l-2.2,-2.1l-2,-1.1l-2.2,-2.2l-1.1,-1l-2,-2.1l-2.2,-2.2l-2.2,-1.1l-2.1,-2l-1.1,-2.2l-2.2,-2l-2,-1.1L252.1,578l-2,-2L249,573.8l-2.2,-2l-1.1,-2.2l-2,-2.2l-1.1,-2l-1.1,-2.2l-2,-2.1l-1.1,-2.2l-1.1,-2l-2.2,-2.2l-.9,-2.2l-1.1,-2L232,548.3l-1.1,-3.1L229.8,543l-1,-2l-1.1,-2.2l-1.1,-2.2l-1.1,-3.1l69.2,-26.6l1.1,1.1v1.1l.9,2.2v.9l1.1,1.1v1.1l1.1,1.1v.9l1.1,1.1l1.1,1.1v1.1l.9,1.1l1.1,.9v1.1l1.1,1.1l1.1,1.1v1.1l1.1,.9l.9,1.1l1.1,1.1v1.1l1.1,1.1l1.1,1h.9l1.1,1.1l1.1,1.1l1.1,1.1v.9h1.1l.9,1.1l1.1,1.1l1.1,1.1h1.1l1.1,1.1l1,.9l1.1,1.1h1.1l1.1,1.1h1.1l.9,1.1l1.1,1.1h1.1l2.2,.9h.9l1.1,1.1H335l1.1,1.1h.9l1.1,1.1h2.2l2,1.1h2.2l1.1,.9h4.2l1.1,1.1h6.5l.9,1.1h10.6l1.1,-1.1h6.4l1.1,-1.1h3.1l2.2,-.9h2l1.1,-1.1h2.2l1,-1.1h2.2l1.1,-1.1h.9l1.1,-1.1h1.1l1.1,-.9h1.1l.9,-1.1l1.1,-1.1h1.1l1.1,-1.1H403l.9,-1.1L405,541l1.1,-1.1h1.1l1.1,-1.1l.9,-1.1l1.1,-1.1h1.1l1.1,-.9l1.1,-1.1l.9,-1.1l1.1,-1.1l1.1,-1l1.1,-1.1l1,-1.1l1.1,-1.1V527l1.1,-.9l1.1,-1.1l1.1,-1.1v-1.1l.9,-1.1l1.1,-.9v-1.1l1.1,-1.1l1.1,-1.1v-1.1l1.1,-.9v-1.1l.9,-1.1v-1.1l1.1,-.9v-2.2l1.1,-1.1v-1.1l1.1,-.9v-2.2l1.1,-1.1v-3.2l.9,-1.1v-3.1l1.1,-2.2v-6.4l1.1,-.9V475.2l-1.1,-1.1v-6.5l-1.1,-1.1v-4.2l-.9,-1.1v-2l-1.1,-1.1V455l-1.1,-1.1v-1.1l-1.1,-1.1v-1.1l-1.1,-.9v-1.1l-.9,-1.1v-1.1l-1.1,-1.1v-2l-1.1,-1.1l-1.1,-1.1v-1L424.1,439l-.9,-1.1v-1.1l-1.1,-1.1l-1.1,-.9h-1.1v-1.1l56.2,-47.8Z" class="g5_21"/>
<path d="M476.1,385.9l2.2,1.1l1.1,2.2l2.1,2l1.1,2.2l2.2,2l.9,2.2l1.1,2l2.2,2.2l1.1,2.2l.9,2.1l1.1,3.2l1.1,2.1l2.2,2.2l.9,2l1.1,2.2l1.1,3.1l1.1,2.2l1.1,2l.9,2.2v3.1l1.1,2.2l1.1,2.2l1.1,2v3.3l.9,2.1l1.1,3.1v2.2l1.1,2.2v3.1l1.1,2.2v5.3l1.1,2v8.5l1,2.2v15.9l-1,2v7.5l-1.1,3.2V506l-1.1,3.1v2.2l-1.1,3.1v2l-1.1,2.2l-.9,3.1v2.2l-1.1,2.2l-1.1,3.1l-1.1,2.2v2.1l-.9,3.1l-1.1,2.2l-1.1,2.2l-1.1,2l-1.1,2.2l-.9,3.1l-2.2,2.2l-1.1,2l-1.1,2.2l-.9,2.2l-1.1,2l-2.2,2.2l-1.1,2.1l-.9,2.2l-2.2,2l-1.1,2.2l-2.1,2.2l-1.1,2l-2.2,2.2l-1.1,2l-2,2.2l-2.2,1.1l-.9,2l-2.2,2.2l-2.2,2l-.9,1.1l-2.2,2.2l-2.2,2.1l-2,1l-2.2,2.2l-2,1.1l-2.2,2.1l-2.2,1.1l-2.1,2.2l-2.2,.9l-2,1.1l-2.2,2.2l-2,.9l-2.2,1.1l-2.2,1.1l-2,1.1l-2.2,2l-2,1.1l-3.3,1.1l-2,1.1l-2.2,1.1l-2.2,.9h-2.1l-3.1,1.1l-2.2,1.1l-2.2,1.1l-3.1,1.1h-2.2l-2,.9l-3.3,1.1h-2l-2.2,1.1h-3.1l-2.2,1.1h-5.4l-2,1h-8.6l-2,1.1H355.2l-2.3,-1.1h-7.3l-3.3,-1h-4.2L335,625.8h-2.2l-3.1,-1.1h-2.2l-2,-1.1l-3.3,-.9h-2.1l-2.2,-1.1l-3.1,-1.1l-2.2,-1.1l-2,-1.1h-2.2l-3.1,-.9l-2.2,-1.1l-2,-1.1l-2.2,-1.1L296.7,613l-3.1,-2l-2.2,-1.1l-2.1,-1.1l-2.2,-1.1l-2,-.9l-2.2,-2.2l-2.2,-1.1l-2,-.9l-2.2,-2.2l-2,-1.1l-2.2,-2.1l-2,-1.1l-2.2,-2.2l-1.1,-1l-2,-2.1l-2.2,-2.2l-2.2,-1.1l-2.1,-2l-1.1,-2.2l-2.2,-2l-2,-1.1L252.1,578l-2,-2L249,573.8l-2.2,-2l-1.1,-2.2l-2,-2.2l-1.1,-2l-1.1,-2.2l-2,-2.1l-1.1,-2.2l-1.1,-2l-2.2,-2.2l-.9,-2.2l-1.1,-2L232,548.3l-1.1,-3.1L229.8,543l-1,-2l-1.1,-2.2l-1.1,-2.2l-1.1,-3.1l69.2,-26.6l1.1,1.1v1.1l.9,2.2v.9l1.1,1.1v1.1l1.1,1.1v.9l1.1,1.1l1.1,1.1v1.1l.9,1.1l1.1,.9v1.1l1.1,1.1l1.1,1.1v1.1l1.1,.9l.9,1.1l1.1,1.1v1.1l1.1,1.1l1.1,1h.9l1.1,1.1l1.1,1.1l1.1,1.1v.9h1.1l.9,1.1l1.1,1.1l1.1,1.1h1.1l1.1,1.1l1,.9l1.1,1.1h1.1l1.1,1.1h1.1l.9,1.1l1.1,1.1h1.1l2.2,.9h.9l1.1,1.1H335l1.1,1.1h.9l1.1,1.1h2.2l2,1.1h2.2l1.1,.9h4.2l1.1,1.1h6.5l.9,1.1h10.6l1.1,-1.1h6.4l1.1,-1.1h3.1l2.2,-.9h2l1.1,-1.1h2.2l1,-1.1h2.2l1.1,-1.1h.9l1.1,-1.1h1.1l1.1,-.9h1.1l.9,-1.1l1.1,-1.1h1.1l1.1,-1.1H403l.9,-1.1L405,541l1.1,-1.1h1.1l1.1,-1.1l.9,-1.1l1.1,-1.1h1.1l1.1,-.9l1.1,-1.1l.9,-1.1l1.1,-1.1l1.1,-1l1.1,-1.1l1,-1.1l1.1,-1.1V527l1.1,-.9l1.1,-1.1l1.1,-1.1v-1.1l.9,-1.1l1.1,-.9v-1.1l1.1,-1.1l1.1,-1.1v-1.1l1.1,-.9v-1.1l.9,-1.1v-1.1l1.1,-.9v-2.2l1.1,-1.1v-1.1l1.1,-.9v-2.2l1.1,-1.1v-3.2l.9,-1.1v-3.1l1.1,-2.2v-6.4l1.1,-.9V475.2l-1.1,-1.1v-6.5l-1.1,-1.1v-4.2l-.9,-1.1v-2l-1.1,-1.1V455l-1.1,-1.1v-1.1l-1.1,-1.1v-1.1l-1.1,-.9v-1.1l-.9,-1.1v-1.1l-1.1,-1.1v-2l-1.1,-1.1l-1.1,-1.1v-1L424.1,439l-.9,-1.1v-1.1l-1.1,-1.1l-1.1,-.9h-1.1v-1.1l56.2,-47.8Z" class="g3_21"/>
<path fill-rule="evenodd" d="M225.5,533.5l-.9,-2.1l-1.1,-2.2v-3.1l-1.1,-2.2l-1.1,-2.2l-1.1,-3.1v-2.2l-.9,-2v-3.1l-1.1,-2.2V506l73.2,-12.9v3.1l1.1,1.1v3.3l1.1,2.1v1.1l1.1,1.1v2l-69.2,26.6Z" class="g6_21"/>
<path d="M225.5,533.5l-.9,-2.1l-1.1,-2.2v-3.1l-1.1,-2.2l-1.1,-2.2l-1.1,-3.1v-2.2l-.9,-2v-3.1l-1.1,-2.2V506l73.2,-12.9v3.1l1.1,1.1v3.3l1.1,2.1v1.1l1.1,1.1v2l-69.2,26.6Z" class="g3_21"/>
<path fill-rule="evenodd" d="M218.2,506l-1.1,-2.2v-7.6L216,493.1V467.6l1.1,-2V457l1.1,-2v-2.2l1.1,-3.1v-2.2l.9,-2.2v-3.1l1.1,-2.1l1.1,-3.3l1.1,-2v-2.2l1.1,-2.2l.9,-3.1l1.1,-2.2l1.1,-2l1.1,-2.2l1,-3.1l1.1,-2.2l1.1,-2l1.1,-2.2l1.1,-2.1l.9,-3.2l2.2,-2.1l1.1,-2.2l1.1,-2.2l2,-2l1.1,-2.2l1.1,-2l2,-2.2l1.1,-2L249,387l1.1,-1.1l2,-2l1.1,-2.2l2,-2.2l2.2,-2.1l1.1,-1.1l2.1,-2l2.2,-2.2L265,371l2,-2l1.1,-2.2l2.2,-1.1l2,-2l2.2,-1.1l2,-2.2l2.2,-1.1l2,-.9l2.2,-2.2l2.2,-1.1l2,-1.1l2.2,-2l2.1,-1.1l2.2,-1.1l3.1,-.9l2.2,-1.1l2.2,-1.1l2,-1.1l2.2,-1.1l3.1,-1l2.2,-1.1l2,-1.1l2.2,-1.1h3.1l2.2,-1.1l2.1,-.9h3.3l2,-1.1l2.2,-1.1h3.1l2.2,-1.1h3.1l2.2,-1.1h7.3l3.3,-.9h12.7v74.2H352.9l-.9,1.1h-4.4l-.9,1.1h-3.3l-1.1,1h-2l-1.1,1.1H337l-.9,1.1H335l-1.1,1.1h-1.1l-.9,1.1h-2.2l-1.1,.9h-1.1l-.9,1.1l-1.1,1.1h-1.1l-1.1,1.1l-1.1,1.1h-1l-1.1,.9L319,422h-1.1l-1.1,1.1l-.9,1.1l-1.1,.9v1.1h-1.1l-1.1,1.1l-1.1,1.1l-.9,1.1l-1.1,.9l-1.1,1.1v1.1l-1.1,1.1l-.9,1.1h-1.1v.9l-1.1,1.1l-1.1,1.1V439l-1.1,1.1l-.9,1v1.1l-1.1,1.1l-1.1,2v1.1l-1.1,1.1v1.1l-1.1,1.1v.9l-.9,1.1v1.1l-1.1,1.1V457l-1.1,1.1v1.1l-1.1,1.1v4.2l-1.1,1.1v3.1l-1,2.1v20.1l1,1.1v1.1L218.2,506Z" class="g7_21"/>
<path d="M218.2,506l-1.1,-2.2v-7.6L216,493.1V467.6l1.1,-2V457l1.1,-2v-2.2l1.1,-3.1v-2.2l.9,-2.2v-3.1l1.1,-2.1l1.1,-3.3l1.1,-2v-2.2l1.1,-2.2l.9,-3.1l1.1,-2.2l1.1,-2l1.1,-2.2l1,-3.1l1.1,-2.2l1.1,-2l1.1,-2.2l1.1,-2.1l.9,-3.2l2.2,-2.1l1.1,-2.2l1.1,-2.2l2,-2l1.1,-2.2l1.1,-2l2,-2.2l1.1,-2L249,387l1.1,-1.1l2,-2l1.1,-2.2l2,-2.2l2.2,-2.1l1.1,-1.1l2.1,-2l2.2,-2.2L265,371l2,-2l1.1,-2.2l2.2,-1.1l2,-2l2.2,-1.1l2,-2.2l2.2,-1.1l2,-.9l2.2,-2.2l2.2,-1.1l2,-1.1l2.2,-2l2.1,-1.1l2.2,-1.1l3.1,-.9l2.2,-1.1l2.2,-1.1l2,-1.1l2.2,-1.1l3.1,-1l2.2,-1.1l2,-1.1l2.2,-1.1h3.1l2.2,-1.1l2.1,-.9h3.3l2,-1.1l2.2,-1.1h3.1l2.2,-1.1h3.1l2.2,-1.1h7.3l3.3,-.9h12.7v74.2H352.9l-.9,1.1h-4.4l-.9,1.1h-3.3l-1.1,1h-2l-1.1,1.1H337l-.9,1.1H335l-1.1,1.1h-1.1l-.9,1.1h-2.2l-1.1,.9h-1.1l-.9,1.1l-1.1,1.1h-1.1l-1.1,1.1l-1.1,1.1h-1l-1.1,.9L319,422h-1.1l-1.1,1.1l-.9,1.1l-1.1,.9v1.1h-1.1l-1.1,1.1l-1.1,1.1l-.9,1.1l-1.1,.9l-1.1,1.1v1.1l-1.1,1.1l-.9,1.1h-1.1v.9l-1.1,1.1l-1.1,1.1V439l-1.1,1.1l-.9,1v1.1l-1.1,1.1l-1.1,2v1.1l-1.1,1.1v1.1l-1.1,1.1v.9l-.9,1.1v1.1l-1.1,1.1V457l-1.1,1.1v1.1l-1.1,1.1v4.2l-1.1,1.1v3.1l-1,2.1v20.1l1,1.1v1.1L218.2,506Z" class="g3_21"/>
<path fill-rule="evenodd" d="M570.7,648.2H786.3V281.9H570.7V648.2Z" class="g0_21"/>
<path d="M570.7,648.2H786.3V281.9H570.7V648.2Z" class="g8_21"/>
<path fill-rule="evenodd" d="M576,297.9h7.4v-7.5H576v7.5Z" class="g2_21"/>
<path d="M576,297.9h7.4v-7.5H576v7.5Z" class="g3_21"/>
<path fill-rule="evenodd" d="M576,371h7.4v-7.3H576V371Z" class="g4_21"/>
<path d="M576,371h7.4v-7.3H576V371Z" class="g3_21"/>
<path fill-rule="evenodd" d="M576,444.4h7.4v-7.6H576v7.6Z" class="g5_21"/>
<path d="M576,444.4h7.4v-7.6H576v7.6Z" class="g3_21"/>
<path fill-rule="evenodd" d="M576,517.5h7.4v-7.3H576v7.3Z" class="g6_21"/>
<path d="M576,517.5h7.4v-7.3H576v7.3Z" class="g3_21"/>
<path fill-rule="evenodd" d="M576,590.8h7.4v-7.5H576v7.5Z" class="g7_21"/>
<path d="M576,590.8h7.4v-7.5H576v7.5Z" class="g3_21"/>
<path d="M142.7,648.2H790.5V262.7H142.7V648.2Z" class="g8_21"/>
<path d="M36.7,41.2h4.6V36.7H36.7v4.5Z" class="g9_21"/>
<path d="M36.7,41.2h4.6V36.7H36.7v4.5Z" class="g9_21"/>
<path d="M41.3,41.2H893.7V36.7H41.3v4.5Z" class="g9_21"/>
<path d="M893.7,41.2h4.6V36.7h-4.6v4.5Z" class="g9_21"/>
<path d="M893.7,41.2h4.6V36.7h-4.6v4.5Z" class="g9_21"/>
<path d="M36.7,1168.7h4.6V41.2H36.7V1168.7Z" class="g9_21"/>
<path d="M893.7,1168.7h4.6V41.2h-4.6V1168.7Z" class="g9_21"/>
<path d="M36.7,1173.2h4.6v-4.5H36.7v4.5Z" class="g9_21"/>
<path d="M36.7,1173.2h4.6v-4.5H36.7v4.5Z" class="g9_21"/>
<path d="M41.3,1173.2H893.7v-4.5H41.3v4.5Z" class="g9_21"/>
<path d="M893.7,1173.2h4.6v-4.5h-4.6v4.5Z" class="g9_21"/>
<path d="M893.7,1173.2h4.6v-4.5h-4.6v4.5Z" class="g9_21"/>
</svg>