<?xml version="1.0" encoding="UTF-8" standalone="no"?>
<!DOCTYPE svg PUBLIC "-//W3C//DTD SVG 1.1//EN"
"http://www.w3.org/Graphics/SVG/1.1/DTD/svg11.dtd">
<svg viewBox="0 0 935 1210" version="1.1" xmlns="http://www.w3.org/2000/svg" xmlns:xlink="http://www.w3.org/1999/xlink">
<defs>
<style type="text/css"><![CDATA[
.g0_22{
fill: #FFF;
}
.g1_22{
fill: none;
stroke: #000;
stroke-width: 0.183;
stroke-miterlimit: 10;
}
.g2_22{
fill: #99F;
}
.g3_22{
fill: none;
stroke: #000;
stroke-width: 1.145;
stroke-linecap: round;
stroke-linejoin: round;
}
.g4_22{
fill: #993365;
}
.g5_22{
fill: #FFC;
}
.g6_22{
fill: #CFF;
}
.g7_22{
fill: #650065;
}
.g8_22{
fill: none;
stroke: #000;
stroke-width: 0.183;
stroke-linecap: round;
stroke-linejoin: round;
}
.g9_22{
fill: #000;
}
]]></style>
</defs>
<path fill-rule="evenodd" d="M143.2,451.7H731.9V147.2H143.2V451.7Z" class="g0_22"/>
<path d="M143.2,451.7H731.9V147.2H143.2V451.7Z" class="g1_22"/>
<path fill-rule="evenodd" d="M344.7,202.2h13.7l1.3,1.1h6.8l2.4,1.1h2.2l2.4,1.1h3.3l2.4,1.3l2.2,1.1h2.3l2.2,1.1h1.3l2.2,1.1l2.4,1.3H394l1.1,1.1l2.4,1.1l2.2,1.1l2.4,1.2l1.1,1.1h2.2l2.4,1.1l1.1,1.1l2.3,1.3l1.1,1.1l2.2,1.1l1.3,1.1l2.2,2.4l2.4,1.1l1.1,1.1l2.2,1.3l1.3,1.1l1.1,1.1l2.2,2.2l1.3,1.3l2.2,1.1l1.1,2.2l1.3,1.3l2.2,1.1l1.1,2.2l1.2,1.2l1.1,2.2l2.2,1.1l1.3,2.4l1.1,1.1l1.1,2.4l1.1,1.1l1.3,2.2l1.1,1.3l1.1,2.2l1.1,2.4l1.3,1.1l1.1,2.2l1.1,2.4l1.1,1.1l1.3,2.3l1.1,2.2v1.1l1.1,2.4l1.1,2.2l1.3,2.4v1.1l1.1,2.4V288l-28.6,9.2l-1.3,-1.1V295l-1.1,-2.4v-1.1l-1.1,-1.1V288l-1.1,-1.1v-1.1l-1.3,-1.3l-1.1,-2.2v-1.1l-1.1,-1.3L425,278.8l-1.3,-2.2v-1.3l-1.1,-1.1l-1.1,-1.1L420.4,272l-1.3,-2.3L418,268.6v-1.1l-1.1,-1.3l-1.1,-1.1L414.5,264l-1.1,-1.1l-1.1,-1.3l-1.1,-1.1L410,259.4l-1.1,-1.1L407.8,257l-1.1,-1.1l-1.3,-1.1l-1.1,-1.1l-2.2,-1.3L401,251.3l-1.3,-1.1h-1.1l-1.1,-1.1l-1.1,-1.3L394,246.7l-1.1,-1.1h-1.1l-1.3,-1.1l-1.1,-1.2h-2.2l-1.3,-1.1l-1.1,-1.1h-2.2L381.4,240h-1.1l-2.2,-1.3h-1.3l-1.1,-1.1h-2.2l-1.3,-1.1h-3.3l-1.3,-1.1h-3.3L363,234.1h-4.6L356.3,233H344.7V202.2Z" class="g2_22"/>
<path d="M344.7,202.2h13.7l1.3,1.1h6.8l2.4,1.1h2.2l2.4,1.1h3.3l2.4,1.3l2.2,1.1h2.3l2.2,1.1h1.3l2.2,1.1l2.4,1.3H394l1.1,1.1l2.4,1.1l2.2,1.1l2.4,1.2l1.1,1.1h2.2l2.4,1.1l1.1,1.1l2.3,1.3l1.1,1.1l2.2,1.1l1.3,1.1l2.2,2.4l2.4,1.1l1.1,1.1l2.2,1.3l1.3,1.1l1.1,1.1l2.2,2.2l1.3,1.3l2.2,1.1l1.1,2.2l1.3,1.3l2.2,1.1l1.1,2.2l1.2,1.2l1.1,2.2l2.2,1.1l1.3,2.4l1.1,1.1l1.1,2.4l1.1,1.1l1.3,2.2l1.1,1.3l1.1,2.2l1.1,2.4l1.3,1.1l1.1,2.2l1.1,2.4l1.1,1.1l1.3,2.3l1.1,2.2v1.1l1.1,2.4l1.1,2.2l1.3,2.4v1.1l1.1,2.4V288l-28.6,9.2l-1.3,-1.1V295l-1.1,-2.4v-1.1l-1.1,-1.1V288l-1.1,-1.1v-1.1l-1.3,-1.3l-1.1,-2.2v-1.1l-1.1,-1.3L425,278.8l-1.3,-2.2v-1.3l-1.1,-1.1l-1.1,-1.1L420.4,272l-1.3,-2.3L418,268.6v-1.1l-1.1,-1.3l-1.1,-1.1L414.5,264l-1.1,-1.1l-1.1,-1.3l-1.1,-1.1L410,259.4l-1.1,-1.1L407.8,257l-1.1,-1.1l-1.3,-1.1l-1.1,-1.1l-2.2,-1.3L401,251.3l-1.3,-1.1h-1.1l-1.1,-1.1l-1.1,-1.3L394,246.7l-1.1,-1.1h-1.1l-1.3,-1.1l-1.1,-1.2h-2.2l-1.3,-1.1l-1.1,-1.1h-2.2L381.4,240h-1.1l-2.2,-1.3h-1.3l-1.1,-1.1h-2.2l-1.3,-1.1h-3.3l-1.3,-1.1h-3.3L363,234.1h-4.6L356.3,233H344.7V202.2Z" class="g3_22"/>
<path fill-rule="evenodd" d="M462.8,288l1.1,2.4l1.1,2.2V295l1.2,1.1v4.5l1.1,2.2v4.6l1.1,2.4v7.9l1.1,2.4v12.6l-1.1,2.2v9.2l-1.1,2.4v4.6l-1.1,1.1v4.5l-1.2,2.2l-29.7,-7.8v-1.3l1.1,-2.2v-3.5l1.1,-1.1v-8.1l1.2,-2.2V320.1L437.5,319v-8.1l-1.1,-2.2v-3.5l-1.1,-1.1v-3.5l-1.1,-1.1v-2.3L462.8,288Z" class="g4_22"/>
<path d="M462.8,288l1.1,2.4l1.1,2.2V295l1.2,1.1v4.5l1.1,2.2v4.6l1.1,2.4v7.9l1.1,2.4v12.6l-1.1,2.2v9.2l-1.1,2.4v4.6l-1.1,1.1v4.5l-1.2,2.2l-29.7,-7.8v-1.3l1.1,-2.2v-3.5l1.1,-1.1v-8.1l1.2,-2.2V320.1L437.5,319v-8.1l-1.1,-2.2v-3.5l-1.1,-1.1v-3.5l-1.1,-1.1v-2.3L462.8,288Z" class="g3_22"/>
<path fill-rule="evenodd" d="M465,358.9v2.4l-1.1,2.2l-1.1,1.3V367l-1.1,2.4v2.2l-1.3,2.4l-1.1,1.1l-1.1,2.2v2.3l-1.1,2.2l-1.3,1.3l-1.1,2.2l-1.1,2.4l-1.1,1.1l-1.3,2.2l-1.1,2.4l-1.1,1.1l-1.1,2.2l-1.3,1.3l-1.1,2.2l-1.1,1.1l-1.1,2.4l-1.3,1.1l-2.2,2.3l-1.1,1.1l-1.2,2.2l-1.1,1.3l-2.2,1.1l-1.3,2.2l-1.1,1.3l-2.2,1.1l-1.3,2.2l-2.2,1.3L425,422l-1.3,1.1l-2.2,2.4l-1.1,1.1l-2.4,1.1l-2.2,1.1l-1.3,1.3l-2.2,1.1l-1.1,1.1l-2.3,1.1l-1.1,1.2l-2.4,1.1l-2.2,1.1l-1.1,1.1l-2.4,1.3l-2.2,1.1h-2.4l-1.1,1.1l-2.2,1.1l-2.4,1.3h-2.2l-1.3,1.1h-2.2l-2.3,1.1l-2.2,1.1h-2.4l-2.2,1.3h-3.5l-2.2,1.1h-4.6l-2.4,1.1h-8l-2.2,1.1H339l-2.2,-1.1h-9.1l-2.4,-1.1h-3.5l-2.2,-1.1H315l-2.4,-1.3h-2.2L309.3,446l-2.4,-1.1h-2.2l-2.3,-1.1h-2.2l-1.3,-1.3l-2.2,-1.1l-2.4,-1.1h-2.2L291,439.2l-2.4,-1.3l-2.2,-1.1l-1.3,-1.1l-2.2,-1.1l-2.4,-1.2l-1.1,-1.1l-2.2,-1.1l-1.1,-1.1l-2.3,-1.3l-2.2,-1.1l-1.3,-1.1l-2.2,-1.1L267,423.1L265.7,422l-2.2,-1.1l-1.1,-1.3l20.5,-22.9L284,398l1.1,1.1h1.3l1.1,1.1l1.1,1.1l1.1,1.3l2.4,1.1l1.1,1.1l1.1,1.1h1.3l1.1,1.2l1.1,1.1h2.4l1.1,1.1l1.1,1.1h2.3l1.1,1.3l1.1,1.1H308l2.4,1.1h1.1l1.1,1.1H315l1.1,1.3h1.1l2.4,1.1h3.5l1.1,1.1h3.5l1.1,1.1h8l2.2,1.3h12.7l1.1,-1.3h8l2.2,-1.1h3.5l1.1,-1.1h3.5l1.1,-1.1h1.3l2.2,-1.3h1.1l1.3,-1.1h2.2l1.1,-1.1h1.2l2.2,-1.1l1.1,-1.3h1.3l2.2,-1.1l1.1,-1.1h1.3l1.1,-1.1l1.1,-1.2h2.4l1.1,-1.1l1.1,-1.1l1.1,-1.1l1.3,-1.3l1.1,-1.1l2.2,-1.1h1.1l1.3,-1.1l1.1,-1.3l1.1,-1.1l1.1,-1.1l1.2,-1.1l1.1,-1.3l1.1,-1.1l1.1,-1.1l1.3,-1.1l1.1,-2.4l1.1,-1.1v-1.1l1.1,-1.1l1.3,-1.3l1.1,-1.1l1.1,-1.1l1.1,-2.3v-1.1l1.3,-1.1l1.1,-1.1l1.1,-1.3v-2.2l1.1,-1.1l1.3,-1.3v-2.2l1.1,-1.1v-1.3l1.1,-2.2v-1.1l1.1,-1.3v-2.2l1.3,-1.1v-1.2l1.1,-2.2v-1.1l29.7,7.8Z" class="g5_22"/>
<path d="M465,358.9v2.4l-1.1,2.2l-1.1,1.3V367l-1.1,2.4v2.2l-1.3,2.4l-1.1,1.1l-1.1,2.2v2.3l-1.1,2.2l-1.3,1.3l-1.1,2.2l-1.1,2.4l-1.1,1.1l-1.3,2.2l-1.1,2.4l-1.1,1.1l-1.1,2.2l-1.3,1.3l-1.1,2.2l-1.1,1.1l-1.1,2.4l-1.3,1.1l-2.2,2.3l-1.1,1.1l-1.2,2.2l-1.1,1.3l-2.2,1.1l-1.3,2.2l-1.1,1.3l-2.2,1.1l-1.3,2.2l-2.2,1.3L425,422l-1.3,1.1l-2.2,2.4l-1.1,1.1l-2.4,1.1l-2.2,1.1l-1.3,1.3l-2.2,1.1l-1.1,1.1l-2.3,1.1l-1.1,1.2l-2.4,1.1l-2.2,1.1l-1.1,1.1l-2.4,1.3l-2.2,1.1h-2.4l-1.1,1.1l-2.2,1.1l-2.4,1.3h-2.2l-1.3,1.1h-2.2l-2.3,1.1l-2.2,1.1h-2.4l-2.2,1.3h-3.5l-2.2,1.1h-4.6l-2.4,1.1h-8l-2.2,1.1H339l-2.2,-1.1h-9.1l-2.4,-1.1h-3.5l-2.2,-1.1H315l-2.4,-1.3h-2.2L309.3,446l-2.4,-1.1h-2.2l-2.3,-1.1h-2.2l-1.3,-1.3l-2.2,-1.1l-2.4,-1.1h-2.2L291,439.2l-2.4,-1.3l-2.2,-1.1l-1.3,-1.1l-2.2,-1.1l-2.4,-1.2l-1.1,-1.1l-2.2,-1.1l-1.1,-1.1l-2.3,-1.3l-2.2,-1.1l-1.3,-1.1l-2.2,-1.1L267,423.1L265.7,422l-2.2,-1.1l-1.1,-1.3l20.5,-22.9L284,398l1.1,1.1h1.3l1.1,1.1l1.1,1.1l1.1,1.3l2.4,1.1l1.1,1.1l1.1,1.1h1.3l1.1,1.2l1.1,1.1h2.4l1.1,1.1l1.1,1.1h2.3l1.1,1.3l1.1,1.1H308l2.4,1.1h1.1l1.1,1.1H315l1.1,1.3h1.1l2.4,1.1h3.5l1.1,1.1h3.5l1.1,1.1h8l2.2,1.3h12.7l1.1,-1.3h8l2.2,-1.1h3.5l1.1,-1.1h3.5l1.1,-1.1h1.3l2.2,-1.3h1.1l1.3,-1.1h2.2l1.1,-1.1h1.2l2.2,-1.1l1.1,-1.3h1.3l2.2,-1.1l1.1,-1.1h1.3l1.1,-1.1l1.1,-1.2h2.4l1.1,-1.1l1.1,-1.1l1.1,-1.1l1.3,-1.3l1.1,-1.1l2.2,-1.1h1.1l1.3,-1.1l1.1,-1.3l1.1,-1.1l1.1,-1.1l1.2,-1.1l1.1,-1.3l1.1,-1.1l1.1,-1.1l1.3,-1.1l1.1,-2.4l1.1,-1.1v-1.1l1.1,-1.1l1.3,-1.3l1.1,-1.1l1.1,-1.1l1.1,-2.3v-1.1l1.3,-1.1l1.1,-1.1l1.1,-1.3v-2.2l1.1,-1.1l1.3,-1.3v-2.2l1.1,-1.1v-1.3l1.1,-2.2v-1.1l1.1,-1.3v-2.2l1.3,-1.1v-1.2l1.1,-2.2v-1.1l29.7,7.8Z" class="g3_22"/>
<path fill-rule="evenodd" d="M262.4,419.6L260,417.4l-1.1,-1.1L257.8,415l-2.4,-2.2l-1.1,-1.1l-1.1,-1.3l-2.4,-2.2l-1.1,-1.1l-1.1,-2.3l-1.2,-1.1l-1.1,-2.4l-2.2,-1.1L242.8,398l-1.1,-1.3l-1.1,-2.2l-1.1,-1.1L238.2,391l-1.1,-2.2L236,387.7l-1.1,-2.4v-2.2l-1.3,-1.3l-1.1,-2.2l-1.1,-2.3l-1.1,-2.2V374L229,371.6l-1.1,-2.2V367l-1.1,-2.2l-1.1,-1.3v-2.2l-1.3,-2.4v-4.5l-1.1,-2.2v-1.1l-1.1,-2.4v-6.8l-1.1,-2.4V313.1l1.1,-2.2v-5.7l1.1,-2.4v-2.2l31,6.8l-1.1,1.3v4.4l-1.3,2.4v22.9l1.3,1.1v4.6l1.1,2.4v3.3l1.1,1.3v3.3l1.1,1.2v1.1l1.3,2.2v1.3l1.1,1.1v2.2l1.1,1.3v1.1l1.1,2.2l1.3,1.3v1.1l1.1,2.2l1.1,1.3v1.1l1.1,1.1l1.3,1.1l1.1,2.3v1.1l1.1,1.1l1.1,1.3l1.3,1.1l1.1,1.1l1.1,1.1l1.1,2.4l1.2,1.1l1.1,1.1l1.1,1.1l1.1,1.3l1.1,1.1l1.3,1.1l1.1,1.1l-20.5,22.9Z" class="g6_22"/>
<path d="M262.4,419.6L260,417.4l-1.1,-1.1L257.8,415l-2.4,-2.2l-1.1,-1.1l-1.1,-1.3l-2.4,-2.2l-1.1,-1.1l-1.1,-2.3l-1.2,-1.1l-1.1,-2.4l-2.2,-1.1L242.8,398l-1.1,-1.3l-1.1,-2.2l-1.1,-1.1L238.2,391l-1.1,-2.2L236,387.7l-1.1,-2.4v-2.2l-1.3,-1.3l-1.1,-2.2l-1.1,-2.3l-1.1,-2.2V374L229,371.6l-1.1,-2.2V367l-1.1,-2.2l-1.1,-1.3v-2.2l-1.3,-2.4v-4.5l-1.1,-2.2v-1.1l-1.1,-2.4v-6.8l-1.1,-2.4V313.1l1.1,-2.2v-5.7l1.1,-2.4v-2.2l31,6.8l-1.1,1.3v4.4l-1.3,2.4v22.9l1.3,1.1v4.6l1.1,2.4v3.3l1.1,1.3v3.3l1.1,1.2v1.1l1.3,2.2v1.3l1.1,1.1v2.2l1.1,1.3v1.1l1.1,2.2l1.3,1.3v1.1l1.1,2.2l1.1,1.3v1.1l1.1,1.1l1.3,1.1l1.1,2.3v1.1l1.1,1.1l1.1,1.3l1.3,1.1l1.1,1.1l1.1,1.1l1.1,2.4l1.2,1.1l1.1,1.1l1.1,1.1l1.1,1.3l1.1,1.1l1.3,1.1l1.1,1.1l-20.5,22.9Z" class="g3_22"/>
<path fill-rule="evenodd" d="M223.3,300.6l1.1,-2.3V295l1.3,-2.4v-2.2l1.1,-2.4l1.1,-2.2v-2.4l1.1,-1.1l1.3,-2.4v-2.2l1.1,-2.4l1.1,-1.1l1.1,-2.2l1.3,-2.3v-1.1l1.1,-2.4l1.1,-2.2l1.1,-1.1l1.3,-2.4l1.1,-2.2l1.1,-1.3l1.1,-2.2l1.3,-1.1l2.2,-2.4l1.1,-1.1l1.2,-2.4l1.1,-1.1l1.1,-2.2l2.4,-1.2l1.1,-2.2l1.1,-1.1l2.4,-1.3l1.1,-2.2l1.1,-1.1l2.4,-1.3l1.1,-2.2l2.2,-1.1l1.3,-1.1l1.1,-1.3l2.2,-1.1l1.3,-1.1l2.2,-2.4l2.3,-1.1l1.1,-1.1l2.2,-1.1l1.1,-1.3l2.4,-1.1l2.2,-1.1h1.3l2.2,-1.1l2.4,-1.2l1.1,-1.1l2.2,-1.1l2.4,-1.1h2.2l1.3,-1.3l2.2,-1.1h2.3l2.2,-1.1h2.4l1.1,-1.1l2.2,-1.3h4.6l2.4,-1.1h2.2l1.3,-1.1h6.8l2.3,-1.1h12.5V233H333.3l-1.1,1.1h-4.5l-2.4,1.3h-2.2l-2.4,1.1h-3.5l-1.1,1.1H315l-2.4,1.1h-1.1l-1.1,1.3H308l-1.1,1.1h-1.1l-1.1,1.1l-2.3,1.1h-1.1l-1.1,1.2l-2.4,1.1h-1.1l-1.1,1.1l-1.3,1.1l-1.1,1.3l-1.1,1.1h-2.4l-1.1,1.1l-1.1,1.1l-1.1,1.3l-1.3,1.1l-1.1,1.1l-1.1,1.1l-1.1,1.3l-1.3,1.1l-1.1,1.1l-1.1,1.1l-1.1,1.3l-1.1,1.1l-1.2,1.1l-1.1,1.1l-1.1,1.3l-1.1,1.1l-1.3,1.1l-1.1,2.3l-1.1,1.1v1.1l-1.1,1.1l-1.3,1.3l-1.1,2.2v1.1l-1.1,1.3l-1.1,1.1v2.2l-1.3,1.3l-1.1,1.1V288l-1.1,2.4v1.1l-1.1,1.1V295l-1.3,1.1v1.1l-1.1,2.3v3.3l-1.1,1.3v3.3l-31,-6.8Z" class="g7_22"/>
<path d="M223.3,300.6l1.1,-2.3V295l1.3,-2.4v-2.2l1.1,-2.4l1.1,-2.2v-2.4l1.1,-1.1l1.3,-2.4v-2.2l1.1,-2.4l1.1,-1.1l1.1,-2.2l1.3,-2.3v-1.1l1.1,-2.4l1.1,-2.2l1.1,-1.1l1.3,-2.4l1.1,-2.2l1.1,-1.3l1.1,-2.2l1.3,-1.1l2.2,-2.4l1.1,-1.1l1.2,-2.4l1.1,-1.1l1.1,-2.2l2.4,-1.2l1.1,-2.2l1.1,-1.1l2.4,-1.3l1.1,-2.2l1.1,-1.1l2.4,-1.3l1.1,-2.2l2.2,-1.1l1.3,-1.1l1.1,-1.3l2.2,-1.1l1.3,-1.1l2.2,-2.4l2.3,-1.1l1.1,-1.1l2.2,-1.1l1.1,-1.3l2.4,-1.1l2.2,-1.1h1.3l2.2,-1.1l2.4,-1.2l1.1,-1.1l2.2,-1.1l2.4,-1.1h2.2l1.3,-1.3l2.2,-1.1h2.3l2.2,-1.1h2.4l1.1,-1.1l2.2,-1.3h4.6l2.4,-1.1h2.2l1.3,-1.1h6.8l2.3,-1.1h12.5V233H333.3l-1.1,1.1h-4.5l-2.4,1.3h-2.2l-2.4,1.1h-3.5l-1.1,1.1H315l-2.4,1.1h-1.1l-1.1,1.3H308l-1.1,1.1h-1.1l-1.1,1.1l-2.3,1.1h-1.1l-1.1,1.2l-2.4,1.1h-1.1l-1.1,1.1l-1.3,1.1l-1.1,1.3l-1.1,1.1h-2.4l-1.1,1.1l-1.1,1.1l-1.1,1.3l-1.3,1.1l-1.1,1.1l-1.1,1.1l-1.1,1.3l-1.3,1.1l-1.1,1.1l-1.1,1.1l-1.1,1.3l-1.1,1.1l-1.2,1.1l-1.1,1.1l-1.1,1.3l-1.1,1.1l-1.3,1.1l-1.1,2.3l-1.1,1.1v1.1l-1.1,1.1l-1.3,1.3l-1.1,2.2v1.1l-1.1,1.3l-1.1,1.1v2.2l-1.3,1.3l-1.1,1.1V288l-1.1,2.4v1.1l-1.1,1.1V295l-1.3,1.1v1.1l-1.1,2.3v3.3l-1.1,1.3v3.3l-31,-6.8Z" class="g3_22"/>
<path fill-rule="evenodd" d="M531.5,412.8H727.3v-189H531.5v189Z" class="g0_22"/>
<path d="M531.5,412.8H727.3v-189H531.5v189Z" class="g8_22"/>
<path fill-rule="evenodd" d="M536.1,238.7h6.8v-6.8h-6.8v6.8Z" class="g2_22"/>
<path d="M536.1,238.7h6.8v-6.8h-6.8v6.8Z" class="g3_22"/>
<path fill-rule="evenodd" d="M536.1,276.6h6.8v-6.9h-6.8v6.9Z" class="g4_22"/>
<path d="M536.1,276.6h6.8v-6.9h-6.8v6.9Z" class="g3_22"/>
<path fill-rule="evenodd" d="M536.1,314.4h6.8v-7h-6.8v7Z" class="g5_22"/>
<path d="M536.1,314.4h6.8v-7h-6.8v7Z" class="g3_22"/>
<path fill-rule="evenodd" d="M536.1,352.2h6.8v-7h-6.8v7Z" class="g6_22"/>
<path d="M536.1,352.2h6.8v-7h-6.8v7Z" class="g3_22"/>
<path fill-rule="evenodd" d="M536.1,389.9h6.8v-6.8h-6.8v6.8Z" class="g7_22"/>
<path d="M536.1,389.9h6.8v-6.8h-6.8v6.8Z" class="g3_22"/>
<path d="M143.2,451.7H731.9V147.2H143.2V451.7Z" class="g8_22"/>
<path d="M36.7,41.2h4.6V36.7H36.7v4.5Z" class="g9_22"/>
<path d="M36.7,41.2h4.6V36.7H36.7v4.5Z" class="g9_22"/>
<path d="M41.3,41.2H893.7V36.7H41.3v4.5Z" class="g9_22"/>
<path d="M893.7,41.2h4.6V36.7h-4.6v4.5Z" class="g9_22"/>
<path d="M893.7,41.2h4.6V36.7h-4.6v4.5Z" class="g9_22"/>
<path d="M36.7,1168.7h4.6V41.2H36.7V1168.7Z" class="g9_22"/>
<path d="M893.7,1168.7h4.6V41.2h-4.6V1168.7Z" class="g9_22"/>
<path d="M36.7,1173.2h4.6v-4.5H36.7v4.5Z" class="g9_22"/>
<path d="M36.7,1173.2h4.6v-4.5H36.7v4.5Z" class="g9_22"/>
<path d="M41.3,1173.2H893.7v-4.5H41.3v4.5Z" class="g9_22"/>
<path d="M893.7,1173.2h4.6v-4.5h-4.6v4.5Z" class="g9_22"/>
<path d="M893.7,1173.2h4.6v-4.5h-4.6v4.5Z" class="g9_22"/>
</svg>