<?xml version="1.0" encoding="UTF-8" standalone="no"?>
<!DOCTYPE svg PUBLIC "-//W3C//DTD SVG 1.1//EN"
"http://www.w3.org/Graphics/SVG/1.1/DTD/svg11.dtd">
<svg viewBox="0 0 935 1210" version="1.1" xmlns="http://www.w3.org/2000/svg" xmlns:xlink="http://www.w3.org/1999/xlink">
<defs>
<style type="text/css"><![CDATA[
.g0_23{
fill: #FFF;
}
.g1_23{
fill: none;
stroke: #000;
stroke-width: 0.183;
stroke-miterlimit: 10;
}
.g2_23{
fill: #99F;
}
.g3_23{
fill: none;
stroke: #000;
stroke-width: 1.145;
stroke-linecap: round;
stroke-linejoin: round;
}
.g4_23{
fill: #993365;
}
.g5_23{
fill: none;
stroke: #000;
stroke-width: 0.183;
stroke-linecap: round;
stroke-linejoin: round;
}
.g6_23{
fill: #000;
}
]]></style>
</defs>
<path fill-rule="evenodd" d="M143.2,434.1H721.6V178.9H143.2V434.1Z" class="g0_23"/>
<path d="M143.2,434.1H721.6V178.9H143.2V434.1Z" class="g1_23"/>
<path fill-rule="evenodd" d="M422.6,228h12.7l1.1,1.3h5.8l1.1,1.1h3.5l2.2,1.1h1.1l3.5,1.1l2.4,1.1h1.1l3.5,1.3l1.1,1.1h2.2l3.4,2.2h1.1l1.1,1.3l3.5,2.2h1.1l2.4,1.1l2.2,2.4l1.3,1.1l3.3,1.1l1.3,1.3l1.1,1.1l3.5,2.2l1.1,1.2l1.1,1.1l2.3,3.5l1.1,1.1l1.1,1.1l2.4,2.4l1.1,1.1l1.1,1.1l2.4,3.5l1.1,1.1l1.1,1.1l2.4,3.5V275l1.1,1.3l2.2,3.3l1.3,1.2l1.1,3.3l1.1,2.4v1.1l1.1,3.5l1.3,1.1v2.2l1.1,3.5l1.1,1.1v1.3l1.1,3.3l1.2,2.4v4.5l1.1,2.2v7l1.1,3.5v10.3l-1.1,3.3v8l-1.1,1.1v5.9l-1.2,1.1v2.2l-1.1,2.4l-1.1,2.2l-1.1,3.5v1.1l-1.3,2.3l-1.1,3.5v1.1l-1.1,1.1l-1.1,3.5l-1.3,1.1l-1.1,2.4l-2.2,2.2v2.2l-1.3,1.3l-2.2,2.2l-1.1,2.4l-1.3,1l-2.2,2.2l-1.1,1.3l-1.3,2.2l-2.2,2.4l-1.1,1.1l-2.3,2.2l-1.1,1.3l-1.1,1.1l-3.5,2.2l-1.1,1.3l-1.3,1.1l-3.3,2.2l-1.3,1.3l-1.1,1.1l-3.5,1.1l-1.1,1.1l-1.1,1.3l-3.5,1l-1.1,1.1l-2.3,1.1l-3.3,1.3h-1.1l-3.5,1.1l-1.1,1.1h-2.4l-3.5,1.1l-1.1,1.3h-2.2l-3.5,1.1h-3.5l-3.4,1.1h-3.3l-3.5,1.1H415.8l-1.1,-1.1h-6.9l-3.5,-1.1h-2.2L401,426.2h-3.5l-2.4,-1.3H394l-3.5,-1.1l-2.2,-1.1h-1.1l-3.5,-1.1l-1.1,-1.3l-3.4,-1.1l-1.1,-1.1l-2.4,-1l-3.5,-1.3l-1.1,-1.1L370,413.6l-3.5,-1.1l-1.1,-1.3l-1.1,-1.1l-3.5,-2.2l-1.1,-1.3l-1.3,-1.1l-2.1,-2.2L355.2,402l-2.4,-1.1l-2.2,-2.2l-1.3,-1.3l-1.1,-1.1L346,392.8l-1.3,-1.1l-2.2,-2.1l-1.1,-2.4v-1.1L339,383.7l-1.1,-2.2l-1.1,-1.1l-1.3,-3.5l-1.1,-1.1l-1.1,-1.1l-1.1,-3.5L331,370.1v-2.4l-1.1,-3.4l-1.1,-1.1V361l-1.1,-3.5l-1.3,-1.1l-1.1,-3.5v-3.5l-1.1,-3.5v-3.3l-1.1,-3.5V316.2l1.1,-3.5v-3.3l1.1,-3.4v-2.4l1.1,-1.1l1.3,-3.5v-1.1l1.1,-2.2l1.1,-3.5v-1.1l1.1,-2.4l1.2,-2.2l1.1,-2.4V283l2.2,-3.4v-1.1l1.3,-2.2l2.2,-2.4l1.1,-1.1l1.3,-3.5l1.1,-1.1l1.1,-1.1l2.4,-3.5l1.1,-1.1l1.1,-1.3l2.4,-2.2l1.1,-1.1l1.1,-2.4l3.5,-2.2l1.1,-1.2l1,-1.1l2.4,-2.2l2.2,-1.3h1.3l2.2,-2.2l2.4,-1.1l2.2,-2.4h1.1l2.4,-1.1l3.5,-2.4h1.1l1.1,-1.1l3.4,-1.1l1.1,-1.1l19.5,46.9h-1.1l-1.1,1.1H401v1.1h-2.4l-1.1,1.1l-1.1,1.3h-1.3l-1.1,1.1l-1.1,1.1h-1.1l-1.3,1.1v1.3h-1.1l-1.1,1.1l-1.1,1.1l-1.3,1.1l-1.1,1.3l-1.1,2.2l-1.1,1.1l-1.2,1.3v1.1l-1.1,1.1v1.1h-1.1l-1.1,2.4v1.1l-1.3,2.3v1.1l-1.1,1.1V314l-1.1,1.1v3.5l-1.1,1.1v17.1l1.1,2.3v3.5l1.1,1.1v2.2l1.1,1.3v1.1l1.3,1.1v2.4h1.1v1.1l1.1,1.1v1.1l1.1,1.3l1.2,1.1v1.1h1.1v1.1l1.1,1.3l1.1,1.1v1.1h1.3l1.1,1.1l1.1,1.2l1.1,1.1l1.3,1.1l2.2,1.1v1.3h1.1l1.3,1.1h1.1v1.1l2.2,1.1H401l2.2,1.3l2.4,1.1h1.1l2.2,1.1h1.2l1.1,1.1h5.7l1.1,1.3h10.5l1.1,-1.3h3.5l2.2,-1.1h3.4v-1.1h3.5v-1.1h2.2v-1.3h1.1l1.3,-1.1h1.1l1.1,-1.1h1.1l1.3,-1.1l1.1,-1.3l1.1,-1.1h1.1l1.3,-1.1v-1.1h1.1l1.1,-1.2l1.1,-1.1l1.3,-1.1l1.1,-1.1l1.1,-1.3v-1.1l1.1,-2.2H465v-1.3l1.2,-1.1v-1.1l1.1,-1.1v-1.3l1.1,-1.1l1.1,-2.2v-1.3l1.3,-2.2v-3.5h1.1v-5.6l1.1,-1.1V323.2l-1.1,-1.3v-4.6l-1.1,-1.1v-3.5l-1.3,-1.1v-2.2l-1.1,-1.2v-1.1L467.3,306v-1.1l-1.1,-1.3v-1.1L465,301.4l-1.1,-1.1L462.8,299v-1.1l-1.1,-1.1v-1.1h-1.1l-1.3,-1.3v-1.1h-1.1l-1.1,-1.1L456,291.1l-1.3,-1.3l-1.1,-1.1h-1.1l-1.1,-1.1v-1.1L449,285.2h-1.1l-1.1,-1.1h-1.3L444.4,283h-1.1l-1.1,-1.1l-2.4,-1.1h-1.1l-2.3,-1.2h-3.3l-2.4,-1.1h-8.1V228Z" class="g2_23"/>
<path d="M422.6,228h12.7l1.1,1.3h5.8l1.1,1.1h3.5l2.2,1.1h1.1l3.5,1.1l2.4,1.1h1.1l3.5,1.3l1.1,1.1h2.2l3.4,2.2h1.1l1.1,1.3l3.5,2.2h1.1l2.4,1.1l2.2,2.4l1.3,1.1l3.3,1.1l1.3,1.3l1.1,1.1l3.5,2.2l1.1,1.2l1.1,1.1l2.3,3.5l1.1,1.1l1.1,1.1l2.4,2.4l1.1,1.1l1.1,1.1l2.4,3.5l1.1,1.1l1.1,1.1l2.4,3.5V275l1.1,1.3l2.2,3.3l1.3,1.2l1.1,3.3l1.1,2.4v1.1l1.1,3.5l1.3,1.1v2.2l1.1,3.5l1.1,1.1v1.3l1.1,3.3l1.2,2.4v4.5l1.1,2.2v7l1.1,3.5v10.3l-1.1,3.3v8l-1.1,1.1v5.9l-1.2,1.1v2.2l-1.1,2.4l-1.1,2.2l-1.1,3.5v1.1l-1.3,2.3l-1.1,3.5v1.1l-1.1,1.1l-1.1,3.5l-1.3,1.1l-1.1,2.4l-2.2,2.2v2.2l-1.3,1.3l-2.2,2.2l-1.1,2.3l-1.3,1.1l-2.2,2.3l-1.1,1.2l-1.3,2.2l-2.2,2.4l-1.1,1.1l-2.3,2.2l-1.1,1.3l-1.1,1.1l-3.5,2.2l-1.1,1.3l-1.3,1.1l-3.3,2.2l-1.3,1.3l-1.1,1.1l-3.5,1.1l-1.1,1.1l-1.1,1.2l-3.5,1.1l-1.1,1.2l-2.3,1.1l-3.3,1.2h-1.1l-3.5,1.1l-1.1,1.1h-2.4l-3.5,1.1l-1.1,1.3h-2.2l-3.5,1.1h-3.5l-3.4,1.1h-3.3l-3.5,1.1H415.8l-1.1,-1.1h-6.9l-3.5,-1.1h-2.2L401,426.2h-3.5l-2.4,-1.3H394l-3.5,-1.1l-2.2,-1.1h-1.1l-3.5,-1.1l-1.1,-1.2l-3.4,-1.1l-1.1,-1.2L375.7,417l-3.5,-1.2l-1.1,-1.1L370,413.6l-3.5,-1.1l-1.1,-1.3l-1.1,-1.1l-3.5,-2.2l-1.1,-1.3l-1.3,-1.1l-2.2,-2.2L355.1,402l-2.3,-1.1l-2.2,-2.2l-1.3,-1.3l-1.1,-1.1L346,392.9l-1.3,-1.1l-2.2,-2.3l-1.1,-2.3v-1.1L339,383.7l-1.1,-2.2l-1.1,-1.1l-1.3,-3.5l-1.1,-1.1l-1.1,-1.1l-1.1,-3.5L331,370.1v-2.4l-1.1,-3.4l-1.1,-1.1V361l-1.1,-3.5l-1.3,-1.1l-1.1,-3.5v-3.5l-1.1,-3.5v-3.3l-1.1,-3.5V316.2l1.1,-3.5v-3.3l1.1,-3.4v-2.4l1.1,-1.1l1.3,-3.5v-1.1l1.1,-2.2l1.1,-3.5v-1.1l1.1,-2.4l1.2,-2.2l1.1,-2.4V283l2.2,-3.4v-1.1l1.3,-2.2l2.2,-2.4l1.1,-1.1l1.3,-3.5l1.1,-1.1l1.1,-1.1l2.4,-3.5l1.1,-1.1l1.1,-1.3l2.4,-2.2l1.1,-1.1l1.1,-2.4l3.4,-2.2l1.1,-1.2l1.1,-1.1l2.4,-2.2l2.2,-1.3h1.3l2.2,-2.2l2.4,-1.1l2.2,-2.4h1.1l2.4,-1.1l3.5,-2.4h1.1l1.1,-1.1l3.4,-1.1l1.1,-1.1l19.5,46.9h-1.1l-1.1,1.1H401v1.1h-2.4l-1.1,1.1l-1.1,1.3h-1.3l-1.1,1.1l-1.1,1.1h-1.1l-1.3,1.1v1.3h-1.1l-1.1,1.1l-1.1,1.1l-1.3,1.1l-1.1,1.3l-1.1,2.2l-1.1,1.1l-1.2,1.3v1.1l-1.1,1.1v1.1h-1.1l-1.1,2.4v1.1l-1.3,2.3v1.1l-1.1,1.1V314l-1.1,1.1v3.5l-1.1,1.1v17.1l1.1,2.3v3.5l1.1,1.1v2.2l1.1,1.3v1.1l1.3,1.1v2.4h1.1v1.1l1.1,1.1v1.1l1.1,1.3l1.2,1.1v1.1h1.1v1.1l1.1,1.3l1.1,1.1v1.1h1.3l1.1,1.1l1.1,1.2l1.1,1.1l1.3,1.1l2.2,1.1v1.3h1.1l1.3,1.1h1.1v1.1l2.2,1.1H401l2.2,1.3l2.4,1.1h1.1l2.2,1.1h1.2l1.1,1.1h5.7l1.1,1.3h10.5l1.1,-1.3h3.5l2.2,-1.1h3.4v-1.1h3.5v-1.1h2.2v-1.3h1.1l1.3,-1.1h1.1l1.1,-1.1h1.1l1.3,-1.1l1.1,-1.3l1.1,-1.1h1.1l1.3,-1.1v-1.1h1.1l1.1,-1.2l1.1,-1.1l1.3,-1.1l1.1,-1.1l1.1,-1.3v-1.1l1.1,-2.2H465v-1.3l1.2,-1.1v-1.1l1.1,-1.1v-1.3l1.1,-1.1l1.1,-2.2v-1.3l1.3,-2.2v-3.5h1.1v-5.6l1.1,-1.1V323.2l-1.1,-1.3v-4.6l-1.1,-1.1v-3.5l-1.3,-1.1v-2.2l-1.1,-1.2v-1.1L467.3,306v-1.1l-1.1,-1.3v-1.1L465,301.4l-1.1,-1.1L462.8,299v-1.1l-1.1,-1.1v-1.1h-1.1l-1.3,-1.3v-1.1h-1.1l-1.1,-1.1L456,291.1l-1.3,-1.3l-1.1,-1.1h-1.1l-1.1,-1.1v-1.1L449,285.2h-1.1l-1.1,-1.1h-1.3L444.4,283h-1.1l-1.1,-1.1l-2.4,-1.1h-1.1l-2.3,-1.2h-3.3l-2.4,-1.1h-8.1V228Z" class="g3_23"/>
<path fill-rule="evenodd" d="M384.8,235h2.4l1.1,-1.3h2.2l1.3,-1.1H394l1.1,-1.1h2.4l1.1,-1.1h3.5l2.2,-1.1h4.6l2.3,-1.3h11.4v50.5h-7.9l-1.3,1.1h-4.5v1.2h-3.3v1.1h-1.3L384.8,235Z" class="g4_23"/>
<path d="M384.8,235h2.4l1.1,-1.3h2.2l1.3,-1.1H394l1.1,-1.1h2.4l1.1,-1.1h3.5l2.2,-1.1h4.6l2.3,-1.3h11.4v50.5h-7.9l-1.3,1.1h-4.5v1.2h-3.3v1.1h-1.3L384.8,235Z" class="g3_23"/>
<path fill-rule="evenodd" d="M657.4,383.7H717V301.4H657.4v82.3Z" class="g0_23"/>
<path d="M657.4,383.7H717V301.4H657.4v82.3Z" class="g5_23"/>
<path fill-rule="evenodd" d="M673.6,325.4h6.8v-6.8h-6.8v6.8Z" class="g2_23"/>
<path d="M673.6,318.6h6.8v6.8h-6.8Z" class="g3_23"/>
<path fill-rule="evenodd" d="M673.6,365.5h6.8v-6.9h-6.8v6.9Z" class="g4_23"/>
<path d="M673.6,358.6h6.8v6.9h-6.8Z" class="g3_23"/>
<path d="M143.2,434.1H721.6V178.9H143.2V434.1Z" class="g5_23"/>
<path d="M36.7,41.2h4.6V36.7H36.7v4.5Z" class="g6_23"/>
<path d="M36.7,41.2h4.6V36.7H36.7v4.5Z" class="g6_23"/>
<path d="M41.3,41.2H893.7V36.7H41.3v4.5Z" class="g6_23"/>
<path d="M893.7,41.2h4.6V36.7h-4.6v4.5Z" class="g6_23"/>
<path d="M893.7,41.2h4.6V36.7h-4.6v4.5Z" class="g6_23"/>
<path d="M36.7,1168.7h4.6V41.2H36.7V1168.7Z" class="g6_23"/>
<path d="M893.7,1168.7h4.6V41.2h-4.6V1168.7Z" class="g6_23"/>
<path d="M36.7,1173.2h4.6v-4.5H36.7v4.5Z" class="g6_23"/>
<path d="M36.7,1173.2h4.6v-4.5H36.7v4.5Z" class="g6_23"/>
<path d="M41.3,1173.2H893.7v-4.5H41.3v4.5Z" class="g6_23"/>
<path d="M893.7,1173.2h4.6v-4.5h-4.6v4.5Z" class="g6_23"/>
<path d="M893.7,1173.2h4.6v-4.5h-4.6v4.5Z" class="g6_23"/>
</svg>