<?xml version="1.0" encoding="UTF-8" standalone="no"?>
<!DOCTYPE svg PUBLIC "-//W3C//DTD SVG 1.1//EN"
"http://www.w3.org/Graphics/SVG/1.1/DTD/svg11.dtd">
<svg viewBox="0 0 935 1210" version="1.1" xmlns="http://www.w3.org/2000/svg" xmlns:xlink="http://www.w3.org/1999/xlink">
<defs>
<style type="text/css"><![CDATA[
.g0_24{
fill: #FFF;
}
.g1_24{
fill: none;
stroke: #000;
stroke-width: 1.145;
stroke-linecap: round;
stroke-linejoin: round;
}
.g2_24{
fill: #99F;
}
.g3_24{
fill: #993365;
}
.g4_24{
fill: none;
stroke: #000;
stroke-width: 0.183;
stroke-linecap: round;
stroke-linejoin: round;
}
.g5_24{
fill: #000;
}
]]></style>
</defs>
<path fill-rule="evenodd" d="M143.2,417.8H715.9V115.5H143.2V417.8Z" class="g0_24"/>
<path d="M143.2,417.8H715.9V115.5H143.2V417.8Z" class="g1_24"/>
<path fill-rule="evenodd" d="M368.9,196.7h11.4l2.3,1.3h4.6l3.3,1.1h1.3l3.3,1.1h2.4l1.1,1.1l3.5,1.3h1.1l3.5,2.2h1.1l2.3,1.1l2.2,1.2l2.4,1.1l2.2,1.1l2.4,1.1l2.2,2.4h1.1l2.4,1.1l2.2,2.4l1.3,1.1l2.2,2.2l2.4,1.3l1.1,1.1l2.2,2.2l1.2,1.3l2.2,2.2l1.1,1.1l2.4,2.4l1.1,1.1l1.1,2.3l2.4,2.2v1.1l2.2,3.5l1.3,1.1l1.1,1.3l1.1,3.3l1.1,1.3l1.3,3.3l1.1,1.1l1.1,3.5l1.1,1.1v2.4l1.3,2.2l1.1,2.3v3.5l1.1,1.1v2.2l1.1,2.4v2.2l1.2,3.5v7l1.1,1.1v12.6l-1.1,3.3v7l-1.2,3.5v2.2l-1.1,3.4l-1.1,2.2V325l-1.1,1.1v1.3l-1.3,3.3l-1.1,2.4l-1.1,2.2l-1.1,2.4l-1.3,2.2l-1.1,2.4l-1.1,1.1l-1.1,3.4l-1.3,1.1l-2.2,2.4v2.2l-1.1,1.1l-2.4,2.4l-1.1,1.1l-2.4,2.4l-1.1,2.2l-2.2,2.4l-1.2,1.1l-1.1,1.1l-2.2,2.4l-2.4,1.1l-2.2,2.1l-1.3,1.3h-1.1l-3.5,2.2l-1.1,1.1l-2.2,2.4h-2.4l-2.2,2.2h-2.4l-1.1,1.1l-3.4,1.3l-1.1,1.1l-3.5,1.1l-1.1,1.1h-2.4l-2.2,1.3h-2.4l-3.3,1.1l-1.3,1.1h-4.6l-2.2,1.1h-4.5l-3.5,1.3H361.9l-2.2,-1.3h-4.5l-3.5,-1.1h-4.6l-2.2,-1.1h-1.3l-3.3,-1.1h-2.4l-2.2,-1.3l-2.4,-1.1h-1.1l-3.4,-2.2h-1.1l-3.5,-2.4h-1.1l-3.5,-2.2h-1.1l-1.1,-1.1l-3.5,-2.4l-1.1,-1.1l-2.4,-1.1l-2.2,-1.3l-1.3,-1.1l-2.2,-2.1l-1.1,-1.3l-2.3,-2.2l-1.1,-1.1l-2.4,-2.4l-1.1,-2.2l-1.1,-1.3L293.2,356l-1.1,-1.1l-2.2,-2.4l-1.3,-2.2L287.5,349l-1.1,-2.2l-1.1,-2.3l-2.4,-2.2v-2.4l-2.2,-2.2v-2.4l-1.3,-1.1l-1.1,-3.5l-1.1,-1.1l-1.1,-3.5V325l-1.2,-2.2v-3.5l-1.1,-1.1v-3.4l-1.1,-1.1v-5.9l-1.1,-1.1V283.8l1.1,-3.5V277l1.1,-3.5v-1.1l1.1,-3.5v-3.5l1.2,-3.4l1.1,-1.1l1.1,-3.5l1.1,-1.1l1.3,-3.5v-1.1l1.1,-2.2l1.1,-2.4l1.1,-2.2l2.4,-2.4v-1.1l1.1,-2.2l2.4,-2.4l1.1,-1.1l2.2,-3.4l1.3,-1.1l2.2,-2.4l1.1,-1.1l1.3,-1.1l2.2,-2.4l1.1,-1.1l2.3,-2.2l1.1,-1.3l1.1,-1.1l3.5,-2.2l1.1,-1.3l2.4,-2.2H315l3.5,-2.4l1.1,-1.1l2.4,-1.1l2.2,-1.1l1.1,-1.2l3.5,-1.1h2.3l1.1,-1.1l3.5,-1.1l1.1,-1.3l3.5,-1.1h1.1l3.5,-1.1h3.3l3.5,-1.1h1.1l3.5,-1.3h2.3l4.6,49.3h-3.5l-1.1,1.1h-3.4l-1.1,1.3h-2.4l-1.1,1.1h-1.1l-2.4,1.1l-2.2,1.1l-1.3,1.1l-1.1,1.3h-1.1l-1.1,1.1H339l-1.1,1.1v1.1h-1.1l-1.1,1.3v1.1l-1.3,1.1h-1.1V262l-1.1,1.2l-1.1,1.1l-1.2,1.1l-1.1,1.1v1.3l-1.1,1.1l-1.1,1.1v1.1l-1.3,1.3v1.1l-1.1,2.2l-1.1,2.4v2.2l-1.1,1.3v2.2l-1.3,2.4v15.9l1.3,1.1v3.5l1.1,2.4v1.1l1.1,1.1v3.5h1.1v1.1l1.3,1.1v1.2l1.1,1.1v1.1l1.1,1.1v1.3h1.1l1.2,1.1V325l1.1,1.1l1.1,1.3l1.1,1.1l1.3,1.1l1.1,1.1l1.1,1.3l1.1,1.1l2.4,1.1l1.1,1.1l1.1,1.3h1.3l1.1,1.1h1.1l1.1,1.1h1.3l1.1,1.1h1.1l2.4,1.3h3.3v1.1h5.8l1.1,1.1h9.2l1.1,-1.1h4.6l1.1,-1.1h2.3l1.1,-1.3h2.2l1.3,-1.1h1.1l1.1,-1.1h1.1l2.4,-1.1l2.2,-1.3v-1.1h1.3l1.1,-1.1h1.1l1.1,-1.1v-1.3l1.3,-1.1h1.1v-1.1l1.1,-1.1h1.1l1.3,-1.3V325l1.1,-1.1l1.1,-1.1l1.1,-2.4l1.2,-1.1v-1.1l1.1,-1.2v-1.1l1.1,-1.1v-1.1l1.1,-1.3v-2.2l1.3,-1.1v-2.4l1.1,-1.1V301l1.1,-1.1V289.5l-1.1,-2.2v-4.6l-1.1,-1.1v-2.4l-1.3,-1.1v-2.4h-1.1v-2.2h-1.1v-2.4h-1.1v-2.2h-1.2v-1.1l-1.1,-1.3v-1.1l-1.1,-1.1h-1.1v-1.1L404.3,262l-1.1,-1.1l-1.1,-1.1L401,258.7l-1.3,-1.3l-1.1,-1.1l-1.1,-1.1l-1.1,-1.1h-1.3l-2.2,-1.3v-1.1h-2.4v-1.1h-1.1l-1.1,-1.1h-2.4l-1.1,-1.1h-2.2l-1.2,-1.3h-3.3L376.8,246h-7.9V196.7Z" class="g2_24"/>
<path d="M368.9,196.7h11.4l2.3,1.3h4.6l3.3,1.1h1.3l3.3,1.1h2.4l1.1,1.1l3.5,1.3h1.1l3.5,2.2h1.1l2.3,1.1l2.2,1.2l2.4,1.1l2.2,1.1l2.4,1.1l2.2,2.4h1.1l2.4,1.1l2.2,2.4l1.3,1.1l2.2,2.2l2.4,1.3l1.1,1.1l2.2,2.2l1.2,1.3l2.2,2.2l1.1,1.1l2.4,2.4l1.1,1.1l1.1,2.3l2.4,2.2v1.1l2.2,3.5l1.3,1.1l1.1,1.3l1.1,3.3l1.1,1.3l1.3,3.3l1.1,1.1l1.1,3.5l1.1,1.1v2.4l1.3,2.2l1.1,2.3v3.5l1.1,1.1v2.2l1.1,2.4v2.2l1.2,3.5v7l1.1,1.1v12.6l-1.1,3.3v7l-1.2,3.5v2.2l-1.1,3.4l-1.1,2.2V325l-1.1,1.1v1.3l-1.3,3.3l-1.1,2.4l-1.1,2.2l-1.1,2.4l-1.3,2.2l-1.1,2.4l-1.1,1.1l-1.1,3.4l-1.3,1.1l-2.2,2.4v2.2l-1.1,1.1l-2.4,2.4l-1.1,1.1l-2.4,2.4l-1.1,2.2l-2.2,2.4l-1.2,1.1l-1.1,1.1l-2.2,2.4l-2.4,1.1l-2.2,2.1l-1.3,1.3h-1.1l-3.5,2.2l-1.1,1.1l-2.2,2.4h-2.4l-2.2,2.2h-2.4l-1.1,1.1l-3.4,1.3l-1.1,1.1l-3.5,1.1l-1.1,1.1h-2.4l-2.2,1.3h-2.4l-3.3,1.1l-1.3,1.1h-4.6l-2.2,1.1h-4.5l-3.5,1.3H361.9l-2.2,-1.3h-4.5l-3.5,-1.1h-4.6l-2.2,-1.1h-1.3l-3.3,-1.1h-2.4l-2.2,-1.3l-2.4,-1.1h-1.1l-3.4,-2.2h-1.1l-3.5,-2.4h-1.1l-3.5,-2.2h-1.1l-1.1,-1.1l-3.5,-2.4l-1.1,-1.1l-2.4,-1.1l-2.2,-1.3l-1.3,-1.1l-2.2,-2.1l-1.1,-1.3l-2.3,-2.2l-1.1,-1.1l-2.4,-2.4l-1.1,-2.2l-1.1,-1.3L293.2,356l-1.1,-1.1l-2.2,-2.4l-1.3,-2.2L287.5,349l-1.1,-2.2l-1.1,-2.3l-2.4,-2.2v-2.4l-2.2,-2.2v-2.4l-1.3,-1.1l-1.1,-3.5l-1.1,-1.1l-1.1,-3.5V325l-1.2,-2.2v-3.5l-1.1,-1.1v-3.4l-1.1,-1.1v-5.9l-1.1,-1.1V283.8l1.1,-3.5V277l1.1,-3.5v-1.1l1.1,-3.5v-3.5l1.2,-3.4l1.1,-1.1l1.1,-3.5l1.1,-1.1l1.3,-3.5v-1.1l1.1,-2.2l1.1,-2.4l1.1,-2.2l2.4,-2.4v-1.1l1.1,-2.2l2.4,-2.4l1.1,-1.1l2.2,-3.4l1.3,-1.1l2.2,-2.4l1.1,-1.1l1.3,-1.1l2.2,-2.4l1.1,-1.1l2.3,-2.2l1.1,-1.3l1.1,-1.1l3.5,-2.2l1.1,-1.3l2.4,-2.2H315l3.5,-2.4l1.1,-1.1l2.4,-1.1l2.2,-1.1l1.1,-1.2l3.5,-1.1h2.3l1.1,-1.1l3.5,-1.1l1.1,-1.3l3.5,-1.1h1.1l3.5,-1.1h3.3l3.5,-1.1h1.1l3.5,-1.3h2.3l4.6,49.3h-3.5l-1.1,1.1h-3.4l-1.1,1.3h-2.4l-1.1,1.1h-1.1l-2.4,1.1l-2.2,1.1l-1.3,1.1l-1.1,1.3h-1.1l-1.1,1.1H339l-1.1,1.1v1.1h-1.1l-1.1,1.3v1.1l-1.3,1.1h-1.1V262l-1.1,1.2l-1.1,1.1l-1.2,1.1l-1.1,1.1v1.3l-1.1,1.1l-1.1,1.1v1.1l-1.3,1.3v1.1l-1.1,2.2l-1.1,2.4v2.2l-1.1,1.3v2.2l-1.3,2.4v15.9l1.3,1.1v3.5l1.1,2.4v1.1l1.1,1.1v3.5h1.1v1.1l1.3,1.1v1.2l1.1,1.1v1.1l1.1,1.1v1.3h1.1l1.2,1.1V325l1.1,1.1l1.1,1.3l1.1,1.1l1.3,1.1l1.1,1.1l1.1,1.3l1.1,1.1l2.4,1.1l1.1,1.1l1.1,1.3h1.3l1.1,1.1h1.1l1.1,1.1h1.3l1.1,1.1h1.1l2.4,1.3h3.3v1.1h5.8l1.1,1.1h9.2l1.1,-1.1h4.6l1.1,-1.1h2.3l1.1,-1.3h2.2l1.3,-1.1h1.1l1.1,-1.1h1.1l2.4,-1.1l2.2,-1.3v-1.1h1.3l1.1,-1.1h1.1l1.1,-1.1v-1.3l1.3,-1.1h1.1v-1.1l1.1,-1.1h1.1l1.3,-1.3V325l1.1,-1.1l1.1,-1.1l1.1,-2.4l1.2,-1.1v-1.1l1.1,-1.2v-1.1l1.1,-1.1v-1.1l1.1,-1.3v-2.2l1.3,-1.1v-2.4l1.1,-1.1V301l1.1,-1.1V289.5l-1.1,-2.2v-4.6l-1.1,-1.1v-2.4l-1.3,-1.1v-2.4h-1.1v-2.2h-1.1v-2.4h-1.1v-2.2h-1.2v-1.1l-1.1,-1.3v-1.1l-1.1,-1.1h-1.1v-1.1L404.3,262l-1.1,-1.1l-1.1,-1.1L401,258.7l-1.3,-1.3l-1.1,-1.1l-1.1,-1.1l-1.1,-1.1h-1.3l-2.2,-1.3v-1.1h-2.4v-1.1h-1.1l-1.1,-1.1h-2.4l-1.1,-1.1h-2.2l-1.2,-1.3h-3.3L376.8,246h-7.9V196.7Z" class="g1_24"/>
<path fill-rule="evenodd" d="M358.6,196.7h10.3V246h-5.7l-4.6,-49.3Z" class="g3_24"/>
<path d="M358.6,196.7h10.3V246h-5.7l-4.6,-49.3Z" class="g1_24"/>
<path fill-rule="evenodd" d="M587.6,317H711.3V272.4H587.6V317Z" class="g0_24"/>
<path d="M587.6,317H711.3V272.4H587.6V317Z" class="g4_24"/>
<path fill-rule="evenodd" d="M599.1,286.2h6.8v-7h-6.8v7Z" class="g2_24"/>
<path d="M599.1,286.2h6.8v-7h-6.8v7Z" class="g1_24"/>
<path fill-rule="evenodd" d="M599.1,307.8h6.8V301h-6.8v6.8Z" class="g3_24"/>
<path d="M599.1,307.8h6.8V301h-6.8v6.8Zm-455.9,110H715.9V115.5H143.2V417.8Z" class="g1_24"/>
<path d="M36.7,41.2h4.6V36.7H36.7v4.5Z" class="g5_24"/>
<path d="M36.7,41.2h4.6V36.7H36.7v4.5Z" class="g5_24"/>
<path d="M41.3,41.2H893.7V36.7H41.3v4.5Z" class="g5_24"/>
<path d="M893.7,41.2h4.6V36.7h-4.6v4.5Z" class="g5_24"/>
<path d="M893.7,41.2h4.6V36.7h-4.6v4.5Z" class="g5_24"/>
<path d="M36.7,1168.7h4.6V41.2H36.7V1168.7Z" class="g5_24"/>
<path d="M893.7,1168.7h4.6V41.2h-4.6V1168.7Z" class="g5_24"/>
<path d="M36.7,1173.2h4.6v-4.5H36.7v4.5Z" class="g5_24"/>
<path d="M36.7,1173.2h4.6v-4.5H36.7v4.5Z" class="g5_24"/>
<path d="M41.3,1173.2H893.7v-4.5H41.3v4.5Z" class="g5_24"/>
<path d="M893.7,1173.2h4.6v-4.5h-4.6v4.5Z" class="g5_24"/>
<path d="M893.7,1173.2h4.6v-4.5h-4.6v4.5Z" class="g5_24"/>
</svg>