<?xml version="1.0" encoding="UTF-8" standalone="no"?>
<!DOCTYPE svg PUBLIC "-//W3C//DTD SVG 1.1//EN"
"http://www.w3.org/Graphics/SVG/1.1/DTD/svg11.dtd">
<svg viewBox="0 0 935 1210" version="1.1" xmlns="http://www.w3.org/2000/svg" xmlns:xlink="http://www.w3.org/1999/xlink">
<defs>
<style type="text/css"><![CDATA[
.g0_25{
fill: #FFF;
}
.g1_25{
fill: none;
stroke: #000;
stroke-width: 0.183;
stroke-miterlimit: 10;
}
.g2_25{
fill: #99F;
}
.g3_25{
fill: none;
stroke: #000;
stroke-width: 1.145;
stroke-linecap: round;
stroke-linejoin: round;
}
.g4_25{
fill: #993365;
}
.g5_25{
fill: none;
stroke: #000;
stroke-width: 0.183;
stroke-linecap: round;
stroke-linejoin: round;
}
.g6_25{
fill: #000;
}
]]></style>
</defs>
<path fill-rule="evenodd" d="M143.2,505.8H725.1V210.5H143.2V505.8Z" class="g0_25"/>
<path d="M143.2,505.8H725.1V210.5H143.2V505.8Z" class="g1_25"/>
<path fill-rule="evenodd" d="M437.6,282.5h12.5l3.5,1.3h3.5l2.2,1.1h3.5l2.3,1.1h1.1l2.2,1.1l3.5,1.3H473l2.4,1.1h1.1l2.4,1.1l3.3,1.1l1.3,1.1l2.2,1.2l1.1,1.1l3.5,1.1l1.1,1.1l2.3,1.3l1.1,1.1l3.5,1.1l1.1,1.1l1.1,1.3l1.3,1.1l3.3,2.2l1.3,1.3l1.1,2.2l1.1,1.1l2.4,1.3l2.2,2.2l1.1,1.1l1.3,1.3l1.1,2.2l2.2,2.3l1.2,1.1l1.1,2.2l1.1,1.3l2.4,3.3l1.1,1.3l1.1,1.1L528,334l1.3,2.4l1.1,2.2l1.1,1.3v2.2l2.4,3.5v1.1L535,349l1.1,1.1v2.2l1.1,3.5l1.3,1.1v2.4l1.1,1.1v3.5l1.1,2.2v3.5l1.1,3.5v5.6l1.3,3.5V396l-1.3,1.1v8l-1.1,1.1v2.2l-1.1,3.5v3.5l-1.1,2.2l-1.3,3.5v1.1l-1.1,2.4v1.1L535,428l-1.1,3.3l-1.3,1.3l-1.1,2.2v1.1l-2.2,3.5l-1.3,2.4v1.1l-1.1,1.1l-2.2,3.5l-1.3,1.1l-1.1,2.2l-1.1,1.3l-2.3,2.2l-1.1,2.3l-1.1,1.1l-1.1,1.1l-1.3,1.1l-2.2,3.5l-1.1,1.1l-2.4,1.3l-1.1,1.1l-2.4,2.2l-1.1,1.3l-2.2,1.1l-1.3,1.1l-2.2,2.4l-2.4,1.1l-1.1,1.1l-1.1,1.1l-3.4,1.3l-2.2,1.1l-1.3,1.1l-1.1,1.1l-3.5,1.2l-2.2,1.1h-1.1l-2.4,1.1l-1.1,1.1l-3.5,1.3h-2.2l-1.3,1.1h-2.2l-3.4,1.1h-2.2l-1.3,1.1h-2.2l-3.5,1.3h-5.7l-3.5,1.1H429.6l-1.1,-1.1h-8.1L419.3,492h-3.5l-2.4,-1.1h-3.3l-3.4,-1.1l-2.4,-1.1h-1.1L401,487.4h-1.1l-3.5,-2.2H394l-1.1,-1.1l-2.2,-1.2l-2.4,-1.1l-2.2,-1.1l-1.3,-1.1h-2.2l-2.3,-2.4l-2.2,-1.1L377,475l-1.3,-1.3l-3.3,-2.2l-1.3,-1.1L370,469.1L367.8,468l-1.3,-1.1l-2.2,-2.4l-1.1,-1.1l-1.3,-1.1l-2.2,-2.4l-2.3,-2.2l-1.1,-1.1l-1.1,-2.3l-1.1,-1.1l-2.4,-2.4l-1.1,-2.2l-1.1,-1.1v-1.3l-2.4,-3.3L346,441.8l-1.1,-2.4v-1.1l-1.3,-2.4l-2.2,-3.3v-1.3l-1.1,-2.2L339,428l-1.1,-3.4v-2.4l-1.1,-1.1v-2.2l-1.1,-3.5l-1.3,-1.1v-4.6l-1.1,-3.5v-3.5l-1.1,-1.1V375.2l1.1,-2.1v-4.6l1.1,-2.4v-3.3l1.3,-3.5l1.1,-2.4v-1.1l1.1,-2.2v-1.3L339,349l1.3,-2.3l1.1,-1.1v-2.4l2.2,-3.3l1.3,-1.3v-2.2l1.1,-1.1l2.2,-3.5l1.3,-1.1v-1.3l1.1,-2.2l2.2,-2.4l1.3,-2.2l1.1,-1.1l41.2,33.2v1.1h-1.1l-1.3,2.4l-1.1,1.1v1.1l-1.1,1.1v1.3h-1.1v1.1l-1.3,2.2l-1.1,1.3v2.2l-1.1,1.1v2.4l-1.1,2.1v2.4l-1.3,2.2v17.3l1.3,2.2v2.3l1.1,2.2v1.3l1.1,1.1v2.2l1.1,1.3v1.1l1.3,1.1V413l1.1,1.3v1.1l1.1,2.2H394v1.3l1.3,1.1l1.1,1.1v1.1h1.1v1.3l1.1,1.1l1.3,1.1l1.1,1.1l1.1,1.2h1.1v1.1h1.1v1.1l2.4,1.1l1.1,1.3h1.1l1.2,1.1l1.1,1.1h1.1l2.4,1.1l1.1,1.3h1.1l1.1,1.1h3.5v1.1H425v1.1h5.7l2.4,1.3h7.8l2.4,-1.3H449l1.1,-1.1h2.4l1.1,-1.1H456l1.1,-1.1h1.1l2.4,-1.3h1.1v-1.1h2.2l1.2,-1.1l1.1,-1.1l1.1,-1.3l1.1,-1.1h1.3l1.1,-1.1L473,428v-1.2h1.3v-1.1l1.1,-1.1l1.1,-1.1l1.1,-1.3l1.3,-2.2H480v-1.1l1.1,-1.3l1.1,-1.1v-1.1h1.3v-1.1l1.1,-2.4v-1.1l1.1,-1.1v-1.3l1.1,-1.1v-2.2l1.3,-2.4v-2.1h1.1v-7l1.1,-1.1v-9.2l-1.1,-1.1v-5.9l-1.1,-2.2v-1l-1.3,-1.3v-2.2l-1.1,-1.1v-2.4L484.6,365v-1.1l-1.1,-1.1l-1.3,-2.4l-1.1,-1.1v-1.1L480,356.9l-1.1,-1.1l-1.3,-1.1l-1.1,-1.1v-1.3h-1.1v-1.1l-1.1,-1.1L473,349l-1.1,-1.2h-1.1l-1.1,-1.1l-1.3,-1.1l-1.1,-1.1l-1.1,-1.3h-1.1l-1.2,-1.1L461.7,341l-1.1,-1.1h-1.3l-1.1,-1.3h-3.5v-1.1h-3.3v-1.1h-3.5l-1.1,-1.1h-9.2V282.5Z" class="g2_25"/>
<path d="M437.6,282.5h12.5l3.5,1.3h3.5l2.2,1.1h3.5l2.3,1.1h1.1l2.2,1.1l3.5,1.3H473l2.4,1.1h1.1l2.4,1.1l3.3,1.1l1.3,1.1l2.2,1.2l1.1,1.1l3.5,1.1l1.1,1.1l2.3,1.3l1.1,1.1l3.5,1.1l1.1,1.1l1.1,1.3l1.3,1.1l3.3,2.2l1.3,1.3l1.1,2.2l1.1,1.1l2.4,1.3l2.2,2.2l1.1,1.1l1.3,1.3l1.1,2.2l2.2,2.3l1.2,1.1l1.1,2.2l1.1,1.3l2.4,3.3l1.1,1.3l1.1,1.1L528,334l1.3,2.4l1.1,2.2l1.1,1.3v2.2l2.4,3.5v1.1L535,349l1.1,1.1v2.2l1.1,3.5l1.3,1.1v2.4l1.1,1.1v3.5l1.1,2.2v3.5l1.1,3.5v5.6l1.3,3.5V396l-1.3,1.1v8l-1.1,1.1v2.2l-1.1,3.5v3.5l-1.1,2.2l-1.3,3.5v1.1l-1.1,2.4v1.1L535,428l-1.1,3.3l-1.3,1.3l-1.1,2.2v1.1l-2.2,3.5l-1.3,2.4v1.1l-1.1,1.1l-2.2,3.5l-1.3,1.1l-1.1,2.2l-1.1,1.3l-2.3,2.2l-1.1,2.3l-1.1,1.1l-1.1,1.1l-1.3,1.1l-2.2,3.5l-1.1,1.1l-2.4,1.3l-1.1,1.1l-2.4,2.2l-1.1,1.3l-2.2,1.1l-1.3,1.1l-2.2,2.4l-2.4,1.1l-1.1,1.1l-1.1,1.1l-3.4,1.3l-2.2,1.1l-1.3,1.1l-1.1,1.1l-3.5,1.2l-2.2,1.1h-1.1l-2.4,1.1l-1.1,1.1l-3.5,1.3h-2.2l-1.3,1.1h-2.2l-3.4,1.1h-2.2l-1.3,1.1h-2.2l-3.5,1.3h-5.7l-3.5,1.1H429.6l-1.1,-1.1h-8.1L419.3,492h-3.5l-2.4,-1.1h-3.3l-3.4,-1.1l-2.4,-1.1h-1.1L401,487.4h-1.1l-3.5,-2.2H394l-1.1,-1.1l-2.2,-1.2l-2.4,-1.1l-2.2,-1.1l-1.3,-1.1h-2.2l-2.3,-2.4l-2.2,-1.1L377,475l-1.3,-1.3l-3.3,-2.2l-1.3,-1.1L370,469.1L367.8,468l-1.3,-1.1l-2.2,-2.4l-1.1,-1.1l-1.3,-1.1l-2.2,-2.4l-2.3,-2.2l-1.1,-1.1l-1.1,-2.3l-1.1,-1.1l-2.4,-2.4l-1.1,-2.2l-1.1,-1.1v-1.3l-2.4,-3.3L346,441.8l-1.1,-2.4v-1.1l-1.3,-2.4l-2.2,-3.3v-1.3l-1.1,-2.2L339,428l-1.1,-3.4v-2.4l-1.1,-1.1v-2.2l-1.1,-3.5l-1.3,-1.1v-4.6l-1.1,-3.5v-3.5l-1.1,-1.1V375.2l1.1,-2.1v-4.6l1.1,-2.4v-3.3l1.3,-3.5l1.1,-2.4v-1.1l1.1,-2.2v-1.3L339,349l1.3,-2.3l1.1,-1.1v-2.4l2.2,-3.3l1.3,-1.3v-2.2l1.1,-1.1l2.2,-3.5l1.3,-1.1v-1.3l1.1,-2.2l2.2,-2.4l1.3,-2.2l1.1,-1.1l41.2,33.2v1.1h-1.1l-1.3,2.4l-1.1,1.1v1.1l-1.1,1.1v1.3h-1.1v1.1l-1.3,2.2l-1.1,1.3v2.2l-1.1,1.1v2.4l-1.1,2.1v2.4l-1.3,2.2v17.3l1.3,2.2v2.3l1.1,2.2v1.3l1.1,1.1v2.2l1.1,1.3v1.1l1.3,1.1V413l1.1,1.3v1.1l1.1,2.2H394v1.3l1.3,1.1l1.1,1.1v1.1h1.1v1.3l1.1,1.1l1.3,1.1l1.1,1.1l1.1,1.2h1.1v1.1h1.1v1.1l2.4,1.1l1.1,1.3h1.1l1.2,1.1l1.1,1.1h1.1l2.4,1.1l1.1,1.3h1.1l1.1,1.1h3.5v1.1H425v1.1h5.7l2.4,1.3h7.8l2.4,-1.3H449l1.1,-1.1h2.4l1.1,-1.1H456l1.1,-1.1h1.1l2.4,-1.3h1.1v-1.1h2.2l1.2,-1.1l1.1,-1.1l1.1,-1.3l1.1,-1.1h1.3l1.1,-1.1L473,428v-1.2h1.3v-1.1l1.1,-1.1l1.1,-1.1l1.1,-1.3l1.3,-2.2H480v-1.1l1.1,-1.3l1.1,-1.1v-1.1h1.3v-1.1l1.1,-2.4v-1.1l1.1,-1.1v-1.3l1.1,-1.1v-2.2l1.3,-2.4v-2.1h1.1v-7l1.1,-1.1v-9.2l-1.1,-1.1v-5.9l-1.1,-2.2v-1l-1.3,-1.3v-2.2l-1.1,-1.1v-2.4L484.6,365v-1.1l-1.1,-1.1l-1.3,-2.4l-1.1,-1.1v-1.1L480,356.9l-1.1,-1.1l-1.3,-1.1l-1.1,-1.1v-1.3h-1.1v-1.1l-1.1,-1.1L473,349l-1.1,-1.2h-1.1l-1.1,-1.1l-1.3,-1.1l-1.1,-1.1l-1.1,-1.3h-1.1l-1.2,-1.1L461.7,341l-1.1,-1.1h-1.3l-1.1,-1.3h-3.5v-1.1h-3.3v-1.1h-3.5l-1.1,-1.1h-9.2V282.5Z" class="g3_25"/>
<path fill-rule="evenodd" d="M355.2,321.5l1.1,-1.2l1.1,-1.1l1.2,-2.2l1.1,-1.3l2.2,-1.1l1.3,-1.1l1.1,-1.1l1.1,-1.3l1.1,-1.1l1.3,-2.2l2.2,-1.3l1.1,-1.1l1.3,-1.1l1.1,-1.1l2.2,-1.3l1.3,-1.1h1.1l2.2,-1.1l1.2,-1.1l1.1,-1.3l2.2,-1.1l1.3,-1.1h2.2l1.1,-1.1l1.3,-1.2l2.2,-1.1H394l2.4,-1.1l1.1,-1.1h2.4l1.1,-1.1h2.2l1.1,-1.3h2.4l1.1,-1.1h2.3l1.1,-1.1h4.6l1.1,-1.1h5.7l2.4,-1.3h12.6v52.8h-9.1l-1.3,1.1h-3.3l-1.3,1.1h-2.2l-1.1,1.1h-2.4l-1.1,1.3h-1.1l-1.3,1.1h-1.1l-1.1,1.1h-1.1l-1.2,1.1l-1.1,1.3h-1.1v1.1h-1.1l-1.3,1.1l-1.1,1.1l-1.1,1.2H401v1.1h-1.1v1.1l-1.3,1.1l-1.1,1.3l-1.1,1.1L355.2,321.5Z" class="g4_25"/>
<path d="M355.2,321.5l1.1,-1.2l1.1,-1.1l1.2,-2.2l1.1,-1.3l2.2,-1.1l1.3,-1.1l1.1,-1.1l1.1,-1.3l1.1,-1.1l1.3,-2.2l2.2,-1.3l1.1,-1.1l1.3,-1.1l1.1,-1.1l2.2,-1.3l1.3,-1.1h1.1l2.2,-1.1l1.2,-1.1l1.1,-1.3l2.2,-1.1l1.3,-1.1h2.2l1.1,-1.1l1.3,-1.2l2.2,-1.1H394l2.4,-1.1l1.1,-1.1h2.4l1.1,-1.1h2.2l1.1,-1.3h2.4l1.1,-1.1h2.3l1.1,-1.1h4.6l1.1,-1.1h5.7l2.4,-1.3h12.6v52.8h-9.1l-1.3,1.1h-3.3l-1.3,1.1h-2.2l-1.1,1.1h-2.4l-1.1,1.3h-1.1l-1.3,1.1h-1.1l-1.1,1.1h-1.1l-1.2,1.1l-1.1,1.3h-1.1v1.1h-1.1l-1.3,1.1l-1.1,1.1l-1.1,1.2H401v1.1h-1.1v1.1l-1.3,1.1l-1.1,1.3l-1.1,1.1L355.2,321.5Z" class="g3_25"/>
<path fill-rule="evenodd" d="M680.4,413h40.1V369.6H680.4V413Z" class="g0_25"/>
<path d="M680.4,413h40.1V369.6H680.4V413Z" class="g5_25"/>
<path fill-rule="evenodd" d="M684.9,384.4h7v-6.8h-7v6.8Z" class="g2_25"/>
<path d="M684.9,384.4h7v-6.8h-7v6.8Z" class="g3_25"/>
<path fill-rule="evenodd" d="M684.9,406.2h7v-6.9h-7v6.9Z" class="g4_25"/>
<path d="M684.9,406.2h7v-6.9h-7v6.9Z" class="g3_25"/>
<path d="M143.2,505.8H725.1V210.5H143.2V505.8Z" class="g5_25"/>
<path d="M36.7,41.2h4.6V36.7H36.7v4.5Z" class="g6_25"/>
<path d="M36.7,41.2h4.6V36.7H36.7v4.5Z" class="g6_25"/>
<path d="M41.3,41.2H893.7V36.7H41.3v4.5Z" class="g6_25"/>
<path d="M893.7,41.2h4.6V36.7h-4.6v4.5Z" class="g6_25"/>
<path d="M893.7,41.2h4.6V36.7h-4.6v4.5Z" class="g6_25"/>
<path d="M36.7,1168.7h4.6V41.2H36.7V1168.7Z" class="g6_25"/>
<path d="M893.7,1168.7h4.6V41.2h-4.6V1168.7Z" class="g6_25"/>
<path d="M36.7,1173.2h4.6v-4.5H36.7v4.5Z" class="g6_25"/>
<path d="M36.7,1173.2h4.6v-4.5H36.7v4.5Z" class="g6_25"/>
<path d="M41.3,1173.2H893.7v-4.5H41.3v4.5Z" class="g6_25"/>
<path d="M893.7,1173.2h4.6v-4.5h-4.6v4.5Z" class="g6_25"/>
<path d="M893.7,1173.2h4.6v-4.5h-4.6v4.5Z" class="g6_25"/>
</svg>