<?xml version="1.0" encoding="UTF-8" standalone="no"?>
<!DOCTYPE svg PUBLIC "-//W3C//DTD SVG 1.1//EN"
"http://www.w3.org/Graphics/SVG/1.1/DTD/svg11.dtd">
<svg viewBox="0 0 935 1210" version="1.1" xmlns="http://www.w3.org/2000/svg" xmlns:xlink="http://www.w3.org/1999/xlink">
<defs>
<style type="text/css"><![CDATA[
.g0_26{
fill: #FFF;
}
.g1_26{
fill: none;
stroke: #000;
stroke-width: 0.183;
stroke-miterlimit: 10;
}
.g2_26{
fill: #99F;
}
.g3_26{
fill: none;
stroke: #000;
stroke-width: 1.145;
stroke-linecap: round;
stroke-linejoin: round;
}
.g4_26{
fill: #993365;
}
.g5_26{
fill: #FFC;
}
.g6_26{
fill: #CFF;
}
.g7_26{
fill: none;
stroke: #000;
stroke-width: 0.183;
stroke-linecap: round;
stroke-linejoin: round;
}
.g8_26{
fill: #000;
}
]]></style>
</defs>
<path fill-rule="evenodd" d="M143.2,442.3H696.5V136.8H143.2V442.3Z" class="g0_26"/>
<path d="M143.2,442.3H696.5V136.8H143.2V442.3Z" class="g1_26"/>
<path fill-rule="evenodd" d="M343.6,195.1h12.7l2.3,1.2h6.8l2.4,1.1H370l1.1,1.1h4.6l2.4,1.1h2.2l1.2,1.1l2.2,1.3h2.4l2.2,1.1l2.4,1.1h1.1l2.2,1.1l2.4,1.3l1.1,1.1l2.4,1.1h2.2l1.1,1.1l2.4,1.3l2.2,1.1l1.2,1.1l2.2,1.1l1.1,1.3l2.4,1.1l1.1,1.1l2.4,1.1l1.1,2.3l2.2,1.1l1.3,1.1l2.2,1.3l1.1,1.1l2.4,2.2l1.1,1.3l1.1,1.1l2.4,2.2l1.1,1.3l1.1,1.1l1.2,2.2l2.2,1.3l1.1,2.2l1.3,1.1l1.1,2.4l1.1,1.1l1.1,2.3l1.3,1.1l1.1,2.2l1.1,2.4l1.1,1.1l1.1,2.4l1.3,1.1l1.1,2.2l1.1,2.4l1.1,1.1L456,266v2.4l1.1,2.2l1.1,1.3l1.1,2.2v2.3l1.3,2.2v1.1L432,290.2l-1.3,-2.4v-1.1l-1.1,-1.1v-2.4l-1.1,-1.1V281l-1.1,-1.3v-2.2l-1.3,-1.1L425,275.2V273l-1.1,-1.1l-1.1,-1.3v-1.1l-1.3,-1.1L420.4,266l-1.1,-1.1l-1.1,-1.1v-1.1l-1.3,-1.3l-1.1,-1.1l-1.1,-1.1l-1.1,-1.1L412.3,257l-1.1,-1.3l-1.1,-2.2L409,252.4l-1.2,-1.3h-1.1L405.6,250l-1.1,-1.1l-1.3,-1.1l-1.1,-1.2L401,245.5l-1.1,-1.1l-1.3,-1.1L396.4,242h-1.1L394,240.9l-1.1,-1.1l-1.1,-1.1h-1.1l-2.4,-1.3l-1.1,-1.1h-1.1l-1.3,-1.1l-2.2,-1.1h-1.1l-1.2,-1.3h-2.2L377,231.7h-1.3l-2.2,-1.1h-1.1l-1.3,-1.1h-3.3l-1.3,-1.3h-3.3l-1.3,-1.1h-5.6L355.2,226H343.6V195.1Z" class="g2_26"/>
<path d="M343.6,195.1h12.6l2.4,1.2h6.8l2.4,1.1H370l1.1,1.1h4.6l2.4,1.1h2.2l1.2,1.1l2.2,1.3h2.4l2.2,1.1l2.4,1.1h1.1l2.2,1.1l2.4,1.3l1.1,1.1l2.4,1.1h2.2l1.1,1.1l2.4,1.3l2.2,1.1l1.2,1.1l2.2,1.1l1.1,1.3l2.4,1.1l1.1,1.1l2.4,1.1l1.1,2.4l2.2,1l1.3,1.1l2.2,1.3l1.1,1.1l2.4,2.2l1.1,1.3l1.1,1.1l2.4,2.2l1.1,1.3l1.1,1.1l1.2,2.2l2.2,1.3l1.1,2.2l1.3,1.1l1.1,2.4l1.1,1.1l1.1,2.3l1.3,1.1l1.1,2.2l1.1,2.4l1.1,1.1l1.1,2.4l1.3,1.1l1.1,2.2l1.1,2.4l1.1,1.1L456,266v2.4l1.1,2.2l1.1,1.3l1.1,2.2v2.3l1.3,2.2v1.1L432,290.2l-1.3,-2.4v-1.1l-1.1,-1.1v-2.4l-1.1,-1.1V281l-1.1,-1.3v-2.2l-1.3,-1.1L425,275.2V273l-1.1,-1.1l-1.1,-1.3v-1.1l-1.3,-1.1L420.4,266l-1.1,-1.1l-1.1,-1.1v-1.1l-1.3,-1.3l-1.1,-1.1l-1.1,-1.1l-1.1,-1.1L412.3,257l-1.1,-1.3l-1.1,-2.2L409,252.4l-1.2,-1.3h-1.1L405.6,250l-1.1,-1.1l-1.3,-1.1l-1.1,-1.2L401,245.5l-1.1,-1.1l-1.3,-1.1L396.4,242h-1.1L394,240.9l-1.1,-1.1l-1.1,-1.1h-1.1l-2.4,-1.3l-1.1,-1.1h-1.1l-1.3,-1.1l-2.2,-1.1h-1.1l-1.2,-1.3h-2.2L377,231.7h-1.3l-2.2,-1.1h-1.1l-1.3,-1.1h-3.3l-1.3,-1.3h-3.3l-1.3,-1.1h-5.7L355.1,226H343.6V195.1Z" class="g3_26"/>
<path fill-rule="evenodd" d="M460.6,279.7l1.1,2.4l1.1,2.2v2.4l1.1,2.2v3.5l1.2,2.4v4.6l1.1,2.2v8l1.1,2.2v12.7l-1.1,2.2v9.1l-1.1,2.4v3.5l-1.2,2.2v4.6l-1.1,2.4v2.2l-1.1,1.1l-1.1,2.4v2.2l-1.3,2.3v1.1l-1.1,2.4l-1.1,2.2l-1.1,2.4v1.1l-1.3,2.2l-1.1,2.4l-1.1,1.1l-1.1,2.4l-1.3,2.2l-1.1,1.1l-1.1,2.4l-1.1,2.1l-1.1,1.1l-1.3,2.4l-1.1,1.1l-1.1,2.4l-1.1,1.1l-1.3,2.2l-1.1,1.3l-2.2,2.2l-1.2,1.1l-1.1,1.3l-1.1,2.2l-2.4,1.1l-1.1,1.3l-1.1,2.2l-2.4,1.1l-1.1,1.3l-2.2,1l-1.3,2.2l-2.2,1.3l-1.1,1.1l-2.4,1.1l-1.1,1.1l-2.4,1.3l-1.1,1.1l-2.2,1.1l-1.2,1.1l-2.2,1.3l-2.4,1.1l-1.1,1.1l-2.2,1.1l-2.4,1.3l-1.1,1.1H394l-2.2,1.1l-1.1,1.1l-2.4,1.3h-2.2l-2.4,1.1h-2.2l-1.2,1.1l-2.2,1.1h-2.4l-7.9,-29.7h1.1l2.2,-1.1h1.3l1.1,-1.3h2.2l1.3,-1.1h1.1l2.2,-1.1h1.2l1.1,-1.1h2.2l1.3,-1.3l1.1,-1.1h1.1l2.4,-1.1l1.1,-1.1l1.1,-1.3H394l1.3,-1.1l1.1,-1.1l2.2,-1.1l1.3,-1.3H401l1.1,-1.1l1.1,-1.1l1.3,-1.1l1.1,-1.3l1.1,-1.1l1.1,-1.1l1.2,-1l1.1,-1.3l1.1,-1.1l1.1,-1.1l1.3,-1.1l1.1,-1.1l1.1,-1.3l1.1,-1.1l1.3,-2.2v-1.3l1.1,-1.1l1.1,-1.1l1.1,-1.1l1.3,-1.3v-2.2l1.1,-1.1l1.1,-1.3v-1.1l1.1,-1.1l1.3,-2.3v-1.1l1.1,-1.1v-2.4l1.1,-1.1V352l1.1,-2.4v-1.1l1.3,-1.1V345l1.1,-1.1v-3.5l1.1,-1.1v-3.5l1.1,-1.1v-8l1.2,-2.2V311.8l-1.2,-1.1v-8l-1.1,-2.2v-2.4l-1.1,-2.2v-3.5L432,291.3v-1.1l28.6,-10.5Z" class="g4_26"/>
<path d="M460.6,279.7l1.1,2.4l1.1,2.2v2.4l1.1,2.2v3.5l1.2,2.4v4.6l1.1,2.2v8l1.1,2.2v12.7l-1.1,2.2v9.1l-1.1,2.4v3.5l-1.2,2.2v4.6l-1.1,2.4v2.2l-1.1,1.1l-1.1,2.4v2.2l-1.3,2.3v1.1l-1.1,2.4l-1.1,2.2l-1.1,2.4v1.1l-1.3,2.2l-1.1,2.4l-1.1,1.1l-1.1,2.4l-1.3,2.2l-1.1,1.1l-1.1,2.3l-1.1,2.3l-1.1,1.1l-1.3,2.3l-1.1,1.1l-1.1,2.4l-1.1,1.1l-1.3,2.2l-1.1,1.3l-2.2,2.2l-1.2,1.1l-1.1,1.3l-1.1,2.2l-2.4,1.1l-1.1,1.3l-1.1,2.2l-2.4,1.1l-1.1,1.2l-2.2,1.1l-1.3,2.2l-2.2,1.3l-1.1,1.1l-2.4,1.1l-1.1,1.1l-2.4,1.3l-1.1,1.1l-2.2,1.1l-1.2,1.1l-2.2,1.3l-2.4,1.1l-1.1,1.1l-2.2,1.1l-2.4,1.3l-1.1,1.1H394l-2.2,1.1l-1.1,1.1l-2.4,1.3h-2.2l-2.4,1.1h-2.2l-1.2,1.1l-2.2,1.1h-2.4l-7.9,-29.7h1.1l2.2,-1.1h1.3l1.1,-1.3h2.2l1.3,-1.1h1.1l2.2,-1.1h1.2l1.1,-1.1h2.2l1.3,-1.3l1.1,-1.1h1.1l2.4,-1.1l1.1,-1.1l1.1,-1.3H394l1.3,-1.1l1.1,-1.1l2.2,-1.1l1.3,-1.3H401l1.1,-1.1l1.1,-1.1l1.3,-1.1l1.1,-1.2l1.1,-1.1l1.1,-1.1L409,384l1.1,-1.2l1.1,-1.1l1.1,-1.1l1.3,-1.1l1.1,-1.1l1.1,-1.3l1.1,-1.1l1.3,-2.2v-1.3l1.1,-1.1l1.1,-1.1l1.1,-1.1l1.3,-1.3v-2.2l1.1,-1.1l1.1,-1.3v-1.1l1.1,-1.1l1.3,-2.3v-1.1l1.1,-1.1v-2.4l1.1,-1.1V352l1.1,-2.4v-1.1l1.3,-1.1V345l1.1,-1.1v-3.5l1.1,-1.1v-3.5l1.1,-1.1v-8l1.2,-2.2V311.8l-1.2,-1.1v-8l-1.1,-2.2v-2.4l-1.1,-2.2v-3.5L432,291.3v-1.1l28.6,-10.5Z" class="g3_26"/>
<path fill-rule="evenodd" d="M375.7,437.8l-2.2,1.2H370l-2.2,1.1h-4.6l-2.4,1.1h-8l-2.2,1.1H337.9l-2.2,-1.1h-9.1l-2.4,-1.1h-3.5L318.5,439h-4.6l-2.4,-1.2h-1.1l-2.2,-1.1l-2.4,-1.1h-2.2l-2.3,-1.1h-1.1l-2.4,-1.3l-2.2,-1.1L294.5,431h-2.4l-2.2,-1.1l-2.4,-1.3l-1.1,-1.1L284,426.4l-2.2,-1.1L280.7,424l-2.4,-1.1l-1.1,-1.1l-2.3,-1.1l-1.1,-1.3l-2.2,-1.1l-1.3,-1.1l-2.2,-1.1L267,414.8l-2.4,-2.2l-1.1,-1l-2.4,-1.3L260,409.2L258.9,407l-2.4,-1.3l-1.1,-1.1l-1.1,-2.2l-2.4,-1.3L250.8,400l-1.1,-2.2l-1.1,-1.3l-1.2,-2.2l-2.2,-1.1l-1.1,-2.4l-1.3,-1.1l-1.1,-2.4l-1.1,-1.1l26.4,-17l1.1,1.1v1.1l1.1,1.1l1.1,1.3l1.3,2.2l1.1,1.1l1.1,1.3v1.1l1.1,1.1l1.2,1.1l1.1,1.1l1.1,1.3l1.1,1l1.3,1.1l1.1,1.1l1.1,1.3l2.4,1.1l1.1,1.1l1.1,1.1h1.1l1.3,1.3l1.1,1.1l1.1,1.1l1.1,1.1h2.4l1.1,1.3l1.1,1.1l1.3,1.1h1.1l2.2,1.1l1.2,1.3h1.1l2.2,1.1h1.3l1.1,1.1h1.1l2.4,1.1h1.1L315,407h2.4l1.1,1.1H322l1.1,1.1h3.5l1.1,1.1h8l2.2,1.3h12.7l1.1,-1.3h8l2.2,-1.1h2.4l2.2,-1.1h1.3l7.9,29.7Z" class="g5_26"/>
<path d="M375.7,437.8l-2.2,1.2H370l-2.2,1.1h-4.6l-2.4,1.1h-8l-2.2,1.1H337.9l-2.2,-1.1h-9.1l-2.4,-1.1h-3.5L318.5,439h-4.6l-2.4,-1.2h-1.1l-2.2,-1.1l-2.4,-1.1h-2.2l-2.3,-1.1h-1.1l-2.4,-1.3l-2.2,-1.1L294.5,431h-2.4l-2.2,-1.1l-2.4,-1.3l-1.1,-1.1L284,426.4l-2.2,-1.1L280.7,424l-2.4,-1.1l-1.1,-1.1l-2.3,-1.1l-1.1,-1.3l-2.2,-1.1l-1.3,-1.1l-2.2,-1.1L267,414.8l-2.4,-2.2l-1.1,-1.1l-2.4,-1.2L260,409.2L258.9,407l-2.4,-1.3l-1.1,-1.1l-1.1,-2.2l-2.4,-1.3L250.8,400l-1.1,-2.2l-1.1,-1.3l-1.2,-2.2l-2.2,-1.1l-1.1,-2.4l-1.3,-1.1l-1.1,-2.3l-1.1,-1.1L267,369.2l1.1,1.1v1.1l1.1,1.1l1.1,1.3l1.3,2.2l1.1,1.1l1.1,1.3v1.1l1.1,1.1l1.2,1.1l1.1,1.1l1.1,1.2l1.1,1.2l1.3,1.1l1.1,1.1l1.1,1.2l2.4,1.1l1.1,1.1l1.1,1.1h1.1l1.3,1.3l1.1,1.1l1.1,1.1l1.1,1.1h2.4l1.1,1.3l1.1,1.1l1.3,1.1h1.1l2.2,1.1l1.2,1.3h1.1l2.2,1.1h1.3l1.1,1.1h1.1l2.4,1.1h1.1L315,407h2.4l1.1,1.1H322l1.1,1.1h3.5l1.1,1.1h8l2.2,1.2h12.7l1.1,-1.2h8l2.2,-1.1h2.4l2.2,-1.1h1.3l7.9,29.7Z" class="g3_26"/>
<path fill-rule="evenodd" d="M240.6,386.2l-1.1,-2.1l-1.3,-2.4l-1.1,-1.1L236,378.4L234.9,376l-1.3,-1.1v-2.4l-1.1,-2.2l-1.1,-1.1l-1.1,-2.4v-2.2L229,362.2l-1.1,-1.1v-2.3l-1.1,-2.2l-1.1,-2.4v-1.1l-1.3,-2.2v-4.6l-1.1,-2.4v-2.2l-1.1,-1.3v-6.8l-1.1,-2.3V305l1.1,-1.1V297l1.1,-2.2v-2.4l1.1,-2.2v-3.5l1.3,-2.4v-2.2l1.1,-2.4l1.1,-1.1v-2.2l1.1,-2.3l1.3,-2.2v-1.3l1.1,-2.2l1.1,-2.4l1.1,-2.2v-1.1l1.3,-2.4l1.1,-2.2l1.1,-1.1l1.1,-2.4l1.3,-1.1l1.1,-2.4l1.1,-2.2l1.1,-1.1l1.3,-2.3l1.1,-1.1l2.2,-2.4l1.2,-1.1l1.1,-2.2l1.1,-1.3l1.1,-2.2l2.4,-1.1l1.1,-1.3l1.1,-2.2l2.4,-1.1l1.1,-1.3l1.1,-2.2l2.4,-1.1l1.1,-1.3l2.4,-1.1l1.1,-1.1l2.2,-2.3l1.3,-1.1l2.2,-1.1l1.1,-1.1l2.3,-1.3l1.1,-1.1l2.4,-1.1l1.1,-1.1l2.2,-1.3l2.4,-1.1h1.1l2.4,-1.1l2.2,-1.1l2.4,-1.3l1.1,-1.1h2.2l2.4,-1.1l1.1,-1.1h2.3l2.2,-1.3l2.4,-1.1h2.2l1.1,-1.1h4.6l2.4,-1.1h2.2l2.4,-1.1h5.7l2.3,-1.2h12.5V226H332.2l-1.1,1.1h-4.5l-1.3,1.1H322l-2.4,1.3h-2.2l-2.4,1.1h-1.1l-1.1,1.1h-2.4l-1.1,1.1h-1.1l-1.3,1.3h-2.2l-1.1,1.1l-1.2,1.1h-2.2l-1.1,1.1l-1.3,1.3h-1.1l-1.1,1.1l-2.4,1.1l-1.1,1.1H291l-1.1,1.3l-1.3,1.1l-1.1,1.1l-1.1,1.1l-1.1,1.2l-2.4,1.1l-1.1,1.1l-1.1,1.1h-1.3l-1.1,1.3l-1.1,1.1l-1.1,2.2l-1.2,1.3l-1.1,1.1v1.1l-1.1,1.1l-1.1,1.1l-1.3,1.3l-1.1,1.1l-1.1,1.1V266l-1.1,2.4l-1.3,1.1l-1.1,1.1v1.3l-1.1,1.1l-1.1,2.2v1.2l-1.3,1.1l-1.1,2.2V281l-1.1,1.1v1.1l-1.1,2.4v1.1l-1.3,1.1v2.4l-1.1,1.1v1.1l-1.1,2.4v4.6l-1.1,1.1V305l-1.3,2.2v23l1.3,1.1v4.5l1.1,2.4v4.6l1.1,1.1V345l1.1,2.4v1.1l1.3,1.1V352l1.1,1.1v1.1l1.1,2.4v1.1l1.1,1.1l1.3,2.3v1.1l1.1,1.1l1.1,1.3v1.1l1.1,2.2l1.3,1.3l-26.4,17Z" class="g6_26"/>
<path d="M240.6,386.3L239.5,384l-1.3,-2.3l-1.1,-1.1L236,378.4L234.9,376l-1.3,-1.1v-2.4l-1.1,-2.2l-1.1,-1.1l-1.1,-2.4v-2.2L229,362.2l-1.1,-1.1v-2.3l-1.1,-2.2l-1.1,-2.4v-1.1l-1.3,-2.2v-4.6l-1.1,-2.4v-2.2l-1.1,-1.3v-6.8l-1.1,-2.3V305l1.1,-1.1V297l1.1,-2.2v-2.4l1.1,-2.2v-3.5l1.3,-2.4v-2.2l1.1,-2.4l1.1,-1.1v-2.2l1.1,-2.3l1.3,-2.2v-1.3l1.1,-2.2l1.1,-2.4l1.1,-2.2v-1.1l1.3,-2.4l1.1,-2.2l1.1,-1.1l1.1,-2.4l1.3,-1.1l1.1,-2.4l1.1,-2.2l1.1,-1.1l1.3,-2.3l1.1,-1.1l2.2,-2.4l1.2,-1.1l1.1,-2.2l1.1,-1.3l1.1,-2.2l2.4,-1.1l1.1,-1.3l1.1,-2.2l2.4,-1.1l1.1,-1.3l1.1,-2.2l2.4,-1.1l1.1,-1.3l2.4,-1.1l1.1,-1l2.2,-2.4l1.3,-1.1l2.2,-1.1l1.1,-1.1l2.3,-1.3l1.1,-1.1l2.4,-1.1l1.1,-1.1l2.2,-1.3l2.4,-1.1h1.1l2.4,-1.1l2.2,-1.1l2.4,-1.3l1.1,-1.1h2.2l2.4,-1.1l1.1,-1.1h2.3l2.2,-1.3l2.4,-1.1h2.2l1.1,-1.1h4.6l2.4,-1.1h2.2l2.4,-1.1h5.7l2.3,-1.2h12.5V226H332.2l-1.1,1.1h-4.5l-1.3,1.1H322l-2.4,1.3h-2.2l-2.4,1.1h-1.1l-1.1,1.1h-2.4l-1.1,1.1h-1.1l-1.3,1.3h-2.2l-1.1,1.1l-1.2,1.1h-2.2l-1.1,1.1l-1.3,1.3h-1.1l-1.1,1.1l-2.4,1.1l-1.1,1.1H291l-1.1,1.3l-1.3,1.1l-1.1,1.1l-1.1,1.1l-1.1,1.2l-2.4,1.1l-1.1,1.1l-1.1,1.1h-1.3l-1.1,1.3l-1.1,1.1l-1.1,2.2l-1.2,1.3l-1.1,1.1v1.1l-1.1,1.1l-1.1,1.1l-1.3,1.3l-1.1,1.1l-1.1,1.1V266l-1.1,2.4l-1.3,1.1l-1.1,1.1v1.3l-1.1,1.1l-1.1,2.2v1.2l-1.3,1.1l-1.1,2.2V281l-1.1,1.1v1.1l-1.1,2.4v1.1l-1.3,1.1v2.4l-1.1,1.1v1.1l-1.1,2.4v4.6l-1.1,1.1V305l-1.3,2.2v23l1.3,1.1v4.5l1.1,2.4v4.6l1.1,1.1V345l1.1,2.4v1.1l1.3,1.1V352l1.1,1.1v1.1l1.1,2.4v1.1l1.1,1.1l1.3,2.3v1.1l1.1,1.1l1.1,1.3v1.1l1.1,2.2l1.3,1.3l-26.4,17.1Z" class="g3_26"/>
<path fill-rule="evenodd" d="M507.5,394.3H691.9v-151H507.5v151Z" class="g0_26"/>
<path d="M507.5,394.3H691.9v-151H507.5v151Z" class="g7_26"/>
<path fill-rule="evenodd" d="M512.1,258.1h6.8v-7h-6.8v7Z" class="g2_26"/>
<path d="M512.1,251.1h6.8v7h-6.8Z" class="g3_26"/>
<path fill-rule="evenodd" d="M512.1,295.9h6.8v-7h-6.8v7Z" class="g4_26"/>
<path d="M512.1,288.9h6.8v7h-6.8Z" class="g3_26"/>
<path fill-rule="evenodd" d="M512.1,333.6h6.8v-6.9h-6.8v6.9Z" class="g5_26"/>
<path d="M512.1,326.7h6.8v6.9h-6.8Z" class="g3_26"/>
<path fill-rule="evenodd" d="M512.1,371.4h6.8v-6.8h-6.8v6.8Z" class="g6_26"/>
<path d="M512.1,364.6h6.8v6.8h-6.8Z" class="g3_26"/>
<path d="M143.2,442.3H696.5V136.8H143.2V442.3Z" class="g7_26"/>
<path d="M36.7,41.2h4.6V36.7H36.7v4.5Z" class="g8_26"/>
<path d="M36.7,41.2h4.6V36.7H36.7v4.5Z" class="g8_26"/>
<path d="M41.3,41.2H893.7V36.7H41.3v4.5Z" class="g8_26"/>
<path d="M893.7,41.2h4.6V36.7h-4.6v4.5Z" class="g8_26"/>
<path d="M893.7,41.2h4.6V36.7h-4.6v4.5Z" class="g8_26"/>
<path d="M36.7,1168.7h4.6V41.2H36.7V1168.7Z" class="g8_26"/>
<path d="M893.7,1168.7h4.6V41.2h-4.6V1168.7Z" class="g8_26"/>
<path d="M36.7,1173.2h4.6v-4.5H36.7v4.5Z" class="g8_26"/>
<path d="M36.7,1173.2h4.6v-4.5H36.7v4.5Z" class="g8_26"/>
<path d="M41.3,1173.2H893.7v-4.5H41.3v4.5Z" class="g8_26"/>
<path d="M893.7,1173.2h4.6v-4.5h-4.6v4.5Z" class="g8_26"/>
<path d="M893.7,1173.2h4.6v-4.5h-4.6v4.5Z" class="g8_26"/>
</svg>