<?xml version="1.0" encoding="UTF-8" standalone="no"?>
<!DOCTYPE svg PUBLIC "-//W3C//DTD SVG 1.1//EN"
"http://www.w3.org/Graphics/SVG/1.1/DTD/svg11.dtd">
<svg viewBox="0 0 935 1210" version="1.1" xmlns="http://www.w3.org/2000/svg" xmlns:xlink="http://www.w3.org/1999/xlink">
<defs>
<style type="text/css"><![CDATA[
.g0_27{
fill: #FFF;
}
.g1_27{
fill: none;
stroke: #000;
stroke-width: 1.221;
stroke-linecap: round;
stroke-linejoin: round;
}
.g2_27{
fill: #99F;
}
.g3_27{
fill: #993365;
}
.g4_27{
fill: #FFC;
}
.g5_27{
fill: #CFF;
}
.g6_27{
fill: #650065;
}
.g7_27{
fill: #FF8080;
}
.g8_27{
fill: #0065CC;
}
.g9_27{
fill: none;
stroke: #000;
stroke-width: 0.183;
stroke-linecap: round;
stroke-linejoin: round;
}
.ga_27{
fill: #000;
}
]]></style>
</defs>
<path fill-rule="evenodd" d="M143.6,668.9H680v-386H143.6v386Z" class="g0_27"/>
<path d="M143.6,668.9H680v-386H143.6v386Z" class="g1_27"/>
<path fill-rule="evenodd" d="M326.9,314.6h14.7l2.4,1.3h4.9l2.4,1.1h5l3.6,1.2h2.4l2.4,1.3h2.6l2.3,1.1l2.4,1.3h1.3l2.4,1.3l2.5,1.1h2.4l2.4,1.3l2.6,1.3L388,328l2.3,1.2l2.6,1.3l2.4,1.1l1.3,1.3l2.4,1.3l2.3,1.1l2.6,1.3l2.4,1.3l1.3,1.1l2.4,1.2l2.3,2.4l1.3,1.3l2.4,1.3l2.6,1.1l1.1,2.6l2.5,1.1l1.1,1.2l2.6,2.4l1.1,1.3l2.6,2.4l1.1,1.3l2.5,2.4l1.1,1.2l2.6,2.4l1.1,1.3l1.3,2.4l2.4,2.5l1.3,1.1l1.2,2.6l1.1,2.4l1.3,1.3l2.4,2.4l1.3,2.3l1.3,2.6l1.1,1.1l1.3,2.6l1.2,2.4l1.1,2.3l1.3,2.6l1.3,2.4v2.4l1.1,2.5l1.3,1.1l1.3,2.6l1.1,2.4v2.4l1.3,2.5l1.2,2.4v2.4l1.1,2.6v2.4l1.3,2.3v2.6l1.3,2.4v6l1.1,2.6v9.7l1.3,2.4v16l-1.3,2.3v9.9l-1.1,2.4v5l-1.3,2.4v2.3l-1.3,2.6v2.4l-1.1,2.4v2.5l-1.2,2.4l-1.3,2.4v2.6l-1.1,2.4l-1.3,2.3l-1.3,2.6l-15.8,-7.3l1.1,-1.3l1.3,-2.4v-2.6l1.3,-1.1l1.1,-2.5v-2.4l1.3,-2.4v-1.3l1.3,-2.4v-4.9l1.1,-2.4v-3.7l1.3,-2.5v-8.5l1.2,-2.5V453.9L454,451.5v-8.6l-1.3,-2.4v-4.9l-1.1,-2.4v-3.7l-1.3,-2.6v-2.3L449,422.2v-1.3l-1.1,-2.4l-1.3,-2.6v-2.3l-1.3,-1.3l-1.1,-2.4v-2.4L443,406.2l-1.3,-2.4l-1.1,-2.5l-1.3,-1.1v-2.6L438,395.2l-1.1,-1.3l-1.3,-2.3l-1.3,-1.3l-1.1,-2.4L432,386.6l-1.3,-2.4l-1.1,-1.3L427,380.6l-1.1,-1.3l-1.3,-2.4l-1.3,-1.3l-1.1,-1.1L421,371.9l-2.4,-1.1l-1.3,-1.2L416,367.2l-2.4,-1.3l-1.3,-1.3l-1.1,-1.1L408.7,361l-1.1,-1.1L405,358.6l-1.1,-1.3l-2.6,-1.1l-1.1,-1.3l-2.5,-1.3l-1.1,-1.1L394,351.2L392.9,350l-2.6,-1.1l-1.1,-1.3l-2.5,-1.3l-2.4,-1.1L383,343.9h-2.4l-2.4,-1.3L377,341.5l-2.4,-1.3H372L370.9,339l-2.5,-1.1H366l-2.4,-1.3h-1.3l-2.4,-1.3h-2.5L355,334.2h-3.7l-2.4,-1.3h-6.2l-2.4,-1.3H326.9v-17Z" class="g2_27"/>
<path d="M326.9,314.6h14.7l2.4,1.3h4.9l2.4,1.1h5l3.6,1.2h2.4l2.4,1.3h2.6l2.3,1.1l2.4,1.3h1.3l2.4,1.3l2.5,1.1h2.4l2.4,1.3l2.6,1.3L388,328l2.3,1.2l2.6,1.3l2.4,1.1l1.3,1.3l2.4,1.3l2.3,1.1l2.6,1.3l2.4,1.3l1.3,1.1l2.4,1.2l2.3,2.4l1.3,1.3l2.4,1.3l2.6,1.1l1.1,2.6l2.5,1.1l1.1,1.2l2.6,2.4l1.1,1.3l2.6,2.4l1.1,1.3l2.5,2.4l1.1,1.2l2.6,2.4l1.1,1.3l1.3,2.4l2.4,2.5l1.3,1.1l1.2,2.6l1.1,2.4l1.3,1.3l2.4,2.4l1.3,2.3l1.3,2.6l1.1,1.1l1.3,2.6l1.2,2.4l1.1,2.3l1.3,2.6l1.3,2.4v2.4l1.1,2.5l1.3,1.1l1.3,2.6l1.1,2.4v2.4l1.3,2.5l1.2,2.4v2.4l1.1,2.6v2.4l1.3,2.3v2.6l1.3,2.4v6l1.1,2.6v9.7l1.3,2.4v16l-1.3,2.3v9.9l-1.1,2.4v5l-1.3,2.4v2.3l-1.3,2.6v2.4l-1.1,2.4v2.5l-1.2,2.4l-1.3,2.4v2.6l-1.1,2.4l-1.3,2.3l-1.3,2.6l-15.8,-7.3l1.1,-1.3l1.3,-2.4v-2.6l1.3,-1.1l1.1,-2.5v-2.4l1.3,-2.4v-1.3l1.3,-2.4v-4.9l1.1,-2.4v-3.7l1.3,-2.5v-8.5l1.2,-2.5V453.9L454,451.5v-8.6l-1.3,-2.4v-4.9l-1.1,-2.4v-3.7l-1.3,-2.6v-2.3L449,422.2v-1.3l-1.1,-2.4l-1.3,-2.6v-2.3l-1.3,-1.3l-1.1,-2.4v-2.4L443,406.2l-1.3,-2.4l-1.1,-2.5l-1.3,-1.1v-2.6L438,395.2l-1.1,-1.3l-1.3,-2.3l-1.3,-1.3l-1.1,-2.4L432,386.6l-1.3,-2.4l-1.1,-1.3L427,380.6l-1.1,-1.3l-1.3,-2.4l-1.3,-1.3l-1.1,-1.1L421,371.9l-2.4,-1.1l-1.3,-1.2L416,367.2l-2.4,-1.3l-1.3,-1.3l-1.1,-1.1L408.7,361l-1.1,-1.1L405,358.6l-1.1,-1.3l-2.6,-1.1l-1.1,-1.3l-2.5,-1.3l-1.1,-1.1L394,351.2L392.9,350l-2.6,-1.1l-1.1,-1.3l-2.5,-1.3l-2.4,-1.1L383,343.9h-2.4l-2.4,-1.3L377,341.5l-2.4,-1.3H372L370.9,339l-2.5,-1.1H366l-2.4,-1.3h-1.3l-2.4,-1.3h-2.5L355,334.2h-3.7l-2.4,-1.3h-6.2l-2.4,-1.3H326.9v-17Z" class="g1_27"/>
<path fill-rule="evenodd" d="M460,517.5l-1.1,2.4v2.4l-1.3,2.5l-1.3,2.4l-1.1,1.3l-1.2,2.4l-1.3,2.4l-1.1,2.5l-1.3,2.4l-1.3,1.3l-2.4,2.4l-1.3,2.4l-1.1,1.3l-1.2,2.3l-1.3,2.6l-2.4,1.1l-1.3,2.6l-1.1,2.4l-2.6,1.2l-1.1,2.4l-2.5,1.3l-1.1,2.4l-2.6,1.3l-1.1,2.4l-2.6,1.2l-1.1,1.1l-2.5,2.6l-1.1,1.1l-2.6,1.3l-2.4,2.4l-1.3,1.3l-2.3,1.2l-2.4,1.1l-1.3,1.3l-2.4,2.4l-2.6,1.3l-2.3,1.3l-2.4,1.1l-1.3,1.3l-2.4,1.1l-2.6,1.2l-2.3,1.3h-2.4l-2.6,1.1l-2.4,1.3l-2.4,1.3l-2.5,1.1h-2.4l-1.3,1.3l-2.4,1.2h-2.3l-2.6,1.1h-2.4l-2.4,1.3h-3.6l-2.6,1.3h-4.8l-2.5,1.1h-9.8l-2.3,1.3H319.6l-3.7,-1.3H306l-2.4,-1.1h-4.9l-2.4,-1.3h-2.4l-2.5,-1.3H289l-2.4,-1.1h-2.4l-2.6,-1.2L279.3,598h-2.4l-2.6,-1.1l-2.4,-1.3l-2.4,-1.3L267,593.2h-2.4l-1.3,-1.3l-2.4,-1.2l-2.4,-1.1L256,588.3l-2.4,-1.1l-2.4,-1.3l-1.3,-1.3l8.6,-14.7l2.4,1.3l1.3,1.3l2.4,1.1h1.3l2.4,1.3l2.3,1.3l1.3,1.1l2.4,1.3h2.6l1.1,1.2l2.5,1.1h2.4l2.4,1.3l1.3,1.3H289l2.4,1.1h2.5l1.1,1.3h5l2.4,1.3H306l2.6,1.1H317l2.6,1.3H333l2.4,-1.3H344l2.4,-1.1h4.9l2.4,-1.3h3.7l2.5,-1.3h2.4l1.3,-1.1H366l2.4,-1.3l2.5,-1.3H372l2.6,-1.1l2.4,-1.2h1.2l2.4,-1.3l2.4,-1.1l1.3,-1.3l2.4,-1.3h2.5l1.1,-1.1l2.6,-1.3l1.1,-1.3l2.6,-1.1l1.1,-1.2l2.5,-1.3l1.1,-1.1l2.6,-1.3l1.1,-2.4l2.6,-1.3l1.1,-1.3l2.5,-1.1l1.1,-1.2l1.3,-2.4l2.4,-1.3l1.3,-1.3l1.3,-1.1l2.4,-2.6l1.2,-1.1l1.1,-2.5l1.3,-1.1l1.3,-1.3l1.1,-2.4l2.6,-1.3l1.1,-2.4l1.3,-1.2l1.2,-2.4l1.1,-1.3l1.3,-2.4l1.3,-1.3l1.1,-2.4l1.3,-2.5v-1.1l1.3,-2.6l1.1,-2.4l1.3,-1.3l1.2,-2.3v-2.4l15.8,7.3Z" class="g3_27"/>
<path d="M460,517.5l-1.1,2.4v2.4l-1.3,2.5l-1.3,2.4l-1.1,1.3l-1.2,2.4l-1.3,2.4l-1.1,2.5l-1.3,2.4l-1.3,1.3l-2.4,2.4l-1.3,2.4l-1.1,1.3l-1.2,2.3l-1.3,2.6l-2.4,1.1l-1.3,2.6l-1.1,2.4l-2.6,1.2l-1.1,2.4l-2.5,1.3l-1.1,2.4l-2.6,1.3l-1.1,2.4l-2.6,1.2l-1.1,1.1l-2.5,2.6l-1.1,1.1l-2.6,1.3l-2.4,2.4l-1.3,1.3l-2.3,1.2l-2.4,1.1l-1.3,1.3l-2.4,2.4l-2.6,1.3l-2.3,1.3l-2.4,1.1l-1.3,1.3l-2.4,1.1l-2.6,1.2l-2.3,1.3h-2.4l-2.6,1.1l-2.4,1.3l-2.4,1.3l-2.5,1.1h-2.4l-1.3,1.3l-2.4,1.2h-2.3l-2.6,1.1h-2.4l-2.4,1.3h-3.6l-2.6,1.3h-4.8l-2.5,1.1h-9.8l-2.3,1.3H319.6l-3.7,-1.3H306l-2.4,-1.1h-4.9l-2.4,-1.3h-2.4l-2.5,-1.3H289l-2.4,-1.1h-2.4l-2.6,-1.2L279.3,598h-2.4l-2.6,-1.1l-2.4,-1.3l-2.4,-1.3L267,593.2h-2.4l-1.3,-1.3l-2.4,-1.2l-2.4,-1.1L256,588.3l-2.4,-1.1l-2.4,-1.3l-1.3,-1.3l8.6,-14.7l2.4,1.3l1.3,1.3l2.4,1.1h1.3l2.4,1.3l2.3,1.3l1.3,1.1l2.4,1.3h2.6l1.1,1.2l2.5,1.1h2.4l2.4,1.3l1.3,1.3H289l2.4,1.1h2.5l1.1,1.3h5l2.4,1.3H306l2.6,1.1H317l2.6,1.3H333l2.4,-1.3H344l2.4,-1.1h4.9l2.4,-1.3h3.7l2.5,-1.3h2.4l1.3,-1.1H366l2.4,-1.3l2.5,-1.3H372l2.6,-1.1l2.4,-1.2h1.2l2.4,-1.3l2.4,-1.1l1.3,-1.3l2.4,-1.3h2.5l1.1,-1.1l2.6,-1.3l1.1,-1.3l2.6,-1.1l1.1,-1.2l2.5,-1.3l1.1,-1.1l2.6,-1.3l1.1,-2.4l2.6,-1.3l1.1,-1.3l2.5,-1.1l1.1,-1.2l1.3,-2.4l2.4,-1.3l1.3,-1.3l1.3,-1.1l2.4,-2.6l1.2,-1.1l1.1,-2.5l1.3,-1.1l1.3,-1.3l1.1,-2.4l2.6,-1.3l1.1,-2.4l1.3,-1.2l1.2,-2.4l1.1,-1.3l1.3,-2.4l1.3,-1.3l1.1,-2.4l1.3,-2.5v-1.1l1.3,-2.6l1.1,-2.4l1.3,-1.3l1.2,-2.3v-2.4l15.8,7.3Z" class="g1_27"/>
<path fill-rule="evenodd" d="M249.9,584.6l-2.4,-2.4L245,580.9l-2.4,-1.1l-1.3,-1.2l-2.4,-1.3l-2.4,-2.4l-1.2,-1.3l-2.4,-1.1l-1.3,-2.6l-2.4,-1.1l-1.3,-1.2l-2.4,-2.4l-1.2,-1.3l-2.4,-2.4l-1.3,-1.3l-2.4,-2.4l-1.3,-1.2l-1.3,-2.4l-2.3,-2.6L212,550.5l-1.1,-2.6l13.4,-9.7l1.2,1.3l1.1,2.4l1.3,1.3l2.4,1.1l1.3,2.5l1.3,1.1l1.1,2.6l2.5,1.1l1.1,1.3l1.3,1.3l1.3,2.4l2.4,1.2l1.3,1.1l2.4,1.3l1.2,1.3l2.4,2.4l1.3,1.3l2.4,1.1l1.3,1.3l2.4,1.2l1.2,1.1l-8.6,14.7Z" class="g4_27"/>
<path d="M249.9,584.6l-2.4,-2.4L245,580.9l-2.4,-1.1l-1.3,-1.2l-2.4,-1.3l-2.4,-2.4l-1.2,-1.3l-2.4,-1.1l-1.3,-2.6l-2.4,-1.1l-1.3,-1.2l-2.4,-2.4l-1.2,-1.3l-2.4,-2.4l-1.3,-1.3l-2.4,-2.4l-1.3,-1.2l-1.3,-2.4l-2.3,-2.6L212,550.5l-1.1,-2.6l13.4,-9.7l1.2,1.3l1.1,2.4l1.3,1.3l2.4,1.1l1.3,2.5l1.3,1.1l1.1,2.6l2.5,1.1l1.1,1.3l1.3,1.3l1.3,2.4l2.4,1.2l1.3,1.1l2.4,1.3l1.2,1.3l2.4,2.4l1.3,1.3l2.4,1.1l1.3,1.3l2.4,1.2l1.2,1.1l-8.6,14.7Z" class="g1_27"/>
<path fill-rule="evenodd" d="M210.9,547.9l-2.6,-2.3l-1.1,-1.3l-1.3,-2.4l-1.3,-2.4l-1.1,-1.3l-1.2,-2.4L201,533.3l-1.1,-2.4l-1.3,-2.4l-1.3,-1.3l-1.1,-2.4l-1.3,-2.5l-1.3,-2.4l-1.1,-2.4l-1.2,-2.6v-2.3L190,510.2l-1.1,-2.6v-2.4l-1.3,-2.4l-1.3,-2.5v-2.4l-1.1,-2.4v-2.6l-1.3,-2.3v-5l-1.3,-2.4v-4.9l-1.1,-2.4V445.3l1.1,-2.4v-5l1.3,-3.6v-4.8l1.3,-2.6v-2.3l1.1,-2.4v-2.6l1.3,-2.4l1.3,-2.4v-2.5l1.1,-2.4l1.3,-2.4v-2.6l1.2,-1.1l1.1,-2.5l1.3,-2.4l1.3,-2.4l14.7,7.3v2.4l-1.3,1.3l-1.3,2.4l-1.1,2.4v1.3l-1.3,2.3l-1.3,2.6v2.4l-1.1,1.3v2.4l-1.2,2.3v2.6l-1.3,2.4v3.7l-1.1,2.3v6.3l-1.3,2.4v26.9l1.3,2.4v7.3l1.1,1.3v4.8l1.3,2.5v2.4l1.2,1.3v2.4l1.1,2.4v2.5l1.3,1.1l1.3,2.6v2.4l1.1,1.3l1.3,2.4l1.3,2.3v1.3l1.1,2.4l1.3,2.6l1.2,1.1l1.1,2.5l1.3,2.4l1.3,1.3l1.1,2.4l1.3,1.3l1.3,2.4l1.1,1.2l1.3,2.4l-13.4,9.7Z" class="g5_27"/>
<path d="M210.9,547.9l-2.6,-2.3l-1.1,-1.3l-1.3,-2.4l-1.3,-2.4l-1.1,-1.3l-1.2,-2.4L201,533.3l-1.1,-2.4l-1.3,-2.4l-1.3,-1.3l-1.1,-2.4l-1.3,-2.5l-1.3,-2.4l-1.1,-2.4l-1.2,-2.6v-2.3L190,510.2l-1.1,-2.6v-2.4l-1.3,-2.4l-1.3,-2.5v-2.4l-1.1,-2.4v-2.6l-1.3,-2.3v-5l-1.3,-2.4v-4.9l-1.1,-2.4V445.3l1.1,-2.4v-5l1.3,-3.6v-4.8l1.3,-2.6v-2.3l1.1,-2.4v-2.6l1.3,-2.4l1.3,-2.4v-2.5l1.1,-2.4l1.3,-2.4v-2.6l1.2,-1.1l1.1,-2.5l1.3,-2.4l1.3,-2.4l14.7,7.3v2.4l-1.3,1.3l-1.3,2.4l-1.1,2.4v1.3l-1.3,2.3l-1.3,2.6v2.4l-1.1,1.3v2.4l-1.2,2.3v2.6l-1.3,2.4v3.7l-1.1,2.3v6.3l-1.3,2.4v26.9l1.3,2.4v7.3l1.1,1.3v4.8l1.3,2.5v2.4l1.2,1.3v2.4l1.1,2.4v2.5l1.3,1.1l1.3,2.6v2.4l1.1,1.3l1.3,2.4l1.3,2.3v1.3l1.1,2.4l1.3,2.6l1.2,1.1l1.1,2.5l1.3,2.4l1.3,1.3l1.1,2.4l1.3,1.3l1.3,2.4l1.1,1.2l1.3,2.4l-13.4,9.7Z" class="g1_27"/>
<path fill-rule="evenodd" d="M196.2,396.5l1.1,-2.6l1.3,-2.3l1.3,-2.4l1.1,-2.6l1.3,-1.1l1.2,-2.6l1.1,-2.3l1.3,-2.4l1.3,-1.3l1.1,-2.4l2.6,-2.6l1.1,-1.1l1.3,-2.5l2.3,-2.4l1.3,-1.3l1.3,-2.4l2.4,-1.2l1.3,-2.4l2.4,-1.3l1.2,-2.4l2.4,-1.3l1.3,-2.4l2.4,-1.2l1.3,-1.1l2.4,-2.6l1.2,-1.1l2.4,-1.3l2.4,-1.3l1.3,-2.4L245,339l2.5,-1.1l2.4,-1.3l1.3,-1.3l2.4,-1.1l2.4,-1.3l2.5,-1.3l2.4,-1.1l2.4,-1.3l1.3,-1.2l2.4,-1.1l2.5,-1.3l2.4,-1.3h2.4l6.2,15.9H278l-1.1,1.3l-2.6,1.1l-2.4,1.3h-1.3l-2.3,1.3l-2.4,1.1l-1.3,1.3l-2.4,1.3l-1.3,1.1l-2.4,1.2l-1.2,1.3l-2.4,1.1l-1.3,1.3l-2.4,1.3l-1.3,1.1l-2.4,1.3l-1.2,1.3l-2.4,1.1l-1.3,2.5l-2.4,1.1l-1.3,1.3l-1.3,1.3l-1.1,2.4l-2.5,1.2l-1.1,1.1l-1.3,2.6l-1.3,1.1l-2.4,1.3l-1.3,2.4l-1.1,1.3l-1.2,2.3l-1.3,1.3l-1.1,2.4l-1.3,1.3l-1.3,2.4l-1.1,1.3l-1.3,2.3l-1.3,1.3l-1.1,2.4l-1.2,2.6l-1.3,1.1l-1.1,2.5l-14.7,-7.3Z" class="g6_27"/>
<path d="M196.2,396.5l1.1,-2.6l1.3,-2.3l1.3,-2.4l1.1,-2.6l1.3,-1.1l1.2,-2.6l1.1,-2.3l1.3,-2.4l1.3,-1.3l1.1,-2.4l2.6,-2.6l1.1,-1.1l1.3,-2.5l2.3,-2.4l1.3,-1.3l1.3,-2.4l2.4,-1.2l1.3,-2.4l2.4,-1.3l1.2,-2.4l2.4,-1.3l1.3,-2.4l2.4,-1.2l1.3,-1.1l2.4,-2.6l1.2,-1.1l2.4,-1.3l2.4,-1.3l1.3,-2.4L245,339l2.5,-1.1l2.4,-1.3l1.3,-1.3l2.4,-1.1l2.4,-1.3l2.5,-1.3l2.4,-1.1l2.4,-1.3l1.3,-1.2l2.4,-1.1l2.5,-1.3l2.4,-1.3h2.4l6.2,15.9H278l-1.1,1.3l-2.6,1.1l-2.4,1.3h-1.3l-2.3,1.3l-2.4,1.1l-1.3,1.3l-2.4,1.3l-1.3,1.1l-2.4,1.2l-1.2,1.3l-2.4,1.1l-1.3,1.3l-2.4,1.3l-1.3,1.1l-2.4,1.3l-1.2,1.3l-2.4,1.1l-1.3,2.5l-2.4,1.1l-1.3,1.3l-1.3,1.3l-1.1,2.4l-2.5,1.2l-1.1,1.1l-1.3,2.6l-1.3,1.1l-2.4,1.3l-1.3,2.4l-1.1,1.3l-1.2,2.3l-1.3,1.3l-1.1,2.4l-1.3,1.3l-1.3,2.4l-1.1,1.3l-1.3,2.3l-1.3,1.3l-1.1,2.4l-1.2,2.6l-1.3,1.1l-1.1,2.5l-14.7,-7.3Z" class="g1_27"/>
<path fill-rule="evenodd" d="M274.3,324.3l2.6,-1.1l2.4,-1.3h2.3l2.6,-1.3l2.4,-1.1H289l2.4,-1.3h2.5l2.4,-1.2h5l2.3,-1.1h5l2.4,17h-6.1l-2.5,1.3h-4.8l-2.6,1.1h-1.1l-2.5,1.3H289l-2.4,1.3h-1.3l-2.4,1.1l-2.4,1.2l-6.2,-15.9Z" class="g7_27"/>
<path d="M274.3,324.3l2.6,-1.1l2.4,-1.3h2.3l2.6,-1.3l2.4,-1.1H289l2.4,-1.3h2.5l2.4,-1.2h5l2.3,-1.1h5l2.4,17h-6.1l-2.5,1.3h-4.8l-2.6,1.1h-1.1l-2.5,1.3H289l-2.4,1.3h-1.3l-2.4,1.1l-2.4,1.2l-6.2,-15.9Z" class="g1_27"/>
<path fill-rule="evenodd" d="M308.6,315.9l2.4,-1.3h15.9v17H313.4l-2.4,1.3l-2.4,-17Z" class="g8_27"/>
<path d="M308.6,315.9l2.4,-1.3h15.9v17H313.4l-2.4,1.3l-2.4,-17Z" class="g1_27"/>
<path fill-rule="evenodd" d="M496.7,668.9H675.2v-386H496.7v386Z" class="g0_27"/>
<path d="M496.7,668.9H675.2v-386H496.7v386Z" class="g9_27"/>
<path fill-rule="evenodd" d="M501.6,298.8H509v-7.3h-7.4v7.3Z" class="g2_27"/>
<path d="M501.6,298.8H509v-7.3h-7.4v7.3Z" class="g1_27"/>
<path fill-rule="evenodd" d="M501.6,356.2H509v-7.3h-7.4v7.3Z" class="g3_27"/>
<path d="M501.6,356.2H509v-7.3h-7.4v7.3Z" class="g1_27"/>
<path fill-rule="evenodd" d="M501.6,413.6H509v-7.4h-7.4v7.4Z" class="g4_27"/>
<path d="M501.6,413.6H509v-7.4h-7.4v7.4Z" class="g1_27"/>
<path fill-rule="evenodd" d="M501.6,470.9H509v-7.3h-7.4v7.3Z" class="g5_27"/>
<path d="M501.6,470.9H509v-7.3h-7.4v7.3Z" class="g1_27"/>
<path fill-rule="evenodd" d="M501.6,528.5H509v-7.3h-7.4v7.3Z" class="g6_27"/>
<path d="M501.6,528.5H509v-7.3h-7.4v7.3Z" class="g1_27"/>
<path fill-rule="evenodd" d="M501.6,585.9H509v-7.3h-7.4v7.3Z" class="g7_27"/>
<path d="M501.6,585.9H509v-7.3h-7.4v7.3Z" class="g1_27"/>
<path fill-rule="evenodd" d="M501.6,643.3H509v-7.4h-7.4v7.4Z" class="g8_27"/>
<path d="M501.6,643.3H509v-7.4h-7.4v7.4Zm-358,25.6H680v-386H143.6v386Z" class="g1_27"/>
<path d="M36.7,41.2h4.6V36.7H36.7v4.5Z" class="ga_27"/>
<path d="M36.7,41.2h4.6V36.7H36.7v4.5Z" class="ga_27"/>
<path d="M41.3,41.2H893.7V36.7H41.3v4.5Z" class="ga_27"/>
<path d="M893.7,41.2h4.6V36.7h-4.6v4.5Z" class="ga_27"/>
<path d="M893.7,41.2h4.6V36.7h-4.6v4.5Z" class="ga_27"/>
<path d="M36.7,1168.7h4.6V41.2H36.7V1168.7Z" class="ga_27"/>
<path d="M893.7,1168.7h4.6V41.2h-4.6V1168.7Z" class="ga_27"/>
<path d="M36.7,1173.2h4.6v-4.5H36.7v4.5Z" class="ga_27"/>
<path d="M36.7,1173.2h4.6v-4.5H36.7v4.5Z" class="ga_27"/>
<path d="M41.3,1173.2H893.7v-4.5H41.3v4.5Z" class="ga_27"/>
<path d="M893.7,1173.2h4.6v-4.5h-4.6v4.5Z" class="ga_27"/>
<path d="M893.7,1173.2h4.6v-4.5h-4.6v4.5Z" class="ga_27"/>
</svg>