<?xml version="1.0" encoding="UTF-8" standalone="no"?>
<!DOCTYPE svg PUBLIC "-//W3C//DTD SVG 1.1//EN"
"http://www.w3.org/Graphics/SVG/1.1/DTD/svg11.dtd">
<svg viewBox="0 0 935 1210" version="1.1" xmlns="http://www.w3.org/2000/svg" xmlns:xlink="http://www.w3.org/1999/xlink">
<defs>
<style type="text/css"><![CDATA[
.g0_34{
fill: #000;
}
.g1_34{
fill: #FFF;
}
.g2_34{
fill: none;
stroke: #000;
stroke-width: 1.145;
stroke-linecap: round;
stroke-miterlimit: 8;
}
]]></style>
</defs>
<path d="M128.9,174h.8v-.8h-.8v.8Z" class="g0_34"/>
<path d="M128.9,174h.8v-.8h-.8v.8Z" class="g0_34"/>
<path d="M129.7,174H265.5v-.8H129.7v.8Z" class="g0_34"/>
<path d="M265.5,174h.7v-.8h-.7v.8Z" class="g0_34"/>
<path d="M266.2,174H413.6v-.8H266.2v.8Z" class="g0_34"/>
<path d="M413.6,174h.8v-.8h-.8v.8Z" class="g0_34"/>
<path d="M414.4,174H546.2v-.8H414.4v.8Z" class="g0_34"/>
<path d="M546.2,174h.7v-.8h-.7v.8Z" class="g0_34"/>
<path d="M546.9,174H685.7v-.8H546.9v.8Z" class="g0_34"/>
<path d="M685.7,174h.7v-.8h-.7v.8Z" class="g0_34"/>
<path d="M686.4,174h119v-.8h-119v.8Z" class="g0_34"/>
<path d="M805.4,174h.7v-.8h-.7v.8Z" class="g0_34"/>
<path d="M805.4,174h.7v-.8h-.7v.8Z" class="g0_34"/>
<path d="M128.9,220.9h.8V174h-.8v46.9Z" class="g0_34"/>
<path d="M265.5,220.9h.7V174h-.7v46.9Z" class="g0_34"/>
<path d="M413.6,220.9h.8V174h-.8v46.9Z" class="g0_34"/>
<path d="M546.2,220.9h.7V174h-.7v46.9Z" class="g0_34"/>
<path d="M685.7,220.9h.7V174h-.7v46.9Z" class="g0_34"/>
<path d="M805.4,220.9h.7V174h-.7v46.9Z" class="g0_34"/>
<path d="M128.9,221.6h.8v-.7h-.8v.7Z" class="g0_34"/>
<path d="M129.7,221.6H265.5v-.7H129.7v.7Z" class="g0_34"/>
<path d="M265.5,221.6h.7v-.7h-.7v.7Z" class="g0_34"/>
<path d="M266.2,221.6H413.6v-.7H266.2v.7Z" class="g0_34"/>
<path d="M413.6,221.6h.8v-.7h-.8v.7Z" class="g0_34"/>
<path d="M414.4,221.6H546.2v-.7H414.4v.7Z" class="g0_34"/>
<path d="M546.2,221.6h.7v-.7h-.7v.7Z" class="g0_34"/>
<path d="M546.9,221.6H685.7v-.7H546.9v.7Z" class="g0_34"/>
<path d="M685.7,221.6h.7v-.7h-.7v.7Z" class="g0_34"/>
<path d="M686.4,221.6h119v-.7h-119v.7Z" class="g0_34"/>
<path d="M805.4,221.6h.7v-.7h-.7v.7Z" class="g0_34"/>
<path d="M128.9,268.6h.8v-47h-.8v47Z" class="g0_34"/>
<path d="M265.5,268.6h.7v-47h-.7v47Z" class="g0_34"/>
<path d="M413.6,268.6h.8v-47h-.8v47Z" class="g0_34"/>
<path d="M546.2,268.6h.7v-47h-.7v47Z" class="g0_34"/>
<path d="M685.7,268.6h.7v-47h-.7v47Z" class="g0_34"/>
<path d="M805.4,268.6h.7v-47h-.7v47Z" class="g0_34"/>
<path d="M128.9,269.3h.8v-.7h-.8v.7Z" class="g0_34"/>
<path d="M129.7,269.3H265.5v-.7H129.7v.7Z" class="g0_34"/>
<path d="M265.5,269.3h.7v-.7h-.7v.7Z" class="g0_34"/>
<path d="M266.2,269.3H413.6v-.7H266.2v.7Z" class="g0_34"/>
<path d="M413.6,269.3h.8v-.7h-.8v.7Z" class="g0_34"/>
<path d="M414.4,269.3H546.2v-.7H414.4v.7Z" class="g0_34"/>
<path d="M546.2,269.3h.7v-.7h-.7v.7Z" class="g0_34"/>
<path d="M546.9,269.3H685.7v-.7H546.9v.7Z" class="g0_34"/>
<path d="M685.7,269.3h.7v-.7h-.7v.7Z" class="g0_34"/>
<path d="M686.4,269.3h119v-.7h-119v.7Z" class="g0_34"/>
<path d="M805.4,269.3h.7v-.7h-.7v.7Z" class="g0_34"/>
<path d="M128.9,316.2h.8V269.3h-.8v46.9Z" class="g0_34"/>
<path d="M265.5,316.2h.7V269.3h-.7v46.9Z" class="g0_34"/>
<path d="M413.6,316.2h.8V269.3h-.8v46.9Z" class="g0_34"/>
<path d="M546.2,316.2h.7V269.3h-.7v46.9Z" class="g0_34"/>
<path d="M685.7,316.2h.7V269.3h-.7v46.9Z" class="g0_34"/>
<path d="M805.4,316.2h.7V269.3h-.7v46.9Z" class="g0_34"/>
<path d="M128.9,317h.8v-.8h-.8v.8Z" class="g0_34"/>
<path d="M129.7,317H265.5v-.8H129.7v.8Z" class="g0_34"/>
<path d="M265.5,317h.7v-.8h-.7v.8Z" class="g0_34"/>
<path d="M266.2,317H413.6v-.8H266.2v.8Z" class="g0_34"/>
<path d="M413.6,317h.8v-.8h-.8v.8Z" class="g0_34"/>
<path d="M414.4,317H546.2v-.8H414.4v.8Z" class="g0_34"/>
<path d="M546.2,317h.7v-.8h-.7v.8Z" class="g0_34"/>
<path d="M546.9,317H685.7v-.8H546.9v.8Z" class="g0_34"/>
<path d="M685.7,317h.7v-.8h-.7v.8Z" class="g0_34"/>
<path d="M686.4,317h119v-.8h-119v.8Z" class="g0_34"/>
<path d="M805.4,317h.7v-.8h-.7v.8Z" class="g0_34"/>
<path d="M128.9,363.9h.8V317h-.8v46.9Z" class="g0_34"/>
<path d="M128.9,364.6h.8v-.7h-.8v.7Z" class="g0_34"/>
<path d="M128.9,364.6h.8v-.7h-.8v.7Z" class="g0_34"/>
<path d="M129.7,364.6H265.5v-.7H129.7v.7Z" class="g0_34"/>
<path d="M265.5,363.9h.7V317h-.7v46.9Z" class="g0_34"/>
<path d="M265.5,364.6h.7v-.7h-.7v.7Z" class="g0_34"/>
<path d="M266.2,364.6H413.6v-.7H266.2v.7Z" class="g0_34"/>
<path d="M413.6,363.9h.8V317h-.8v46.9Z" class="g0_34"/>
<path d="M413.6,364.6h.8v-.7h-.8v.7Z" class="g0_34"/>
<path d="M414.4,364.6H546.2v-.7H414.4v.7Z" class="g0_34"/>
<path d="M546.2,363.9h.7V317h-.7v46.9Z" class="g0_34"/>
<path d="M546.2,364.6h.7v-.7h-.7v.7Z" class="g0_34"/>
<path d="M546.9,364.6H685.7v-.7H546.9v.7Z" class="g0_34"/>
<path d="M685.7,363.9h.7V317h-.7v46.9Z" class="g0_34"/>
<path d="M685.7,364.6h.7v-.7h-.7v.7Z" class="g0_34"/>
<path d="M686.4,364.6h119v-.7h-119v.7Z" class="g0_34"/>
<path d="M805.4,363.9h.7V317h-.7v46.9Z" class="g0_34"/>
<path d="M805.4,364.6h.7v-.7h-.7v.7Z" class="g0_34"/>
<path d="M805.4,364.6h.7v-.7h-.7v.7Z" class="g0_34"/>
<path fill-rule="evenodd" d="M247.5,599.6H275V585.9H247.5v13.7Z" class="g1_34"/>
<path d="M247.5,599.6H275V585.9H247.5v13.7Z" class="g2_34"/>
<path fill-rule="evenodd" d="M412.5,599.6H440V585.9H412.5v13.7Z" class="g1_34"/>
<path d="M412.5,599.6H440V585.9H412.5v13.7Z" class="g2_34"/>
<path fill-rule="evenodd" d="M595.8,599.6h27.5V585.9H595.8v13.7Z" class="g1_34"/>
<path d="M595.8,599.6h27.5V585.9H595.8v13.7Z" class="g2_34"/>
<path fill-rule="evenodd" d="M733.3,599.6h27.5V585.9H733.3v13.7Z" class="g1_34"/>
<path d="M733.3,599.6h27.5V585.9H733.3v13.7Z" class="g2_34"/>
<path fill-rule="evenodd" d="M247.5,444.5H275V430.8H247.5v13.7Z" class="g1_34"/>
<path d="M247.5,444.5H275V430.8H247.5v13.7Z" class="g2_34"/>
<path fill-rule="evenodd" d="M458.4,444.5h27.5V430.8H458.4v13.7Z" class="g1_34"/>
<path d="M458.4,444.5h27.5V430.8H458.4v13.7Z" class="g2_34"/>
<path fill-rule="evenodd" d="M669.2,444.5h27.5V430.8H669.2v13.7Z" class="g1_34"/>
<path d="M669.2,444.5h27.5V430.8H669.2v13.7Z" class="g2_34"/>
<path fill-rule="evenodd" d="M210.9,508.5h27.5V494.8H210.9v13.7Z" class="g1_34"/>
<path d="M210.9,508.5h27.5V494.8H210.9v13.7Z" class="g2_34"/>
<path fill-rule="evenodd" d="M449.2,508.5h27.5V494.8H449.2v13.7Z" class="g1_34"/>
<path d="M449.2,508.5h27.5V494.8H449.2v13.7Z" class="g2_34"/>
<path fill-rule="evenodd" d="M256.7,856.6h27.5V842.9H256.7v13.7Z" class="g1_34"/>
<path d="M256.7,856.6h27.5V842.9H256.7v13.7Z" class="g2_34"/>
<path fill-rule="evenodd" d="M485.9,856.6h27.5V842.9H485.9v13.7Z" class="g1_34"/>
<path d="M485.9,856.6h27.5V842.9H485.9v13.7Z" class="g2_34"/>
<path d="M36.7,41.2h4.6V36.7H36.7v4.5Z" class="g0_34"/>
<path d="M36.7,41.2h4.6V36.7H36.7v4.5Z" class="g0_34"/>
<path d="M41.3,41.2H893.7V36.7H41.3v4.5Z" class="g0_34"/>
<path d="M893.7,41.2h4.6V36.7h-4.6v4.5Z" class="g0_34"/>
<path d="M893.7,41.2h4.6V36.7h-4.6v4.5Z" class="g0_34"/>
<path d="M36.7,1168.7h4.6V41.2H36.7V1168.7Z" class="g0_34"/>
<path d="M893.7,1168.7h4.6V41.2h-4.6V1168.7Z" class="g0_34"/>
<path d="M36.7,1173.2h4.6v-4.5H36.7v4.5Z" class="g0_34"/>
<path d="M36.7,1173.2h4.6v-4.5H36.7v4.5Z" class="g0_34"/>
<path d="M41.3,1173.2H893.7v-4.5H41.3v4.5Z" class="g0_34"/>
<path d="M893.7,1173.2h4.6v-4.5h-4.6v4.5Z" class="g0_34"/>
<path d="M893.7,1173.2h4.6v-4.5h-4.6v4.5Z" class="g0_34"/>
</svg>