<?xml version="1.0" encoding="UTF-8" standalone="no"?>
<!DOCTYPE svg PUBLIC "-//W3C//DTD SVG 1.1//EN"
"http://www.w3.org/Graphics/SVG/1.1/DTD/svg11.dtd">
<svg viewBox="0 0 935 1210" version="1.1" xmlns="http://www.w3.org/2000/svg" xmlns:xlink="http://www.w3.org/1999/xlink">
<defs>
<style type="text/css"><![CDATA[
.g0_35{
fill: #000;
}
]]></style>
</defs>
<path d="M128.9,205.5h.8v-.7h-.8v.7Z" class="g0_35"/>
<path d="M128.9,205.5h.8v-.7h-.8v.7Z" class="g0_35"/>
<path d="M129.7,205.5H271.9v-.7H129.7v.7Z" class="g0_35"/>
<path d="M271.9,205.5h.8v-.7h-.8v.7Z" class="g0_35"/>
<path d="M272.7,205.5H413.6v-.7H272.7v.7Z" class="g0_35"/>
<path d="M413.6,205.5h.8v-.7h-.8v.7Z" class="g0_35"/>
<path d="M414.4,205.5H546.2v-.7H414.4v.7Z" class="g0_35"/>
<path d="M546.2,205.5h.7v-.7h-.7v.7Z" class="g0_35"/>
<path d="M546.9,205.5H685.7v-.7H546.9v.7Z" class="g0_35"/>
<path d="M685.7,205.5h.7v-.7h-.7v.7Z" class="g0_35"/>
<path d="M686.4,205.5h119v-.7h-119v.7Z" class="g0_35"/>
<path d="M805.4,205.5h.7v-.7h-.7v.7Z" class="g0_35"/>
<path d="M805.4,205.5h.7v-.7h-.7v.7Z" class="g0_35"/>
<path d="M128.9,252.4h.8V205.5h-.8v46.9Z" class="g0_35"/>
<path d="M271.9,252.4h.8V205.5h-.8v46.9Z" class="g0_35"/>
<path d="M413.6,252.4h.8V205.5h-.8v46.9Z" class="g0_35"/>
<path d="M546.2,252.4h.7V205.5h-.7v46.9Z" class="g0_35"/>
<path d="M685.7,252.4h.7V205.5h-.7v46.9Z" class="g0_35"/>
<path d="M805.4,252.4h.7V205.5h-.7v46.9Z" class="g0_35"/>
<path d="M128.9,253.2h.8v-.8h-.8v.8Z" class="g0_35"/>
<path d="M129.7,253.2H271.9v-.8H129.7v.8Z" class="g0_35"/>
<path d="M271.9,253.2h.8v-.8h-.8v.8Z" class="g0_35"/>
<path d="M272.7,253.2H413.6v-.8H272.7v.8Z" class="g0_35"/>
<path d="M413.6,253.2h.8v-.8h-.8v.8Z" class="g0_35"/>
<path d="M414.4,253.2H546.2v-.8H414.4v.8Z" class="g0_35"/>
<path d="M546.2,253.2h.7v-.8h-.7v.8Z" class="g0_35"/>
<path d="M546.9,253.2H685.7v-.8H546.9v.8Z" class="g0_35"/>
<path d="M685.7,253.2h.7v-.8h-.7v.8Z" class="g0_35"/>
<path d="M686.4,253.2h119v-.8h-119v.8Z" class="g0_35"/>
<path d="M805.4,253.2h.7v-.8h-.7v.8Z" class="g0_35"/>
<path d="M128.9,300.1h.8V253.2h-.8v46.9Z" class="g0_35"/>
<path d="M271.9,300.1h.8V253.2h-.8v46.9Z" class="g0_35"/>
<path d="M413.6,300.1h.8V253.2h-.8v46.9Z" class="g0_35"/>
<path d="M546.2,300.1h.7V253.2h-.7v46.9Z" class="g0_35"/>
<path d="M685.7,300.1h.7V253.2h-.7v46.9Z" class="g0_35"/>
<path d="M805.4,300.1h.7V253.2h-.7v46.9Z" class="g0_35"/>
<path d="M128.9,300.8h.8v-.7h-.8v.7Z" class="g0_35"/>
<path d="M129.7,300.8H271.9v-.7H129.7v.7Z" class="g0_35"/>
<path d="M271.9,300.8h.8v-.7h-.8v.7Z" class="g0_35"/>
<path d="M272.7,300.8H413.6v-.7H272.7v.7Z" class="g0_35"/>
<path d="M413.6,300.8h.8v-.7h-.8v.7Z" class="g0_35"/>
<path d="M414.4,300.8H546.2v-.7H414.4v.7Z" class="g0_35"/>
<path d="M546.2,300.8h.7v-.7h-.7v.7Z" class="g0_35"/>
<path d="M546.9,300.8H685.7v-.7H546.9v.7Z" class="g0_35"/>
<path d="M685.7,300.8h.7v-.7h-.7v.7Z" class="g0_35"/>
<path d="M686.4,300.8h119v-.7h-119v.7Z" class="g0_35"/>
<path d="M805.4,300.8h.7v-.7h-.7v.7Z" class="g0_35"/>
<path d="M128.9,347.8h.8v-47h-.8v47Z" class="g0_35"/>
<path d="M271.9,347.8h.8v-47h-.8v47Z" class="g0_35"/>
<path d="M413.6,347.8h.8v-47h-.8v47Z" class="g0_35"/>
<path d="M546.2,347.8h.7v-47h-.7v47Z" class="g0_35"/>
<path d="M685.7,347.8h.7v-47h-.7v47Z" class="g0_35"/>
<path d="M805.4,347.8h.7v-47h-.7v47Z" class="g0_35"/>
<path d="M128.9,348.5h.8v-.7h-.8v.7Z" class="g0_35"/>
<path d="M129.7,348.5H271.9v-.7H129.7v.7Z" class="g0_35"/>
<path d="M271.9,348.5h.8v-.7h-.8v.7Z" class="g0_35"/>
<path d="M272.7,348.5H413.6v-.7H272.7v.7Z" class="g0_35"/>
<path d="M413.6,348.5h.8v-.7h-.8v.7Z" class="g0_35"/>
<path d="M414.4,348.5H546.2v-.7H414.4v.7Z" class="g0_35"/>
<path d="M546.2,348.5h.7v-.7h-.7v.7Z" class="g0_35"/>
<path d="M546.9,348.5H685.7v-.7H546.9v.7Z" class="g0_35"/>
<path d="M685.7,348.5h.7v-.7h-.7v.7Z" class="g0_35"/>
<path d="M686.4,348.5h119v-.7h-119v.7Z" class="g0_35"/>
<path d="M805.4,348.5h.7v-.7h-.7v.7Z" class="g0_35"/>
<path d="M128.9,395.6h.8V348.5h-.8v47.1Z" class="g0_35"/>
<path d="M128.9,396.3h.8v-.7h-.8v.7Z" class="g0_35"/>
<path d="M128.9,396.3h.8v-.7h-.8v.7Z" class="g0_35"/>
<path d="M129.7,396.3H271.9v-.7H129.7v.7Z" class="g0_35"/>
<path d="M271.9,395.6h.8V348.5h-.8v47.1Z" class="g0_35"/>
<path d="M271.9,396.3h.8v-.7h-.8v.7Z" class="g0_35"/>
<path d="M272.7,396.3H413.6v-.7H272.7v.7Z" class="g0_35"/>
<path d="M413.6,395.6h.8V348.5h-.8v47.1Z" class="g0_35"/>
<path d="M413.6,396.3h.8v-.7h-.8v.7Z" class="g0_35"/>
<path d="M414.4,396.3H546.2v-.7H414.4v.7Z" class="g0_35"/>
<path d="M546.2,395.6h.7V348.5h-.7v47.1Z" class="g0_35"/>
<path d="M546.2,396.3h.7v-.7h-.7v.7Z" class="g0_35"/>
<path d="M546.9,396.3H685.7v-.7H546.9v.7Z" class="g0_35"/>
<path d="M685.7,395.6h.7V348.5h-.7v47.1Z" class="g0_35"/>
<path d="M685.7,396.3h.7v-.7h-.7v.7Z" class="g0_35"/>
<path d="M686.4,396.3h119v-.7h-119v.7Z" class="g0_35"/>
<path d="M805.4,395.6h.7V348.5h-.7v47.1Z" class="g0_35"/>
<path d="M805.4,396.3h.7v-.7h-.7v.7Z" class="g0_35"/>
<path d="M805.4,396.3h.7v-.7h-.7v.7Z" class="g0_35"/>
<path d="M36.7,41.2h4.6V36.7H36.7v4.5Z" class="g0_35"/>
<path d="M36.7,41.2h4.6V36.7H36.7v4.5Z" class="g0_35"/>
<path d="M41.3,41.2H893.7V36.7H41.3v4.5Z" class="g0_35"/>
<path d="M893.7,41.2h4.6V36.7h-4.6v4.5Z" class="g0_35"/>
<path d="M893.7,41.2h4.6V36.7h-4.6v4.5Z" class="g0_35"/>
<path d="M36.7,1168.7h4.6V41.2H36.7V1168.7Z" class="g0_35"/>
<path d="M893.7,1168.7h4.6V41.2h-4.6V1168.7Z" class="g0_35"/>
<path d="M36.7,1173.2h4.6v-4.5H36.7v4.5Z" class="g0_35"/>
<path d="M36.7,1173.2h4.6v-4.5H36.7v4.5Z" class="g0_35"/>
<path d="M41.3,1173.2H893.7v-4.5H41.3v4.5Z" class="g0_35"/>
<path d="M893.7,1173.2h4.6v-4.5h-4.6v4.5Z" class="g0_35"/>
<path d="M893.7,1173.2h4.6v-4.5h-4.6v4.5Z" class="g0_35"/>
</svg>