<?xml version="1.0" encoding="UTF-8" standalone="no"?>
<!DOCTYPE svg PUBLIC "-//W3C//DTD SVG 1.1//EN"
"http://www.w3.org/Graphics/SVG/1.1/DTD/svg11.dtd">
<svg viewBox="0 0 935 1210" version="1.1" xmlns="http://www.w3.org/2000/svg" xmlns:xlink="http://www.w3.org/1999/xlink">
<defs>
<style type="text/css"><![CDATA[
.g0_5{
fill: #000;
}
]]></style>
</defs>
<path d="M137.6,162.4H324.9v-1.8H137.6v1.8Z" class="g0_5"/>
<path d="M128.9,234.6h.8v-.7h-.8v.7Z" class="g0_5"/>
<path d="M128.9,234.6h.8v-.7h-.8v.7Z" class="g0_5"/>
<path d="M129.7,234.6h90v-.7h-90v.7Z" class="g0_5"/>
<path d="M219.7,234.6h.7v-.7h-.7v.7Z" class="g0_5"/>
<path d="M220.4,234.6H522.2v-.7H220.4v.7Z" class="g0_5"/>
<path d="M522.2,234.6h.7v-.7h-.7v.7Z" class="g0_5"/>
<path d="M522.9,234.6h165v-.7h-165v.7Z" class="g0_5"/>
<path d="M687.9,234.6h.7v-.7h-.7v.7Z" class="g0_5"/>
<path d="M687.9,234.6h.7v-.7h-.7v.7Z" class="g0_5"/>
<path d="M128.9,271.5h.8V234.6h-.8v36.9Z" class="g0_5"/>
<path d="M219.7,271.5h.7V234.6h-.7v36.9Z" class="g0_5"/>
<path d="M522.2,271.5h.7V234.6h-.7v36.9Z" class="g0_5"/>
<path d="M687.9,271.5h.7V234.6h-.7v36.9Z" class="g0_5"/>
<path d="M128.9,272.2h.8v-.7h-.8v.7Z" class="g0_5"/>
<path d="M129.7,272.2h90v-.7h-90v.7Z" class="g0_5"/>
<path d="M219.7,272.2h.7v-.7h-.7v.7Z" class="g0_5"/>
<path d="M220.4,272.2H522.2v-.7H220.4v.7Z" class="g0_5"/>
<path d="M522.2,272.2h.7v-.7h-.7v.7Z" class="g0_5"/>
<path d="M522.9,272.2h165v-.7h-165v.7Z" class="g0_5"/>
<path d="M687.9,272.2h.7v-.7h-.7v.7Z" class="g0_5"/>
<path d="M128.9,325h.8V272.2h-.8V325Z" class="g0_5"/>
<path d="M219.7,325h.7V272.2h-.7V325Z" class="g0_5"/>
<path d="M522.2,325h.7V272.2h-.7V325Z" class="g0_5"/>
<path d="M687.9,325h.7V272.2h-.7V325Z" class="g0_5"/>
<path d="M128.9,325.8h.8V325h-.8v.8Z" class="g0_5"/>
<path d="M129.7,325.8h90V325h-90v.8Z" class="g0_5"/>
<path d="M219.7,325.8h.7V325h-.7v.8Z" class="g0_5"/>
<path d="M220.4,325.8H522.2V325H220.4v.8Z" class="g0_5"/>
<path d="M522.2,325.8h.7V325h-.7v.8Z" class="g0_5"/>
<path d="M522.9,325.8h165V325h-165v.8Z" class="g0_5"/>
<path d="M687.9,325.8h.7V325h-.7v.8Z" class="g0_5"/>
<path d="M128.9,357.3h.8V325.8h-.8v31.5Z" class="g0_5"/>
<path d="M219.7,357.3h.7V325.8h-.7v31.5Z" class="g0_5"/>
<path d="M522.2,357.3h.7V325.8h-.7v31.5Z" class="g0_5"/>
<path d="M687.9,357.3h.7V325.8h-.7v31.5Z" class="g0_5"/>
<path d="M128.9,358h.8v-.7h-.8v.7Z" class="g0_5"/>
<path d="M129.7,358h90v-.7h-90v.7Z" class="g0_5"/>
<path d="M219.7,358h.7v-.7h-.7v.7Z" class="g0_5"/>
<path d="M220.4,358H522.2v-.7H220.4v.7Z" class="g0_5"/>
<path d="M522.2,358h.7v-.7h-.7v.7Z" class="g0_5"/>
<path d="M522.9,358h165v-.7h-165v.7Z" class="g0_5"/>
<path d="M687.9,358h.7v-.7h-.7v.7Z" class="g0_5"/>
<path d="M128.9,399.3h.8V358h-.8v41.3Z" class="g0_5"/>
<path d="M219.7,399.3h.7V358h-.7v41.3Z" class="g0_5"/>
<path d="M522.2,399.3h.7V358h-.7v41.3Z" class="g0_5"/>
<path d="M687.9,399.3h.7V358h-.7v41.3Z" class="g0_5"/>
<path d="M128.9,400h.8v-.7h-.8v.7Z" class="g0_5"/>
<path d="M129.7,400h90v-.7h-90v.7Z" class="g0_5"/>
<path d="M219.7,400h.7v-.7h-.7v.7Z" class="g0_5"/>
<path d="M220.4,400H522.2v-.7H220.4v.7Z" class="g0_5"/>
<path d="M522.2,400h.7v-.7h-.7v.7Z" class="g0_5"/>
<path d="M522.9,400h165v-.7h-165v.7Z" class="g0_5"/>
<path d="M687.9,400h.7v-.7h-.7v.7Z" class="g0_5"/>
<path d="M128.9,434.3h.8V400h-.8v34.3Z" class="g0_5"/>
<path d="M219.7,434.3h.7V400h-.7v34.3Z" class="g0_5"/>
<path d="M522.2,434.3h.7V400h-.7v34.3Z" class="g0_5"/>
<path d="M687.9,434.3h.7V400h-.7v34.3Z" class="g0_5"/>
<path d="M128.9,435h.8v-.7h-.8v.7Z" class="g0_5"/>
<path d="M129.7,435h90v-.7h-90v.7Z" class="g0_5"/>
<path d="M219.7,435h.7v-.7h-.7v.7Z" class="g0_5"/>
<path d="M220.4,435H522.2v-.7H220.4v.7Z" class="g0_5"/>
<path d="M522.2,435h.7v-.7h-.7v.7Z" class="g0_5"/>
<path d="M522.9,435h165v-.7h-165v.7Z" class="g0_5"/>
<path d="M687.9,435h.7v-.7h-.7v.7Z" class="g0_5"/>
<path d="M128.9,473.5h.8V435h-.8v38.5Z" class="g0_5"/>
<path d="M219.7,473.5h.7V435h-.7v38.5Z" class="g0_5"/>
<path d="M522.2,473.5h.7V435h-.7v38.5Z" class="g0_5"/>
<path d="M687.9,473.5h.7V435h-.7v38.5Z" class="g0_5"/>
<path d="M128.9,474.2h.8v-.7h-.8v.7Z" class="g0_5"/>
<path d="M129.7,474.2h90v-.7h-90v.7Z" class="g0_5"/>
<path d="M219.7,474.2h.7v-.7h-.7v.7Z" class="g0_5"/>
<path d="M220.4,474.2H522.2v-.7H220.4v.7Z" class="g0_5"/>
<path d="M522.2,474.2h.7v-.7h-.7v.7Z" class="g0_5"/>
<path d="M522.9,474.2h165v-.7h-165v.7Z" class="g0_5"/>
<path d="M687.9,474.2h.7v-.7h-.7v.7Z" class="g0_5"/>
<path d="M128.9,506h.8V474.2h-.8V506Z" class="g0_5"/>
<path d="M219.7,506h.7V474.2h-.7V506Z" class="g0_5"/>
<path d="M522.2,506h.7V474.2h-.7V506Z" class="g0_5"/>
<path d="M687.9,506h.7V474.2h-.7V506Z" class="g0_5"/>
<path d="M128.9,506.7h.8V506h-.8v.7Z" class="g0_5"/>
<path d="M129.7,506.7h90V506h-90v.7Z" class="g0_5"/>
<path d="M219.7,506.7h.7V506h-.7v.7Z" class="g0_5"/>
<path d="M220.4,506.7H522.2V506H220.4v.7Z" class="g0_5"/>
<path d="M522.2,506.7h.7V506h-.7v.7Z" class="g0_5"/>
<path d="M522.9,506.7h165V506h-165v.7Z" class="g0_5"/>
<path d="M687.9,506.7h.7V506h-.7v.7Z" class="g0_5"/>
<path d="M128.9,550h.8V506.7h-.8V550Z" class="g0_5"/>
<path d="M128.9,550.7h.8V550h-.8v.7Z" class="g0_5"/>
<path d="M128.9,550.7h.8V550h-.8v.7Z" class="g0_5"/>
<path d="M129.7,550.7h90V550h-90v.7Z" class="g0_5"/>
<path d="M219.7,550h.7V506.7h-.7V550Z" class="g0_5"/>
<path d="M219.7,550.7h.7V550h-.7v.7Z" class="g0_5"/>
<path d="M220.4,550.7H522.2V550H220.4v.7Z" class="g0_5"/>
<path d="M522.2,550h.7V506.7h-.7V550Z" class="g0_5"/>
<path d="M522.2,550.7h.7V550h-.7v.7Z" class="g0_5"/>
<path d="M522.9,550.7h165V550h-165v.7Z" class="g0_5"/>
<path d="M687.9,550h.7V506.7h-.7V550Z" class="g0_5"/>
<path d="M687.9,550.7h.7V550h-.7v.7Z" class="g0_5"/>
<path d="M687.9,550.7h.7V550h-.7v.7Z" class="g0_5"/>
<path d="M36.7,41.2h4.6V36.7H36.7v4.5Z" class="g0_5"/>
<path d="M36.7,41.2h4.6V36.7H36.7v4.5Z" class="g0_5"/>
<path d="M41.3,41.2H893.7V36.7H41.3v4.5Z" class="g0_5"/>
<path d="M893.7,41.2h4.6V36.7h-4.6v4.5Z" class="g0_5"/>
<path d="M893.7,41.2h4.6V36.7h-4.6v4.5Z" class="g0_5"/>
<path d="M36.7,1168.7h4.6V41.2H36.7V1168.7Z" class="g0_5"/>
<path d="M893.7,1168.7h4.6V41.2h-4.6V1168.7Z" class="g0_5"/>
<path d="M36.7,1173.2h4.6v-4.5H36.7v4.5Z" class="g0_5"/>
<path d="M36.7,1173.2h4.6v-4.5H36.7v4.5Z" class="g0_5"/>
<path d="M41.3,1173.2H893.7v-4.5H41.3v4.5Z" class="g0_5"/>
<path d="M893.7,1173.2h4.6v-4.5h-4.6v4.5Z" class="g0_5"/>
<path d="M893.7,1173.2h4.6v-4.5h-4.6v4.5Z" class="g0_5"/>
</svg>